<svg width="22" height="22" viewBox="0 0 22 22" fill="none" xmlns="http://www.w3.org/2000/svg">
<path fill-rule="evenodd" clip-rule="evenodd" d="M12.2812 5.0625C12.2812 4.49296 11.8195 4.03125 11.25 4.03125H5.0625C4.49296 4.03125 4.03125 4.49296 4.03125 5.0625V17.4375C4.03125 18.007 4.49296 18.4688 5.0625 18.4688H8.94507C9.25687 18.8493 9.60932 19.1953 9.99581 19.5H5.0625C3.92341 19.5 3 18.5766 3 17.4375V5.0625C3 3.92341 3.92341 3 5.0625 3H11.25C12.3891 3 13.3125 3.92341 13.3125 5.0625V7.47046C12.9595 7.51576 12.615 7.58826 12.2812 7.68579V5.0625Z" fill="#8F94AC"/>
<path d="M8.94507 18.4688L9.09977 18.342L9.03976 18.2687H8.94507V18.4688ZM9.99581 19.5V19.7H10.5725L10.1196 19.3429L9.99581 19.5ZM13.3125 7.47046L13.338 7.66883L13.5125 7.64643V7.47046H13.3125ZM12.2812 7.68579H12.0812V7.95259L12.3373 7.87776L12.2812 7.68579ZM11.25 4.23125C11.7091 4.23125 12.0812 4.60341 12.0812 5.0625H12.4813C12.4813 4.3825 11.93 3.83125 11.25 3.83125V4.23125ZM5.0625 4.23125H11.25V3.83125H5.0625V4.23125ZM4.23125 5.0625C4.23125 4.60341 4.60341 4.23125 5.0625 4.23125V3.83125C4.3825 3.83125 3.83125 4.3825 3.83125 5.0625H4.23125ZM4.23125 17.4375V5.0625H3.83125V17.4375H4.23125ZM5.0625 18.2687C4.60341 18.2687 4.23125 17.8966 4.23125 17.4375H3.83125C3.83125 18.1175 4.3825 18.6688 5.0625 18.6688V18.2687ZM8.94507 18.2687H5.0625V18.6688H8.94507V18.2687ZM10.1196 19.3429C9.74452 19.0472 9.40241 18.7114 9.09977 18.342L8.79036 18.5955C9.11132 18.9872 9.47413 19.3434 9.87198 19.6571L10.1196 19.3429ZM5.0625 19.7H9.99581V19.3H5.0625V19.7ZM2.8 17.4375C2.8 18.687 3.81296 19.7 5.0625 19.7V19.3C4.03387 19.3 3.2 18.4661 3.2 17.4375H2.8ZM2.8 5.0625V17.4375H3.2V5.0625H2.8ZM5.0625 2.8C3.81296 2.8 2.8 3.81296 2.8 5.0625H3.2C3.2 4.03387 4.03387 3.2 5.0625 3.2V2.8ZM11.25 2.8H5.0625V3.2H11.25V2.8ZM13.5125 5.0625C13.5125 3.81296 12.4995 2.8 11.25 2.8V3.2C12.2786 3.2 13.1125 4.03387 13.1125 5.0625H13.5125ZM13.5125 7.47046V5.0625H13.1125V7.47046H13.5125ZM12.3373 7.87776C12.6612 7.78314 12.9954 7.7128 13.338 7.66883L13.287 7.27208C12.9236 7.31873 12.5689 7.39338 12.2252 7.49382L12.3373 7.87776ZM12.0812 5.0625V7.68579H12.4813V5.0625H12.0812Z" fill="#8F94AC"/>
<path d="M14.1826 12.0252C12.9912 12.0252 12.0253 12.9911 12.0253 14.1826C12.0253 15.3741 12.9912 16.34 14.1826 16.34C15.3741 16.34 16.34 15.3741 16.34 14.1826C16.34 12.9911 15.3741 12.0252 14.1826 12.0252ZM12.6899 14.1826C12.6899 13.3582 13.3582 12.6899 14.1826 12.6899C15.007 12.6899 15.6753 13.3582 15.6753 14.1826C15.6753 15.007 15.007 15.6753 14.1826 15.6753C13.3582 15.6753 12.6899 15.007 12.6899 14.1826Z" fill="#8F94AC"/>
<path d="M15.3767 9.75814C15.0258 8.5676 13.3395 8.5676 12.9886 9.75814L12.9262 9.96978C12.8217 10.3243 12.4167 10.4921 12.0921 10.3153L11.8984 10.2097C10.8084 9.616 9.616 10.8084 10.2097 11.8984L10.3153 12.0921C10.4921 12.4167 10.3243 12.8217 9.96978 12.9262L9.75814 12.9886C8.5676 13.3395 8.5676 15.0258 9.75814 15.3767L9.96978 15.4391C10.3243 15.5436 10.4921 15.9485 10.3153 16.2731L10.2097 16.4669C9.616 17.5568 10.8084 18.7492 11.8984 18.1555L12.0921 18.05C12.4167 17.8732 12.8217 18.0409 12.9262 18.3954L12.9886 18.6071C13.3395 19.7976 15.0258 19.7976 15.3767 18.6071L15.4391 18.3954C15.5436 18.0409 15.9485 17.8732 16.2731 18.05L16.4669 18.1555C17.5568 18.7492 18.7492 17.5568 18.1555 16.4669L18.05 16.2731C17.8732 15.9485 18.0409 15.5436 18.3955 15.4391L18.6071 15.3767C19.7976 15.0258 19.7976 13.3395 18.6071 12.9886L18.3955 12.9262C18.0409 12.8217 17.8732 12.4167 18.05 12.0921L18.1555 11.8984C18.7492 10.8084 17.5568 9.616 16.4669 10.2097L16.2731 10.3153C15.9485 10.4921 15.5436 10.3243 15.4391 9.96978L15.3767 9.75814ZM13.6261 9.94606C13.7897 9.39119 14.5756 9.39119 14.7391 9.94606L14.8015 10.1577C15.0257 10.9184 15.8946 11.2783 16.591 10.8989L16.7848 10.7934C17.2928 10.5167 17.8485 11.0724 17.5718 11.5804L17.4663 11.7742C17.0869 12.4706 17.4468 13.3395 18.2075 13.5637L18.4192 13.6261C18.974 13.7897 18.974 14.5756 18.4192 14.7391L18.2075 14.8015C17.4468 15.0257 17.0869 15.8946 17.4663 16.591L17.5718 16.7848C17.8485 17.2928 17.2928 17.8485 16.7848 17.5718L16.591 17.4663C15.8946 17.0869 15.0257 17.4468 14.8015 18.2075L14.7391 18.4192C14.5756 18.974 13.7897 18.974 13.6261 18.4192L13.5637 18.2075C13.3395 17.4468 12.4706 17.0869 11.7742 17.4663L11.5804 17.5718C11.0724 17.8485 10.5167 17.2928 10.7934 16.7848L10.8989 16.591C11.2783 15.8946 10.9184 15.0257 10.1577 14.8015L9.94606 14.7391C9.39119 14.5756 9.39119 13.7897 9.94606 13.6261L10.1577 13.5637C10.9184 13.3395 11.2783 12.4706 10.8989 11.7742L10.7934 11.5804C10.5167 11.0724 11.0724 10.5167 11.5804 10.7934L11.7742 10.8989C12.4706 11.2783 13.3395 10.9184 13.5637 10.1577L13.6261 9.94606Z" fill="#8F94AC"/>
<path d="M14.1826 12.0252C12.9912 12.0252 12.0253 12.9911 12.0253 14.1826C12.0253 15.3741 12.9912 16.34 14.1826 16.34C15.3741 16.34 16.34 15.3741 16.34 14.1826C16.34 12.9911 15.3741 12.0252 14.1826 12.0252ZM12.6899 14.1826C12.6899 13.3582 13.3582 12.6899 14.1826 12.6899C15.007 12.6899 15.6753 13.3582 15.6753 14.1826C15.6753 15.007 15.007 15.6753 14.1826 15.6753C13.3582 15.6753 12.6899 15.007 12.6899 14.1826Z" stroke="#8F94AC" stroke-width="0.5"/>
<path d="M15.3767 9.75814C15.0258 8.5676 13.3395 8.5676 12.9886 9.75814L12.9262 9.96978C12.8217 10.3243 12.4167 10.4921 12.0921 10.3153L11.8984 10.2097C10.8084 9.616 9.616 10.8084 10.2097 11.8984L10.3153 12.0921C10.4921 12.4167 10.3243 12.8217 9.96978 12.9262L9.75814 12.9886C8.5676 13.3395 8.5676 15.0258 9.75814 15.3767L9.96978 15.4391C10.3243 15.5436 10.4921 15.9485 10.3153 16.2731L10.2097 16.4669C9.616 17.5568 10.8084 18.7492 11.8984 18.1555L12.0921 18.05C12.4167 17.8732 12.8217 18.0409 12.9262 18.3954L12.9886 18.6071C13.3395 19.7976 15.0258 19.7976 15.3767 18.6071L15.4391 18.3954C15.5436 18.0409 15.9485 17.8732 16.2731 18.05L16.4669 18.1555C17.5568 18.7492 18.7492 17.5568 18.1555 16.4669L18.05 16.2731C17.8732 15.9485 18.0409 15.5436 18.3955 15.4391L18.6071 15.3767C19.7976 15.0258 19.7976 13.3395 18.6071 12.9886L18.3955 12.9262C18.0409 12.8217 17.8732 12.4167 18.05 12.0921L18.1555 11.8984C18.7492 10.8084 17.5568 9.616 16.4669 10.2097L16.2731 10.3153C15.9485 10.4921 15.5436 10.3243 15.4391 9.96978L15.3767 9.75814ZM13.6261 9.94606C13.7897 9.39119 14.5756 9.39119 14.7391 9.94606L14.8015 10.1577C15.0257 10.9184 15.8946 11.2783 16.591 10.8989L16.7848 10.7934C17.2928 10.5167 17.8485 11.0724 17.5718 11.5804L17.4663 11.7742C17.0869 12.4706 17.4468 13.3395 18.2075 13.5637L18.4192 13.6261C18.974 13.7897 18.974 14.5756 18.4192 14.7391L18.2075 14.8015C17.4468 15.0257 17.0869 15.8946 17.4663 16.591L17.5718 16.7848C17.8485 17.2928 17.2928 17.8485 16.7848 17.5718L16.591 17.4663C15.8946 17.0869 15.0257 17.4468 14.8015 18.2075L14.7391 18.4192C14.5756 18.974 13.7897 18.974 13.6261 18.4192L13.5637 18.2075C13.3395 17.4468 12.4706 17.0869 11.7742 17.4663L11.5804 17.5718C11.0724 17.8485 10.5167 17.2928 10.7934 16.7848L10.8989 16.591C11.2783 15.8946 10.9184 15.0257 10.1577 14.8015L9.94606 14.7391C9.39119 14.5756 9.39119 13.7897 9.94606 13.6261L10.1577 13.5637C10.9184 13.3395 11.2783 12.4706 10.8989 11.7742L10.7934 11.5804C10.5167 11.0724 11.0724 10.5167 11.5804 10.7934L11.7742 10.8989C12.4706 11.2783 13.3395 10.9184 13.5637 10.1577L13.6261 9.94606Z" stroke="#8F94AC" stroke-width="0.5"/>
</svg>
