<svg width="68" height="80" viewBox="0 0 68 80" fill="none" xmlns="http://www.w3.org/2000/svg">
<path d="M0 62.7311C0.170417 60.3135 1.0225 58.4139 2.55626 57.0324C3.57876 55.9963 4.77169 54.9601 5.96461 54.2694C8.69129 52.7152 11.418 51.3336 14.1446 50.1248C17.553 48.5706 20.9613 47.0164 23.5176 44.2534C24.0288 43.7353 24.5401 42.8719 24.5401 42.0084C24.5401 40.1089 24.5401 38.2093 24.3697 36.137C24.1993 35.1009 23.8584 34.2375 23.688 33.374C22.1543 33.5467 21.1318 33.0286 20.6205 31.3017C19.9388 29.5749 19.598 27.6753 19.0867 25.9484C18.5755 24.2215 18.5755 22.4946 20.4501 21.6312C14.9967 6.60724 24.8809 -0.645692 32.8906 0.0450635C32.5497 0.217752 32.3793 0.217752 32.0385 0.390441C31.868 0.390441 31.6976 0.56313 31.5272 0.56313C36.8102 0.908508 41.9227 1.42657 45.5014 6.08917C48.9098 10.5791 49.9323 15.4144 48.3985 20.7677C49.7619 21.6312 50.1027 22.1492 49.9323 23.3581C49.5915 26.2938 48.569 29.0568 47.2056 31.6471C47.0352 31.9925 46.5239 32.5106 46.3535 32.3379C44.9902 32.1652 44.8198 33.2013 44.6494 33.8921C44.3085 35.9643 44.1381 38.0366 43.9677 40.1089C43.7973 42.0085 44.4789 43.7353 46.0127 44.7715C48.2281 46.153 50.4435 47.3618 52.659 48.7433C56.4081 50.8156 60.1573 52.8878 63.7361 55.1328C66.2924 56.687 67.6557 59.1046 67.8261 62.3857C67.8261 62.5584 67.8261 62.7311 67.8261 62.9038L67.4853 63.2492C59.6461 73.4378 47.5464 80 33.9131 80C20.4501 80 8.35045 73.6105 0.511252 63.5946L0 62.7311Z" fill="#F3F3F3"/>
</svg>
