<svg width="60" height="60" viewBox="0 0 60 60" fill="none" xmlns="http://www.w3.org/2000/svg">
<path d="M37.0608 30.7621C36.0783 32.7528 34.7484 34.7377 33.3858 36.5188C32.0275 38.2944 30.6645 39.8315 29.6394 40.9259C29.5032 41.0713 29.3731 41.2087 29.25 41.3376C29.1269 41.2087 28.9968 41.0713 28.8606 40.9259C27.8355 39.8315 26.4725 38.2944 25.1142 36.5188C23.7516 34.7377 22.4217 32.7528 21.4392 30.7621C20.4465 28.7508 19.875 26.8661 19.875 25.25C19.875 20.0723 24.0723 15.875 29.25 15.875C34.4277 15.875 38.625 20.0723 38.625 25.25C38.625 26.8661 38.0535 28.7508 37.0608 30.7621ZM29.25 44C29.25 44 40.5 33.3382 40.5 25.25C40.5 19.0368 35.4632 14 29.25 14C23.0368 14 18 19.0368 18 25.25C18 33.3382 29.25 44 29.25 44Z" fill="#9BA9B3"/>
<path d="M29.25 29C27.1789 29 25.5 27.3211 25.5 25.25C25.5 23.1789 27.1789 21.5 29.25 21.5C31.3211 21.5 33 23.1789 33 25.25C33 27.3211 31.3211 29 29.25 29ZM29.25 30.875C32.3566 30.875 34.875 28.3566 34.875 25.25C34.875 22.1434 32.3566 19.625 29.25 19.625C26.1434 19.625 23.625 22.1434 23.625 25.25C23.625 28.3566 26.1434 30.875 29.25 30.875Z" fill="#9BA9B3"/>
</svg>
