<svg width="60" height="60" viewBox="0 0 60 60" fill="none" xmlns="http://www.w3.org/2000/svg">
<path d="M36.1238 29.5429V18.0476C36.1238 15.075 33.7017 14 32.0762 14H16.2095C12.7577 14 12 16.571 12 17.5619V39.4773L18.256 32.7032H32.9699C35.2819 32.7032 36.1238 30.8122 36.1238 29.5429ZM17.4011 30.7604L13.9429 34.5036V17.5619C13.9429 17.3935 14.0076 15.9429 16.2095 15.9429H32.0697C32.4194 15.9493 34.181 16.0724 34.181 18.0476V29.5429C34.181 29.8278 34.0903 30.7604 32.9634 30.7604H17.4011Z" fill="#9BA9B3"/>
<path d="M31.1048 18.3713H16.8572V19.9904H31.1048V18.3713Z" fill="#9BA9B3"/>
<path d="M31.1048 22.2571H16.8572V23.8761H31.1048V22.2571Z" fill="#9BA9B3"/>
<path d="M25.9238 26.3889H16.8572V28.008H25.9238V26.3889Z" fill="#9BA9B3"/>
<path d="M41.7905 20.8H38.5524V22.7429H41.7905C42.0236 22.7429 44.0571 22.8077 44.0571 25.0096V39.2637L40.9356 35.6953H27.5493C27.4846 35.6953 25.9238 35.6694 25.9238 34.7239H23.981C23.981 37.0294 26.3124 37.6381 27.5429 37.6381H40.0549L46 44.4317V25.0096C46 21.9204 43.4808 20.8 41.7905 20.8Z" fill="#9BA9B3"/>
<path d="M41.4925 24.4526H38.3386V26.0717H41.4925V24.4526Z" fill="#9BA9B3"/>
<path d="M41.4925 28.3384H38.3386V29.9574H41.4925V28.3384Z" fill="#9BA9B3"/>
<path d="M38.3386 32.2241C38.3386 32.2241 38.1572 33.8108 36.4346 33.8108C36.8296 33.8108 37.5614 33.8108 38.3386 33.8108V33.8432H41.4925V32.2241H38.3386Z" fill="#9BA9B3"/>
</svg>
