<svg width="60" height="60" viewBox="0 0 60 60" fill="none" xmlns="http://www.w3.org/2000/svg">
<path fill-rule="evenodd" clip-rule="evenodd" d="M23 15.9023C23 15.404 22.6082 15 22.125 15C21.6418 15 21.25 15.404 21.25 15.9023V16.8047H19.5C17.567 16.8047 16 18.4207 16 20.4141V40.2656C16 42.259 17.567 43.875 19.5 43.875H40.5C42.433 43.875 44 42.259 44 40.2656V20.4141C44 18.4207 42.433 16.8047 40.5 16.8047H38.75V15.9023C38.75 15.404 38.3582 15 37.875 15C37.3918 15 37 15.404 37 15.9023V16.8047H23V15.9023ZM17.75 20.4141C17.75 19.4174 18.5335 18.6094 19.5 18.6094H40.5C41.4665 18.6094 42.25 19.4174 42.25 20.4141V22.2188H17.75V20.4141ZM17.75 24.0234H42.25V40.2656C42.25 41.2623 41.4665 42.0703 40.5 42.0703H19.5C18.5335 42.0703 17.75 41.2623 17.75 40.2656V24.0234ZM22 27.375H20V29.4375H22V27.375ZM26 27.375H24V29.4375H26V27.375ZM28 27.375H30V29.4375H28V27.375ZM34 27.375H32V29.4375H34V27.375ZM36 29.4375V27.375H38V29.4375H36ZM22 33.5625V31.5H20V33.5625H22ZM24 31.4194H26V35.625H24V31.4194ZM30 31.4194H26V33.4819H30V31.4194ZM32 31.4194H34V33.4819H32V31.4194ZM38 31.4194H36V33.4819H38V31.4194ZM36 37.6875V35.625H38V37.6875H36ZM34 35.625H32V37.6875H34V35.625ZM28 33.4819H30V37.6875H28V33.4819ZM28 35.625H24V37.6875H28V35.625ZM20 35.625H22V37.6875H20V35.625Z" fill="#9BA9B3"/>
</svg>
