<svg width="12" height="21" viewBox="0 0 12 21" fill="none" xmlns="http://www.w3.org/2000/svg">
<g clip-path="url(#clip0_5596_35516)">
<path d="M4.90842 0.615351L4.90854 0.615329C7.96199 0.0724661 10.8024 1.98494 11.4723 5.07306C11.7483 6.36295 11.6688 7.63636 11.0808 8.80895L11.0807 8.80908C10.6039 9.76124 10.1334 10.7004 9.5858 11.5719L9.58543 11.5725C8.09075 13.9664 6.68261 16.4236 5.92016 19.2342C5.87798 19.0737 5.83402 18.9131 5.78691 18.7535C5.1273 16.4376 4.01917 14.3813 2.81034 12.392L2.81036 12.392L2.80875 12.3894C2.14381 11.3244 1.49796 10.248 0.931857 9.14062L0.931579 9.14008C-0.900416 5.57792 1.13685 1.28399 4.90842 0.615351ZM3.56799 6.23376L3.56797 6.23376L5.91159 8.50426L5.90799 8.75423C5.90801 8.75423 5.90803 8.75423 5.90804 8.75423C7.21377 8.77301 8.28607 7.66859 8.28694 6.3221C8.30354 4.99749 7.23842 3.82109 5.9293 3.81998C4.65253 3.80218 3.58551 4.92628 3.56799 6.23376Z" fill="#63FF7C" stroke="white" stroke-width="0.5"/>
</g>
<defs>
<clipPath id="clip0_5596_35516">
<rect width="11.875" height="20" fill="white" transform="translate(0 0.273438)"/>
</clipPath>
</defs>
</svg>
