<svg width="17" height="17" viewBox="0 0 17 17" fill="none" xmlns="http://www.w3.org/2000/svg">
<path d="M11.8301 7.49996C12.0254 7.69522 12.0254 8.01181 11.8301 8.20707L8.83012 11.2071C8.73635 11.3008 8.60917 11.3535 8.47656 11.3535C8.34395 11.3535 8.21678 11.3008 8.12301 11.2071L6.62301 9.70707C6.42775 9.51181 6.42775 9.19522 6.62301 8.99996C6.81827 8.8047 7.13485 8.8047 7.33012 8.99996L8.47656 10.1464L11.123 7.49996C11.3183 7.3047 11.6349 7.3047 11.8301 7.49996Z" fill="#9BA9B3"/>
<path d="M4.47656 0.353516C4.7527 0.353516 4.97656 0.577373 4.97656 0.853516V1.35352H12.9766V0.853516C12.9766 0.577373 13.2004 0.353516 13.4766 0.353516C13.7527 0.353516 13.9766 0.577373 13.9766 0.853516V1.35352H14.9766C16.0811 1.35352 16.9766 2.24895 16.9766 3.35352V14.3535C16.9766 15.4581 16.0811 16.3535 14.9766 16.3535H2.97656C1.87199 16.3535 0.976562 15.4581 0.976562 14.3535V3.35352C0.976562 2.24895 1.87199 1.35352 2.97656 1.35352H3.97656V0.853516C3.97656 0.577373 4.20042 0.353516 4.47656 0.353516ZM1.97656 4.35352V14.3535C1.97656 14.9058 2.42428 15.3535 2.97656 15.3535H14.9766C15.5288 15.3535 15.9766 14.9058 15.9766 14.3535V4.35352H1.97656Z" fill="#9BA9B3"/>
</svg>
