<svg width="20" height="18" viewBox="0 0 20 18" fill="none" xmlns="http://www.w3.org/2000/svg">
<path d="M17.75 2.75H14.7781L13.6156 1.48438C13.2688 1.1 12.7625 0.875 12.2375 0.875H8.2625C7.7375 0.875 7.23125 1.1 6.875 1.48438L5.72188 2.75H2.75C1.71875 2.75 0.875 3.59375 0.875 4.625V15.875C0.875 16.9062 1.71875 17.75 2.75 17.75H17.75C18.7812 17.75 19.625 16.9062 19.625 15.875V4.625C19.625 3.59375 18.7812 2.75 17.75 2.75ZM10.25 14.9375C7.6625 14.9375 5.5625 12.8375 5.5625 10.25C5.5625 7.6625 7.6625 5.5625 10.25 5.5625C12.8375 5.5625 14.9375 7.6625 14.9375 10.25C14.9375 12.8375 12.8375 14.9375 10.25 14.9375Z" fill="white"/>
</svg>
