<svg width="25" height="25" viewBox="0 0 25 25" fill="none" xmlns="http://www.w3.org/2000/svg">
<path d="M21.5 18.0978C21.5 18.8437 20.903 19.4484 20.1667 19.4484H4.16667C3.43029 19.4484 2.83333 18.8437 2.83333 18.0978V9.9942C2.83333 9.24828 3.43029 8.6436 4.16667 8.6436H5.72876C6.78963 8.6436 7.80705 8.21671 8.55719 7.45685L9.66176 6.33798C9.91181 6.08469 10.2509 5.9424 10.6046 5.9424H13.7288C14.0824 5.9424 14.4215 6.08469 14.6716 6.33798L15.7761 7.45685C16.5263 8.21671 17.5437 8.6436 18.6046 8.6436H20.1667C20.903 8.6436 21.5 9.24828 21.5 9.9942V18.0978ZM4.16667 7.293C2.69391 7.293 1.5 8.50236 1.5 9.9942V18.0978C1.5 19.5896 2.69391 20.799 4.16667 20.799H20.1667C21.6394 20.799 22.8333 19.5896 22.8333 18.0978V9.9942C22.8333 8.50236 21.6394 7.293 20.1667 7.293H18.6046C17.8973 7.293 17.219 7.00841 16.719 6.50183L15.6144 5.38296C15.1143 4.87639 14.436 4.5918 13.7288 4.5918H10.6046C9.89733 4.5918 9.21905 4.87639 8.71895 5.38296L7.61438 6.50183C7.11429 7.00841 6.43601 7.293 5.72876 7.293H4.16667Z" fill="#66A1D9"/>
<path d="M11.7121 13.3347C12.1667 13.3707 13.7288 15.1995 13.7288 13.3347C13.7288 11.4699 10.3257 13.3707 12.1667 13.3707C12.1667 11.5059 14.0076 13.3707 12.1667 13.3707C12.1667 15.2355 13.5531 13.3347 11.7121 13.3347ZM12.1667 18.0978C14.744 18.0978 16.8333 15.9814 16.8333 13.3707C16.8333 10.76 14.744 8.6436 12.1667 8.6436C9.58934 8.6436 7.5 10.76 7.5 13.3707C7.5 15.9814 9.58934 18.0978 12.1667 18.0978Z" fill="#66A1D9"/>
<path d="M5.5 10.6695C5.5 11.0425 5.20152 11.3448 4.83333 11.3448C4.46514 11.3448 4.16667 11.0425 4.16667 10.6695C4.16667 10.2965 4.46514 9.9942 4.83333 9.9942C5.20152 9.9942 5.5 10.2965 5.5 10.6695Z" fill="#66A1D9"/>
</svg>