<svg width="18" height="14" viewBox="0 0 18 14" fill="none" xmlns="http://www.w3.org/2000/svg">
<path d="M0 0.925117C0.21375 0.576367 0.55125 0.463867 0.945 0.463867C3.7575 0.463867 6.57 0.463867 9.3825 0.463867C10.17 0.463867 10.395 0.700117 10.395 1.48762C10.395 4.53637 10.395 7.59637 10.395 10.6451C10.395 11.3426 10.1812 11.5564 9.495 11.5564C8.64 11.5564 7.79625 11.5564 6.93 11.5564C6.615 10.2964 5.85 9.49762 4.53375 9.48637C3.18375 9.46387 2.4075 10.2851 2.05875 11.5676C1.58625 11.5676 1.11375 11.6126 0.6525 11.5451C0.41625 11.5226 0.21375 11.2976 0 11.1626C0 7.75387 0 4.34512 0 0.925117Z" fill="#80939D"/>
<path d="M17.9999 11.1627C17.7074 11.6239 17.2462 11.6014 16.7962 11.5452C16.6949 11.5339 16.5824 11.3427 16.5374 11.2189C16.1887 10.2402 15.5249 9.63268 14.4899 9.48643C13.3312 9.34018 12.2624 10.0264 11.8799 11.1514C11.8349 11.2752 11.8012 11.3989 11.7562 11.5227C11.2837 11.5227 11.0699 11.3089 11.0699 10.8027C11.0587 9.94768 11.0699 9.09268 11.0699 8.24893C11.0699 6.88768 11.0699 5.52643 11.0699 4.16518C11.0699 3.47893 11.2949 3.24268 11.9699 3.24268C12.8924 3.24268 13.8037 3.25393 14.7262 3.24268C15.0749 3.24268 15.4012 3.29893 15.6149 3.59143C16.3349 4.55893 17.0437 5.53768 17.7524 6.51643C17.8537 6.66268 17.9099 6.84268 17.9887 7.00018C17.9999 8.39518 17.9999 9.77893 17.9999 11.1627ZM13.2187 4.62643C13.2187 5.58268 13.2187 6.47143 13.2187 7.37143C14.4337 7.37143 15.6037 7.37143 16.8074 7.37143C16.7849 7.29268 16.7737 7.21393 16.7399 7.16893C16.1887 6.38143 15.6262 5.58268 15.0637 4.80643C14.9962 4.71643 14.8387 4.64893 14.7149 4.64893C14.2199 4.62643 13.7362 4.62643 13.2187 4.62643Z" fill="#80939D"/>
<path d="M12.6 11.905C12.6 10.9825 13.3087 10.2963 14.2312 10.3075C15.0975 10.3188 15.8287 11.0613 15.8175 11.9275C15.8062 12.8163 15.0412 13.5588 14.1637 13.5363C13.275 13.5138 12.5887 12.805 12.6 11.905Z" fill="#80939D"/>
<path d="M6.0974 11.9613C6.0749 12.85 5.34365 13.5588 4.4774 13.525C3.58865 13.5025 2.8574 12.7488 2.8799 11.8713C2.9024 10.9938 3.67865 10.2738 4.55615 10.3075C5.45615 10.3413 6.1199 11.0613 6.0974 11.9613Z" fill="#80939D"/>
</svg>
