<svg width="16" height="15" viewBox="0 0 16 15" fill="none" xmlns="http://www.w3.org/2000/svg">
<path d="M13.8333 0H2.16667C1.25 0 0.5 0.75 0.5 1.66667V13.3333C0.5 14.25 1.25 15 2.16667 15H13.8333C14.75 15 15.5 14.25 15.5 13.3333V1.66667C15.5 0.75 14.75 0 13.8333 0ZM6.925 11.075C6.6 11.4 6.075 11.4 5.75 11.075L2.75833 8.08333C2.43333 7.75833 2.43333 7.23333 2.75833 6.90833C3.08333 6.58333 3.60833 6.58333 3.93333 6.90833L6.33333 9.30833L12.0667 3.575C12.3917 3.25 12.9167 3.25 13.2417 3.575C13.5667 3.9 13.5667 4.425 13.2417 4.75L6.925 11.075Z" fill="#84BEF3"/>
</svg>
