<svg width="23" height="23" viewBox="0 0 23 23" fill="none" xmlns="http://www.w3.org/2000/svg">
<circle cx="11.4699" cy="11.2506" r="9.235" fill="white" stroke="#88FF10" stroke-width="4"/>
<circle cx="11.5" cy="11.5" r="6.75" fill="white" stroke="#00D8A0" stroke-width="1.5"/>
<mask id="path-3-inside-1_5680_35723" fill="white">
<path d="M11.2218 15.5532V11.7639H7.4325V10.7839H11.2218V7.00391H12.2018V10.7839H15.9912V11.7639H12.2018V15.5532H11.2218Z"/>
</mask>
<path d="M11.2218 15.5532V11.7639H7.4325V10.7839H11.2218V7.00391H12.2018V10.7839H15.9912V11.7639H12.2018V15.5532H11.2218Z" fill="#00D8A0"/>
<path d="M11.2218 15.5532H10.2218V16.5532H11.2218V15.5532ZM11.2218 11.7639H12.2218V10.7639H11.2218V11.7639ZM7.4325 11.7639H6.4325V12.7639H7.4325V11.7639ZM7.4325 10.7839V9.78391H6.4325V10.7839H7.4325ZM11.2218 10.7839V11.7839H12.2218V10.7839H11.2218ZM11.2218 7.00391V6.00391H10.2218V7.00391H11.2218ZM12.2018 7.00391H13.2018V6.00391H12.2018V7.00391ZM12.2018 10.7839H11.2018V11.7839H12.2018V10.7839ZM15.9912 10.7839H16.9912V9.78391H15.9912V10.7839ZM15.9912 11.7639V12.7639H16.9912V11.7639H15.9912ZM12.2018 11.7639V10.7639H11.2018V11.7639H12.2018ZM12.2018 15.5532V16.5532H13.2018V15.5532H12.2018ZM12.2218 15.5532V11.7639H10.2218V15.5532H12.2218ZM11.2218 10.7639H7.4325V12.7639H11.2218V10.7639ZM8.4325 11.7639V10.7839H6.4325V11.7639H8.4325ZM7.4325 11.7839H11.2218V9.78391H7.4325V11.7839ZM12.2218 10.7839V7.00391H10.2218V10.7839H12.2218ZM11.2218 8.00391H12.2018V6.00391H11.2218V8.00391ZM11.2018 7.00391V10.7839H13.2018V7.00391H11.2018ZM12.2018 11.7839H15.9912V9.78391H12.2018V11.7839ZM14.9912 10.7839V11.7639H16.9912V10.7839H14.9912ZM15.9912 10.7639H12.2018V12.7639H15.9912V10.7639ZM11.2018 11.7639V15.5532H13.2018V11.7639H11.2018ZM12.2018 14.5532H11.2218V16.5532H12.2018V14.5532Z" fill="#00D8A0" mask="url(#path-3-inside-1_5680_35723)"/>
</svg>
