<svg width="24" height="24" viewBox="0 0 24 24" fill="none" xmlns="http://www.w3.org/2000/svg">
<circle cx="12.2651" cy="11.8672" r="9.5" fill="#D40000" stroke="#88FF10" stroke-width="4"/>
<path d="M7.71946 7.71967C8.01235 7.42678 8.48722 7.42678 8.78012 7.71967L11.9621 10.9017L15.1441 7.71967C15.437 7.42678 15.9118 7.42678 16.2047 7.71967C16.4976 8.01256 16.4976 8.48744 16.2047 8.78033L13.0228 11.9623L16.2047 15.1443C16.4976 15.4372 16.4976 15.9121 16.2047 16.205C15.9118 16.4978 15.437 16.4978 15.1441 16.205L11.9621 13.023L8.78012 16.205C8.48722 16.4978 8.01235 16.4978 7.71946 16.205C7.42656 15.9121 7.42656 15.4372 7.71946 15.1443L10.9014 11.9623L7.71946 8.78033C7.42656 8.48744 7.42656 8.01256 7.71946 7.71967Z" fill="white"/>
</svg>
