<svg width="360" height="433" viewBox="0 0 360 433" fill="none" xmlns="http://www.w3.org/2000/svg">
<path d="M-77.0582 -66.8679L-81.7641 -58.6326C-85.2938 -49.2208 -95.8814 -38.6326 -104.117 -33.9267C-112.352 -29.2208 -118.234 -33.9267 -132.352 -30.3973C-146.47 -26.8679 -151.176 -23.3385 -155.881 -13.9267C-160.587 -4.51494 -160.587 -4.51492 -153.528 16.6615C-146.47 37.838 -149.999 44.8968 -151.176 49.6027C-152.352 54.3086 -159.411 63.7204 -162.94 68.4262C-166.47 73.1321 -171.176 79.0145 -175.881 87.2498C-180.587 95.4851 -178.234 102.544 -172.352 106.073C-167.646 108.897 -160.195 115.877 -157.058 119.014C-144.117 131.956 -148.823 136.662 -149.999 142.544C-149.999 148.426 -159.411 160.191 -160.587 167.25C-161.764 174.309 -165.293 183.72 -165.293 189.603C-165.293 195.485 -162.94 203.72 -159.411 208.426C-155.881 213.132 -151.176 227.25 -148.823 233.132C-146.47 239.014 -141.764 251.956 -140.587 259.014C-139.411 266.073 -140.587 273.132 -142.94 276.662C-145.293 280.191 -153.528 286.073 -160.587 290.779C-167.646 295.485 -171.176 299.014 -173.528 303.72C-175.881 308.426 -180.588 314.309 -182.941 320.191C-185.293 326.073 -180.588 327.25 -175.882 328.426C-171.176 329.603 -165.293 331.956 -157.058 331.956C-148.823 331.956 -151.176 331.956 -147.646 326.073C-144.117 320.191 -138.235 317.838 -135.882 313.132C-133.529 308.426 -128.823 303.72 -125.293 303.72C-121.764 303.72 -119.411 304.897 -109.999 304.897C-100.588 304.897 -102.941 302.544 -92.3523 299.014C-81.7641 295.485 -81.7641 296.662 -73.5288 297.838C-65.2935 299.014 -62.9406 301.367 -54.7053 302.544C-46.47 303.72 -42.9405 297.838 -34.7052 297.838C-26.47 297.838 -19.4111 303.72 -15.8817 309.603C-12.3523 315.485 -12.3523 321.367 -11.1758 324.897C-9.99937 328.426 -8.82291 335.485 0.588852 335.485C10.0006 335.485 6.47121 335.485 13.53 334.309C20.5889 333.132 28.8242 324.897 35.883 323.72C42.9418 322.544 44.1183 322.544 52.3536 322.544C60.5889 322.544 66.4712 315.485 71.7653 310.779C77.0594 306.073 84.1183 307.25 87.6477 310.779C91.1771 314.309 90.0006 315.485 90.0006 320.191C90.0006 324.897 91.1771 329.603 94.7065 333.132C98.2359 336.662 100.589 335.485 104.118 340.191C107.648 344.897 114.707 346.073 119.412 343.72C124.118 341.367 121.765 341.367 130.001 333.132C138.236 324.897 142.942 327.25 155.883 329.603C168.824 331.956 171.177 323.72 173.53 317.838C175.883 311.956 173.53 304.897 174.707 301.367C175.883 297.838 178.236 293.132 181.765 289.603C185.295 286.073 191.177 276.662 199.412 276.662C207.648 276.662 213.53 280.191 220.589 282.544C227.648 284.897 233.53 287.25 241.765 286.073C250.001 284.897 253.53 284.897 259.412 287.25C265.295 289.603 270.001 293.132 275.883 297.838C281.765 302.544 280.589 306.073 280.589 309.603C280.589 313.132 279.412 315.485 270.001 327.25C260.589 339.015 262.942 346.073 262.942 349.603V381.367C262.942 389.603 264.118 423.72 264.118 431.956C264.118 440.191 260.589 460.191 259.412 467.25C258.236 474.309 254.707 483.72 253.53 490.779C252.354 497.838 248.824 510.779 250.001 515.485C251.177 520.191 255.883 526.073 261.765 528.426C267.648 530.779 272.354 530.779 281.765 530.779C291.177 530.779 293.53 530.779 295.883 527.25C298.236 523.72 302.942 520.191 307.648 513.132C312.354 506.073 320.589 495.485 325.295 490.779C330.001 486.073 332.353 475.485 334.706 464.897L334.707 464.897C337.06 454.309 335.883 446.073 338.236 439.015C340.589 431.956 348.824 423.72 353.53 417.838C358.236 411.956 368.824 404.897 377.06 401.367C385.295 397.838 390.001 401.367 398.236 402.544C406.471 403.72 414.707 401.367 421.765 396.662C428.824 391.956 434.707 387.25 438.236 383.72C441.765 380.191 446.471 383.72 448.824 386.073C451.177 388.426 454.707 394.309 457.06 401.367C459.412 408.426 466.471 406.073 470.001 402.544C473.53 399.014 478.236 391.956 484.118 387.25C490.001 382.544 491.177 381.367 498.236 375.485C505.295 369.603 514.707 359.014 520.589 353.132C526.471 347.25 537.06 330.779 545.295 324.897C553.53 319.015 552.354 311.956 551.177 308.426C550.001 304.897 545.295 300.191 540.589 299.014C535.883 297.838 532.354 296.662 524.118 299.014C515.883 301.367 514.707 295.485 512.354 290.779C510.001 286.073 511.177 282.544 506.471 270.779C501.765 259.014 506.471 243.72 508.824 239.014C511.177 234.309 511.177 221.367 511.177 216.662C511.177 211.956 510.001 203.72 513.53 195.485C517.06 187.25 519.412 180.191 520.589 162.544C521.765 144.897 519.412 135.485 517.06 126.073C514.707 116.662 512.354 101.367 510.001 88.4262C507.648 75.485 508.824 70.7792 510.001 54.3086C511.177 37.838 513.53 39.0145 520.589 31.9557C527.648 24.8968 532.354 20.1909 544.118 11.9557C555.883 3.72037 564.118 -3.33846 570.001 -9.22081C575.883 -15.1032 580.589 -18.6326 585.295 -20.9855C590.001 -23.3385 595.883 -30.3973 599.412 -33.9267C602.942 -37.4561 604.118 -40.9855 608.824 -48.0443C613.53 -55.1032 620.589 -66.8679 621.765 -69.2208C622.942 -71.5737 622.942 -73.9267 622.942 -79.8091C622.942 -85.6914 621.765 -84.5149 619.412 -89.2208C617.059 -93.9267 618.236 -93.9267 615.883 -98.6326C613.53 -103.338 614.707 -105.691 611.177 -109.221C607.648 -112.75 607.648 -110.397 601.765 -110.397C595.883 -110.397 595.883 -108.044 591.177 -106.868C586.471 -105.691 581.765 -103.338 580.589 -103.338C579.412 -103.338 571.177 -99.809 565.295 -98.6326C559.412 -97.4561 558.236 -97.4561 551.177 -96.2796C544.118 -95.1032 547.648 -93.9267 541.765 -93.9267C535.883 -93.9267 537.06 -96.2796 534.707 -97.4561C532.354 -98.6326 528.824 -100.986 525.295 -100.986C521.765 -100.986 521.765 -98.6326 520.589 -96.2796C519.412 -93.9267 520.589 -92.7502 519.412 -86.8679C518.236 -80.9855 519.412 -80.9855 519.412 -75.1032C519.412 -69.2208 519.412 -69.2208 517.06 -66.8679C514.707 -64.5149 512.354 -63.3385 507.648 -60.9855C502.942 -58.6326 502.942 -60.9855 502.942 -64.5149C502.942 -68.0443 504.118 -69.2208 505.295 -72.7502C506.471 -76.2796 505.295 -77.4561 502.942 -78.6326C500.589 -79.809 495.883 -77.4561 492.354 -76.2796C488.824 -75.1032 487.648 -76.2796 481.765 -76.2796C475.883 -76.2796 470.001 -76.2796 466.471 -77.4561C462.942 -78.6326 457.06 -83.3385 454.707 -84.5149C452.354 -85.6914 447.648 -85.6914 446.471 -83.3385C445.53 -81.4561 443.726 -78.6326 442.942 -77.4561C442.942 -76.2796 442.942 -70.3973 441.765 -65.6914C440.589 -60.9855 441.765 -59.8091 441.765 -55.1032C441.765 -50.3973 442.942 -46.8679 440.589 -40.9855C438.236 -35.1032 438.236 -36.2796 437.06 -33.9267C435.883 -31.5738 432.354 -30.3973 430.001 -30.3973C427.648 -30.3973 427.648 -33.9267 426.471 -36.2796C425.295 -38.6326 425.295 -43.3385 425.295 -46.8679C425.295 -50.3973 424.118 -55.1032 424.118 -59.8091C424.118 -64.5149 422.942 -77.4561 422.942 -79.8091V-89.2208C422.942 -91.5738 422.942 -95.1032 419.412 -97.4561C415.883 -99.8091 415.883 -99.809 411.177 -98.6326C406.471 -97.4561 407.648 -97.4561 404.118 -95.1032C400.589 -92.7502 398.236 -89.2208 394.707 -86.8679C391.177 -84.5149 391.177 -80.9855 388.824 -78.6326C386.471 -76.2796 380.589 -68.0443 378.236 -65.6914C375.883 -63.3385 375.883 -60.9855 373.53 -58.6326C371.177 -56.2796 368.824 -51.5737 366.471 -49.2208C364.118 -46.8679 362.942 -44.5149 359.412 -43.3385C355.883 -42.162 351.177 -44.5149 346.471 -45.6914C341.765 -46.8679 335.883 -48.0443 327.648 -49.2208C319.412 -50.3973 318.236 -55.1032 307.648 -59.8091C297.059 -64.5149 299.412 -64.5149 291.177 -68.0443C282.942 -71.5738 268.824 -83.3385 264.118 -85.6914C259.412 -88.0443 252.354 -96.2796 245.295 -102.162C238.236 -108.044 237.059 -110.397 235.883 -112.75C234.707 -115.103 235.883 -119.809 238.236 -123.338C240.589 -126.868 240.589 -129.221 241.765 -132.75C242.942 -136.28 242.942 -137.456 241.765 -142.162L241.765 -142.163C240.589 -146.868 240.589 -146.868 239.412 -150.397C238.236 -153.927 237.059 -155.103 233.53 -158.633C230.001 -162.162 228.824 -163.338 224.118 -166.868C219.412 -170.397 218.236 -170.397 213.53 -173.927C208.824 -177.456 204.118 -178.633 200.589 -180.986C197.059 -183.338 192.354 -180.986 184.118 -180.986H167.648C158.236 -180.986 161.765 -180.986 153.53 -179.809C145.295 -178.633 140.589 -177.456 135.883 -176.28C131.177 -175.103 125.295 -173.927 118.236 -172.75C112.589 -171.809 111.177 -173.142 111.177 -173.927L101.765 -179.809H90.0006L78.2359 -173.927L67.6477 -179.809H53.53C50.3928 -180.986 43.4124 -184.044 40.5889 -186.868C37.7653 -189.691 33.1379 -188.044 31.1771 -186.868L18.2359 -195.103H4.11827L-9.99937 -205.691H-22.9406L-32.3523 -200.986L-37.0582 -195.103L-41.7641 -186.868V-162.162V-145.691V-128.044V-112.75V-98.6326L-46.47 -91.5738L-51.1758 -85.6914L-59.4111 -83.3385L-66.47 -79.8091L-73.5288 -72.7502L-77.0582 -66.8679Z" stroke="#00D8A0" stroke-width="6"/>
<circle cx="167.118" cy="132.954" r="9.235" fill="#D50000" stroke="#84BEF3" stroke-width="4"/>
</svg>
