<svg width="10" height="11" viewBox="0 0 10 11" fill="none" xmlns="http://www.w3.org/2000/svg">
<path d="M7.63024 1.2196L4.99976 3.85008L2.36928 1.2196C1.82648 0.676801 0.949651 0.676801 0.406854 1.2196C-0.135944 1.7624 -0.135944 2.63922 0.406854 3.18202L3.03733 5.8125L0.406854 8.44298C-0.135944 8.98578 -0.135944 9.8626 0.406854 10.4054C0.949651 10.9482 1.82648 10.9482 2.36928 10.4054L4.99976 7.77492L7.63024 10.4054C8.17303 10.9482 9.04986 10.9482 9.59266 10.4054C10.1355 9.8626 10.1355 8.98578 9.59266 8.44298L6.96218 5.8125L9.59266 3.18202C10.1355 2.63922 10.1355 1.7624 9.59266 1.2196C9.04986 0.690719 8.15912 0.690719 7.63024 1.2196Z" fill="#FE0101"/>
</svg>
