<?xml version="1.0" encoding="utf-8"?>
<!-- Generator: Adobe Illustrator 21.0.0, SVG Export Plug-In . SVG Version: 6.00 Build 0)  -->
<svg version="1.1" id="Layer_1" xmlns="http://www.w3.org/2000/svg" xmlns:xlink="http://www.w3.org/1999/xlink" x="0px" y="0px"
	 viewBox="0 0 88.4 60" style="enable-background:new 0 0 88.4 60;" xml:space="preserve">
<style type="text/css">
	.st0{fill:#EC1C22;}
	.st1{fill:#0000EE;}
</style>
<g>
	<g>
		<g>
			<path class="st0" d="M50.7,1.2L50,3.9c-1.7,6.1-2.7,11.1-3.2,14.8c-0.1,0.8-0.4,1.2-1,1.2c-0.3,0-0.5-0.1-0.6-0.4
				c-0.1-0.3-0.2-1-0.2-2.2c-0.3-5.6-1.8-9.6-4.4-11.9c-2.6-2.3-5.4-3.5-8.5-3.5c-3.8,0-7.3,1.4-10.6,4.3c-3.3,2.8-6.1,7.2-8.4,13.1
				c-2.4,5.9-3.5,12.2-3.5,19c0,5.8,1.3,10.4,3.9,13.8c2.6,3.3,6,5,10.1,5c3.3,0,6.8-1.1,10.3-3.2c3.5-2.1,6.4-5,8.7-8.6
				c0.5-0.8,1-1.2,1.4-1.2c0.5,0,0.8,0.3,0.8,0.8c0,0.7-1,2.4-3.1,5c-2.1,2.6-5.2,4.9-9.3,7.1c-4.1,2.2-8.5,3.2-13.1,3.2
				c-6.1,0-10.8-2.2-14.2-6.5C1.7,49.1,0,43.9,0,37.9c0-6.2,1.5-12.4,4.6-18.5c3-6.2,7.3-10.9,12.6-14.3c5.4-3.4,10.4-5,15-5
				c2.6,0,5.4,0.7,8.6,2.2c2,0.9,3.4,1.4,4.1,1.4c1.2,0,2.5-0.8,3.9-2.4c0.4-0.5,0.9-0.8,1.2-0.8C50.5,0.4,50.7,0.7,50.7,1.2z"/>
		</g>
		<g>
			<g>
				<path class="st1" d="M35.5,21.6c-0.6,1.7-1.4,4.2-2.4,7.8c-1,3.5-1.4,5.5-1.4,6c0,0.3,0.2,0.5,0.6,0.7c0.4,0.2,1.1,0.3,2.3,0.4
					c0.2,0,0.3,0.1,0.3,0.2c0,0.2-0.2,0.3-0.6,0.3l-2.8-0.1l-4.5,0c-0.3,0-0.5-0.1-0.5-0.2c0-0.2,0.2-0.3,0.7-0.3
					c0.8,0,1.4-0.1,1.7-0.4c0.3-0.3,0.6-0.8,0.8-1.6l1.1-4.2l1.2-4.5l1-4c-0.5-0.1-1-0.1-1.5-0.1c-1.1,0-2.2,0.3-3.1,0.9
					c-0.9,0.6-1.7,1.4-2.5,2.3c-0.2,0.2-0.3,0.3-0.4,0.3c-0.1,0-0.2-0.1-0.2-0.2c0-0.1,0.2-0.7,0.6-1.5c0.4-0.9,0.8-1.7,1.2-2.4
					l7.6,0.1l5.9-0.1c0.1,0,0.4,0,0.8,0l0.2,2.6c0.1,0.6,0.1,1.1,0.1,1.6c0,0.2-0.1,0.3-0.2,0.3c-0.1,0-0.1-0.1-0.2-0.2
					c-0.5-2.5-2-3.7-4.4-3.7C36.3,21.5,35.9,21.6,35.5,21.6z"/>
				<path class="st1" d="M45.4,29.8c0.7-1.2,1.3-2,2-2.6c0.6-0.6,1.2-0.9,1.7-0.9c0.4,0,0.7,0.1,0.9,0.3c0.2,0.2,0.4,0.5,0.4,0.8
					c0,0.3-0.1,0.6-0.3,0.8c-0.2,0.3-0.4,0.4-0.7,0.4c-0.5,0-0.9-0.2-1-0.7c-0.1-0.3-0.2-0.5-0.3-0.5c-0.3,0-0.7,0.4-1.3,1.2
					c-0.6,0.8-1.2,1.8-1.8,3l-1.7,5.3h-0.7l-0.7,0l-0.2,0c0-0.2,0.3-0.9,0.7-2.3c1.2-4.5,1.8-6.9,1.8-7.3c0-0.2-0.1-0.2-0.2-0.2
					c-0.2,0-0.5,0.2-0.9,0.6c-0.4,0.4-0.8,0.9-1.1,1.3c-0.3,0.4-0.4,0.6-0.6,0.6c-0.1,0-0.2-0.1-0.2-0.2c0-0.2,0.4-0.8,1.3-1.7
					c0.9-1,1.6-1.5,2.2-1.5c0.3,0,0.6,0.1,0.8,0.3c0.2,0.2,0.3,0.4,0.3,0.6c0,0.3,0,0.7-0.1,1.2C45.5,28.7,45.4,29.2,45.4,29.8z"/>
				<path class="st1" d="M52.1,32.6c-0.3,1.1-0.4,2-0.4,2.6c0,0.4,0.1,0.7,0.3,1c0.2,0.3,0.5,0.4,0.8,0.4c0.5,0,1-0.2,1.6-0.6
					c0.5-0.4,1-0.9,1.4-1.5c0.2-0.3,0.4-0.4,0.5-0.4c0.2,0,0.2,0.1,0.2,0.2c0,0.4-0.5,1-1.4,1.8c-0.9,0.8-1.8,1.2-2.8,1.2
					c-0.8,0-1.3-0.3-1.8-0.8c-0.4-0.6-0.6-1.2-0.6-1.9c0-1.6,0.7-3.3,2.1-5.2c1.4-1.9,2.8-2.9,4.2-2.9c0.5,0,0.9,0.2,1.2,0.5
					c0.3,0.3,0.5,0.7,0.5,1.1c0,0.8-0.4,1.6-1.3,2.5C55.6,31.3,54.2,32,52.1,32.6z M52.3,32c1.2-0.5,2.3-1.2,3.1-2.1
					c0.8-0.8,1.2-1.6,1.2-2.3c0-0.2-0.1-0.3-0.2-0.5c-0.1-0.2-0.3-0.2-0.5-0.2c-0.5,0-1.1,0.4-1.8,1.1C53.4,28.7,52.8,30,52.3,32z"
					/>
				<path class="st1" d="M62.4,30.7c0.9-1.4,1.7-2.5,2.4-3.3c0.8-0.7,1.5-1.1,2.1-1.1c0.4,0,0.7,0.1,0.9,0.4c0.2,0.3,0.3,0.6,0.3,1
					c0,0.5-0.1,0.9-0.2,1.4c-0.1,0.5-0.5,1.5-1,3c-0.7,2-1.1,3.2-1.1,3.6c0,0.3,0.1,0.4,0.4,0.4c0.2,0,0.5-0.2,1-0.5
					c0.4-0.4,0.8-0.7,1-1.1c0.2-0.4,0.4-0.6,0.5-0.6s0.2,0.1,0.2,0.2c0,0.3-0.4,0.9-1.3,1.7c-0.8,0.8-1.6,1.2-2.4,1.2
					c-0.8,0-1.1-0.3-1.1-0.9c0-0.7,0.6-2.6,1.8-5.7c0.5-1.2,0.7-2.1,0.7-2.7c0-0.2,0-0.3-0.1-0.4c-0.1-0.1-0.2-0.1-0.3-0.1
					c-0.2,0-0.7,0.3-1.4,0.9c-0.7,0.6-1.4,1.7-2.3,3.3c-0.9,1.6-1.6,3.1-2.1,4.4c-0.3,0.8-0.6,1.2-0.7,1.2c-0.8,0-1.2-0.1-1.2-0.3
					l0-0.1l2.1-6c0.5-1.5,0.8-2.5,0.8-3c0-0.2-0.1-0.4-0.3-0.4c-0.2,0-0.5,0.2-1,0.6c-0.5,0.4-0.8,0.8-1.1,1.1
					c-0.2,0.3-0.4,0.4-0.5,0.4c-0.1,0-0.2-0.1-0.2-0.2c0-0.3,0.4-0.8,1.3-1.7c0.9-0.9,1.7-1.3,2.6-1.3c0.3,0,0.5,0.1,0.6,0.3
					c0.1,0.2,0.2,0.4,0.2,0.6C63,27.5,62.8,28.7,62.4,30.7z"/>
				<path class="st1" d="M82.1,20.4c-0.2,0.8-0.8,2.5-1.7,5.1c-2,5.8-3,9.2-3,10c0,0.1,0,0.3,0.1,0.3c0.1,0.1,0.2,0.1,0.3,0.1
					c0.5,0,1.3-0.6,2.3-1.9c0.1-0.2,0.2-0.3,0.3-0.3c0,0,0.1,0,0.2,0.1c0.1,0.1,0.1,0.1,0.1,0.2c0,0.1-0.2,0.4-0.7,1
					c-0.5,0.6-1,1-1.6,1.5c-0.6,0.4-1.1,0.6-1.5,0.6c-0.3,0-0.5-0.1-0.7-0.4c-0.2-0.3-0.3-0.7-0.3-1.1c0-0.2,0-0.6,0.1-1
					c-1.4,1.7-2.8,2.6-4,2.6c-0.7,0-1.3-0.2-1.6-0.6c-0.4-0.4-0.5-1-0.5-1.8c0-1.8,0.7-3.5,2.2-5.2c1.5-1.7,3-2.6,4.6-2.6
					c0.3,0,0.6,0,0.8,0.1c0.3,0,0.6,0.1,0.9,0.2l1.6-4.6c0.2-0.5,0.3-0.9,0.3-1.2c0-0.2-0.1-0.4-0.4-0.5c-0.3-0.1-0.7-0.2-1.3-0.3
					c-0.2,0-0.3-0.1-0.3-0.2c0-0.1,0.1-0.2,0.2-0.2c0.2,0,0.4,0,0.6,0C79.8,20.3,80.8,20.3,82.1,20.4z M76.4,27.4
					c-1,0-2,0.8-3.1,2.3c-1.1,1.6-1.7,3.1-1.7,4.6c0,0.5,0.1,1,0.3,1.4c0.2,0.4,0.5,0.6,0.8,0.6c0.5,0,1.1-0.4,1.9-1.2
					c0.8-0.8,1.5-1.8,2.1-3.2c0.6-1.3,0.9-2.5,0.9-3.4c0-0.3-0.1-0.6-0.3-0.9C77.1,27.5,76.8,27.4,76.4,27.4z"/>
				<path class="st1" d="M87,33.6c0,1-0.3,1.8-1,2.5c-0.7,0.7-1.5,1.1-2.5,1.1c-0.8,0-1.4-0.2-1.9-0.7c-0.5-0.4-0.7-0.8-0.7-1.2
					c0-0.2,0.1-0.5,0.3-0.7c0.2-0.2,0.4-0.3,0.7-0.3c0.3,0,0.5,0.1,0.6,0.2c0.2,0.2,0.2,0.4,0.2,0.6c0,0.1,0,0.3-0.1,0.5
					c-0.1,0.2-0.1,0.3-0.1,0.4c0,0.2,0.1,0.4,0.3,0.5c0.2,0.1,0.5,0.2,0.8,0.2c0.6,0,1.1-0.2,1.4-0.5c0.3-0.3,0.5-0.8,0.5-1.3
					c0-0.5-0.3-1.2-1-2c-1-1.4-1.6-2.5-1.6-3.4c0-0.8,0.3-1.5,0.9-2.1c0.6-0.7,1.3-1,2.1-1c0.6,0,1.1,0.2,1.6,0.5
					c0.5,0.3,0.7,0.7,0.7,1.1c0,0.3-0.1,0.5-0.3,0.7c-0.2,0.2-0.4,0.3-0.6,0.3c-0.5,0-0.7-0.2-0.7-0.7l0-0.7c0-0.2-0.1-0.3-0.3-0.5
					c-0.2-0.1-0.4-0.2-0.7-0.2c-0.4,0-0.7,0.1-1,0.4c-0.3,0.3-0.5,0.6-0.5,1.1c0,0.5,0.5,1.3,1.4,2.5C86.6,32,87,32.9,87,33.6z"/>
			</g>
		</g>
	</g>
</g>
</svg>
