<svg width="28" height="28" viewBox="0 0 28 28" fill="none" xmlns="http://www.w3.org/2000/svg">
<rect x="0.75" y="0.75" width="26.5" height="26.5" rx="4.5" stroke="#FF3C3C"/>
<path d="M11.1765 11.8821C11.4688 11.8821 11.7059 12.1191 11.7059 12.4115V18.7645C11.7059 19.0569 11.4688 19.2939 11.1765 19.2939C10.8841 19.2939 10.647 19.0569 10.647 18.7645V12.4115C10.647 12.1191 10.8841 11.8821 11.1765 11.8821Z" fill="#FF0000"/>
<path d="M13.8235 11.8821C14.1159 11.8821 14.3529 12.1191 14.3529 12.4115V18.7645C14.3529 19.0569 14.1159 19.2939 13.8235 19.2939C13.5311 19.2939 13.2941 19.0569 13.2941 18.7645V12.4115C13.2941 12.1191 13.5311 11.8821 13.8235 11.8821Z" fill="#FF0000"/>
<path d="M17 12.4115C17 12.1191 16.763 11.8821 16.4706 11.8821C16.1782 11.8821 15.9412 12.1191 15.9412 12.4115V18.7645C15.9412 19.0569 16.1782 19.2939 16.4706 19.2939C16.763 19.2939 17 19.0569 17 18.7645V12.4115Z" fill="#FF0000"/>
<path fill-rule="evenodd" clip-rule="evenodd" d="M20.7059 9.23506C20.7059 9.81984 20.2318 10.2939 19.647 10.2939H19.1176V19.8233C19.1176 20.9928 18.1695 21.9409 17 21.9409H10.647C9.4775 21.9409 8.5294 20.9928 8.5294 19.8233V10.2939H7.99999C7.41521 10.2939 6.94116 9.81984 6.94116 9.23506V8.17624C6.94116 7.59147 7.41521 7.11742 7.99999 7.11742H11.7059C11.7059 6.53265 12.1799 6.05859 12.7647 6.05859H14.8823C15.4671 6.05859 15.9412 6.53265 15.9412 7.11742H19.647C20.2318 7.11742 20.7059 7.59147 20.7059 8.17624V9.23506ZM9.7132 10.2939L9.58822 10.3564V19.8233C9.58822 20.4081 10.0623 20.8821 10.647 20.8821H17C17.5848 20.8821 18.0588 20.4081 18.0588 19.8233V10.3564L17.9338 10.2939H9.7132ZM7.99999 9.23506V8.17624H19.647V9.23506H7.99999Z" fill="#FF0000"/>
</svg>
