<svg width="38" height="38" viewBox="0 0 38 38" fill="none" xmlns="http://www.w3.org/2000/svg">
<rect x="0.28125" y="0.140625" width="37" height="37" rx="18.5" fill="#FF3C3C"/>
<path d="M12.4351 11.1421C11.7978 11.1421 11.2812 11.6587 11.2812 12.296V13.4498C11.2812 14.0871 11.7978 14.6037 12.4351 14.6037H13.012V24.9883C13.012 26.2628 14.0452 27.296 15.3197 27.296H22.2428C23.5173 27.296 24.5505 26.2628 24.5505 24.9883V14.6037H25.1274C25.7647 14.6037 26.2812 14.0871 26.2812 13.4498V12.296C26.2812 11.6587 25.7647 11.1421 25.1274 11.1421H21.0889C21.0889 10.5049 20.5723 9.98828 19.9351 9.98828H17.6274C16.9902 9.98828 16.4736 10.5049 16.4736 11.1421H12.4351ZM15.8966 15.7575C16.2153 15.7575 16.4736 16.0158 16.4736 16.3344V24.4114C16.4736 24.73 16.2153 24.9883 15.8966 24.9883C15.578 24.9883 15.3197 24.73 15.3197 24.4114V16.3344C15.3197 16.0158 15.578 15.7575 15.8966 15.7575ZM18.7812 15.7575C19.0999 15.7575 19.3582 16.0158 19.3582 16.3344V24.4114C19.3582 24.73 19.0999 24.9883 18.7812 24.9883C18.4626 24.9883 18.2043 24.73 18.2043 24.4114V16.3344C18.2043 16.0158 18.4626 15.7575 18.7812 15.7575ZM22.2428 16.3344V24.4114C22.2428 24.73 21.9845 24.9883 21.6659 24.9883C21.3472 24.9883 21.0889 24.73 21.0889 24.4114V16.3344C21.0889 16.0158 21.3472 15.7575 21.6659 15.7575C21.9845 15.7575 22.2428 16.0158 22.2428 16.3344Z" fill="white"/>
</svg>
