<svg width="23" height="23" viewBox="0 0 23 23" fill="none" xmlns="http://www.w3.org/2000/svg">
<path d="M7.54636 3.32296L7.76046 3.32551L7.91005 3.17232L8.76509 2.29666C10.1278 0.901112 12.3722 0.901112 13.7349 2.29666L14.5899 3.17232L14.7395 3.32551L14.9536 3.32296L16.1774 3.30839C18.1278 3.28515 19.7148 4.8722 19.6916 6.82258L19.677 8.04636L19.6745 8.26046L19.8277 8.41005L20.7033 9.26509C22.0989 10.6278 22.0989 12.8722 20.7033 14.2349L19.8277 15.0899L19.6745 15.2395L19.677 15.4536L19.6916 16.6774C19.7148 18.6278 18.1278 20.2148 16.1774 20.1916L14.9536 20.177L14.7395 20.1745L14.5899 20.3277L13.7349 21.2033C12.3722 22.5989 10.1278 22.5989 8.76509 21.2033L7.91005 20.3277L7.76046 20.1745L7.54636 20.177L6.32258 20.1916C4.3722 20.2148 2.78515 18.6278 2.80839 16.6774L2.82296 15.4536L2.82551 15.2395L2.67232 15.0899L1.79666 14.2349C0.401112 12.8722 0.401112 10.6278 1.79666 9.26509L2.67232 8.41005L2.82551 8.26046L2.82296 8.04636L2.80839 6.82258C2.78515 4.8722 4.3722 3.28515 6.32258 3.30839L7.54636 3.32296ZM10.7147 14.6522L14.8397 10.5272C15.3034 10.0634 15.3034 9.31156 14.8397 8.84781C14.3759 8.38406 13.6241 8.38406 13.1603 8.84781L9.875 12.1331L8.65219 10.9103C8.18844 10.4466 7.43656 10.4466 6.97281 10.9103C6.50906 11.3741 6.50906 12.1259 6.97281 12.5897L9.03531 14.6522C9.25801 14.8749 9.56005 15 9.875 15C10.1899 15 10.492 14.8749 10.7147 14.6522Z" fill="#4BA0EF" stroke="#378DDD"/>
</svg>
