<svg width="17" height="17" viewBox="0 0 17 17" fill="none" xmlns="http://www.w3.org/2000/svg">
<path d="M15.47 8.235C15.47 12.2308 12.2308 15.47 8.235 15.47C4.23922 15.47 1 12.2308 1 8.235C1 4.23922 4.23922 1 8.235 1C12.2308 1 15.47 4.23922 15.47 8.235Z" fill="black"/>
<path fill-rule="evenodd" clip-rule="evenodd" d="M16.47 8.235C16.47 12.7831 12.7831 16.47 8.235 16.47C3.68694 16.47 0 12.7831 0 8.235C0 3.68694 3.68694 0 8.235 0C12.7831 0 16.47 3.68694 16.47 8.235ZM8.235 15.47C12.2308 15.47 15.47 12.2308 15.47 8.235C15.47 4.23922 12.2308 1 8.235 1C4.23922 1 1 4.23922 1 8.235C1 12.2308 4.23922 15.47 8.235 15.47Z" fill="white"/>
<path d="M11.9983 5.60061C12.3106 5.28826 12.3106 4.78099 11.9983 4.46864C11.6859 4.15629 11.1786 4.15629 10.8663 4.46864L8.23502 7.10241L5.60125 4.47114C5.2889 4.15879 4.78163 4.15879 4.46928 4.47114C4.15693 4.78349 4.15693 5.29075 4.46928 5.60311L7.10305 8.23437L4.47178 10.8681C4.15943 11.1805 4.15943 11.6878 4.47178 12.0001C4.78413 12.3125 5.2914 12.3125 5.60375 12.0001L8.23502 9.36634L10.8688 11.9976C11.1811 12.31 11.6884 12.31 12.0008 11.9976C12.3131 11.6853 12.3131 11.178 12.0008 10.8656L9.36699 8.23437L11.9983 5.60061Z" fill="white"/>
</svg>
