<svg width="23" height="23" viewBox="0 0 23 23" fill="none" xmlns="http://www.w3.org/2000/svg">
<path d="M18.47 11.235C18.47 15.2308 15.2308 18.47 11.235 18.47C7.23922 18.47 4 15.2308 4 11.235C4 7.23922 7.23922 4 11.235 4C15.2308 4 18.47 7.23922 18.47 11.235Z" fill="#A533FF"/>
<path fill-rule="evenodd" clip-rule="evenodd" d="M19.47 11.235C19.47 15.7831 15.7831 19.47 11.235 19.47C6.68694 19.47 3 15.7831 3 11.235C3 6.68694 6.68694 3 11.235 3C15.7831 3 19.47 6.68694 19.47 11.235ZM11.235 18.47C15.2308 18.47 18.47 15.2308 18.47 11.235C18.47 7.23922 15.2308 4 11.235 4C7.23922 4 4 7.23922 4 11.235C4 15.2308 7.23922 18.47 11.235 18.47Z" fill="white"/>
<rect x="1.5" y="1.5" width="19.47" height="19.47" rx="9.735" stroke="#16A53E" stroke-width="3"/>
</svg>
