<svg width="17" height="17" viewBox="0 0 17 17" fill="none" xmlns="http://www.w3.org/2000/svg">
<path d="M15.47 8.28578C15.47 12.2816 12.2308 15.5208 8.235 15.5208C4.23922 15.5208 1 12.2816 1 8.28578C1 4.29 4.23922 1.05078 8.235 1.05078C12.2308 1.05078 15.47 4.29 15.47 8.28578Z" fill="#D50000"/>
<path fill-rule="evenodd" clip-rule="evenodd" d="M16.47 8.28578C16.47 12.8338 12.7831 16.5208 8.235 16.5208C3.68694 16.5208 0 12.8338 0 8.28578C0 3.73772 3.68694 0.0507812 8.235 0.0507812C12.7831 0.0507812 16.47 3.73772 16.47 8.28578ZM8.235 15.5208C12.2308 15.5208 15.47 12.2816 15.47 8.28578C15.47 4.29 12.2308 1.05078 8.235 1.05078C4.23922 1.05078 1 4.29 1 8.28578C1 12.2816 4.23922 15.5208 8.235 15.5208Z" fill="white"/>
<path fill-rule="evenodd" clip-rule="evenodd" d="M12.2404 5.41697C12.5636 5.73618 12.5669 6.257 12.2477 6.58025L7.73493 11.1501C7.41639 11.4727 6.89689 11.4768 6.57338 11.1592L4.23131 8.85993C3.90712 8.54167 3.90231 8.02086 4.22057 7.69667C4.53883 7.37249 5.05964 7.36768 5.38382 7.68594L7.14062 9.4106L11.0771 5.42429C11.3963 5.10103 11.9171 5.09776 12.2404 5.41697Z" fill="white"/>
</svg>
