<svg width="331" height="196" viewBox="0 0 331 196" fill="none" xmlns="http://www.w3.org/2000/svg">
<rect x="1.5" y="1.5" width="328" height="193" rx="9" stroke="#8698A1" stroke-width="2"/>
<line x1="30.5" y1="167.486" x2="125.5" y2="167.486" stroke="#9BA9B3" stroke-width="2" stroke-linecap="round"/>
<line x1="207.5" y1="142" x2="302.5" y2="142" stroke="#9BA9B3" stroke-width="2" stroke-linecap="round"/>
<line x1="1" y1="-1" x2="96.0014" y2="-1" transform="matrix(0.999987 0.00512397 -0.00174638 0.999998 206.5 168)" stroke="#9BA9B3" stroke-width="2" stroke-linecap="round"/>
<line x1="30" y1="33" x2="304" y2="33" stroke="#9BA9B3" stroke-width="2" stroke-linecap="round"/>
<line x1="30" y1="58" x2="304" y2="58" stroke="#9BA9B3" stroke-width="2" stroke-linecap="round"/>
<path d="M54 100.5C53.3492 100.572 53.1253 101.731 52.8889 102.222C51.1134 105.91 49.8843 109.828 48.0833 113.5C45.6645 118.432 43.5558 123.457 41.3056 128.472C40.4299 130.424 40.0057 132.492 38.75 134.25" stroke="#9BA9B3" stroke-width="2" stroke-linecap="round"/>
<path d="M53.25 101.75C54.3467 104.08 53.6593 107.708 53.8056 110.194C53.9716 113.017 53.9629 116.926 55.25 119.5" stroke="#9BA9B3" stroke-width="2" stroke-linecap="round"/>
<path d="M65.4998 99.5C64.402 100.354 63.8718 102.902 63.2637 104.139C61.8438 107.026 61.2605 110.226 59.8887 113.111C59.0976 114.775 58.3848 116.48 57.6109 118.139C56.9068 119.648 57.0481 118.509 57.2498 117.5" stroke="#9BA9B3" stroke-width="2" stroke-linecap="round"/>
<path d="M66.2501 100.001C66.2501 106.025 65.8761 112.007 65.5278 118.015C65.3881 120.424 65.2501 122.836 65.2501 125.251C65.2501 126.743 65.4416 128.412 65.1112 129.876C65.0332 130.221 64.2055 134.358 65.0278 134.445C66.0308 134.552 67.1635 133.7 67.9723 133.251C69.7216 132.279 71.2789 131.266 72.6251 129.765C75.1672 126.93 77.5649 123.652 78.9584 120.084C80.3686 116.473 80.2627 111.953 80.3889 108.14C80.6253 100.999 79.8754 92.9223 74.5834 87.5286C70.6987 83.5691 65.1579 82.4395 60.0278 84.2786C56.3619 85.5928 53.2595 87.8141 50.3612 90.3758C44.5533 95.509 39.7479 101.618 36.4167 108.64C34.9084 111.819 32.5998 116.708 33.7223 120.39C35.6607 126.747 46.6549 125.823 51.4028 125.876C64.8266 126.025 78.2725 125.308 91.6806 124.765C101.629 124.362 111.676 123.597 121.639 123.862C124.156 123.929 126.567 124.111 128.861 125.181C129.181 125.331 129.431 125.604 129.195 126.001C128.612 126.981 125.988 127.455 125.111 127.779C115.982 131.146 106.727 134.134 97.5001 137.223C76.2057 144.352 55.0523 151.9 33.7501 159.001" stroke="#9BA9B3" stroke-width="2" stroke-linecap="round"/>
</svg>
