<svg width="48" height="48" viewBox="0 0 48 48" fill="none" xmlns="http://www.w3.org/2000/svg">
<g clip-path="url(#clip0_1476_20260)">
<path fill-rule="evenodd" clip-rule="evenodd" d="M45 3H3V45H45V3ZM0 0V48H48V0H0Z" fill="white"/>
<path d="M9.7 30.3001L15.28 24.7201C15.68 24.3201 15.68 23.7001 15.28 23.3001L9.7 17.7201C9.08 17.0801 8 17.5201 8 18.4201V22.0001H4C2.9 22.0001 2 22.9001 2 24.0001C2 25.1001 2.9 26.0001 4 26.0001H8V29.5801C8 30.4801 9.08 30.9201 9.7 30.3001Z" fill="white"/>
<path d="M37.4012 11.705C37.2856 11.705 37.17 11.675 37.0689 11.615C34.295 10.13 31.8967 9.5 29.0217 9.5C26.1611 9.5 23.445 10.205 20.9745 11.615C20.6277 11.81 20.1943 11.675 19.992 11.315C19.8042 10.955 19.9343 10.49 20.281 10.295C22.9682 8.78 25.9155 8 29.0217 8C32.099 8 34.7862 8.705 37.7335 10.28C38.0946 10.475 38.2247 10.925 38.0368 11.285C37.9068 11.555 37.6612 11.705 37.4012 11.705ZM16.7269 19.58C16.5825 19.58 16.438 19.535 16.308 19.445C15.9757 19.205 15.9034 18.74 16.1346 18.395C17.5649 16.295 19.3853 14.645 21.5524 13.49C26.0888 11.06 31.8967 11.045 36.4476 13.475C38.6147 14.63 40.4351 16.265 41.8654 18.35C42.0966 18.68 42.0243 19.16 41.692 19.4C41.3598 19.64 40.9119 19.565 40.6807 19.22C39.3805 17.33 37.7335 15.845 35.7831 14.81C31.6367 12.605 26.3345 12.605 22.2025 14.825C20.2377 15.875 18.5906 17.375 17.2904 19.265C17.1748 19.475 16.9581 19.58 16.7269 19.58ZM25.7566 37.685C25.5687 37.685 25.3809 37.61 25.2509 37.46C23.994 36.155 23.3149 35.315 22.347 33.5C21.3501 31.655 20.83 29.405 20.83 26.99C20.83 22.535 24.4996 18.905 29.0072 18.905C33.5148 18.905 37.1845 22.535 37.1845 26.99C37.1845 27.41 36.8666 27.74 36.4621 27.74C36.0576 27.74 35.7397 27.41 35.7397 26.99C35.7397 23.36 32.7202 20.405 29.0072 20.405C25.2942 20.405 22.2747 23.36 22.2747 26.99C22.2747 29.15 22.7371 31.145 23.6183 32.765C24.543 34.49 25.1787 35.225 26.2911 36.395C26.5656 36.695 26.5656 37.16 26.2911 37.46C26.1322 37.61 25.9444 37.685 25.7566 37.685ZM36.1153 34.91C34.3961 34.91 32.8791 34.46 31.6367 33.575C29.484 32.06 28.1982 29.6 28.1982 26.99C28.1982 26.57 28.516 26.24 28.9205 26.24C29.3251 26.24 29.6429 26.57 29.6429 26.99C29.6429 29.105 30.6831 31.1 32.4457 32.33C33.4715 33.05 34.6706 33.395 36.1153 33.395C36.4621 33.395 37.04 33.35 37.6179 33.245C38.008 33.17 38.3836 33.44 38.4558 33.86C38.5281 34.265 38.268 34.655 37.8635 34.73C37.04 34.895 36.3176 34.91 36.1153 34.91ZM33.2114 38C33.1536 38 33.0814 37.985 33.0236 37.97C30.7265 37.31 29.2239 36.425 27.6492 34.82C25.6265 32.735 24.5141 29.96 24.5141 26.99C24.5141 24.56 26.5078 22.58 28.9639 22.58C31.4199 22.58 33.4137 24.56 33.4137 26.99C33.4137 28.595 34.7573 29.9 36.4187 29.9C38.0802 29.9 39.4238 28.595 39.4238 26.99C39.4238 21.335 34.7284 16.745 28.9494 16.745C24.8464 16.745 21.09 19.115 19.3997 22.79C18.8363 24.005 18.5473 25.43 18.5473 26.99C18.5473 28.16 18.6484 30.005 19.5153 32.405C19.6598 32.795 19.4719 33.23 19.0963 33.365C18.7207 33.515 18.3017 33.305 18.1717 32.93C17.4638 30.965 17.117 29.015 17.117 26.99C17.117 25.19 17.4493 23.555 18.0994 22.13C20.0209 17.945 24.2829 15.23 28.9494 15.23C35.523 15.23 40.8685 20.495 40.8685 26.975C40.8685 29.405 38.8748 31.385 36.4187 31.385C33.9627 31.385 31.9689 29.405 31.9689 26.975C31.9689 25.37 30.6253 24.065 28.9639 24.065C27.3024 24.065 25.9588 25.37 25.9588 26.975C25.9588 29.54 26.9124 31.94 28.6605 33.74C30.033 35.15 31.3477 35.93 33.3848 36.515C33.7749 36.62 33.9916 37.04 33.8904 37.43C33.8182 37.775 33.5148 38 33.2114 38Z" fill="white" stroke="white" stroke-width="0.5"/>
</g>
<defs>
<clipPath id="clip0_1476_20260">
<rect width="48" height="48" fill="white"/>
</clipPath>
</defs>
</svg>
