<svg width="48" height="48" viewBox="0 0 48 48" fill="none" xmlns="http://www.w3.org/2000/svg">
<g clip-path="url(#clip0_1476_20246)">
<path fill-rule="evenodd" clip-rule="evenodd" d="M45 3H3V45H45V3ZM0 0V48H48V0H0Z" fill="white"/>
<path d="M18.6 23.55C17.358 23.55 16.35 24.558 16.35 25.8C16.35 27.042 17.358 28.05 18.6 28.05C19.842 28.05 20.85 27.042 20.85 25.8C20.85 24.558 19.842 23.55 18.6 23.55ZM29.4 23.55C28.158 23.55 27.15 24.558 27.15 25.8C27.15 27.042 28.158 28.05 29.4 28.05C30.642 28.05 31.65 27.042 31.65 25.8C31.65 24.558 30.642 23.55 29.4 23.55ZM24 6C14.064 6 6 14.064 6 24C6 33.936 14.064 42 24 42C33.936 42 42 33.936 42 24C42 14.064 33.936 6 24 6ZM24 38.4C16.062 38.4 9.6 31.938 9.6 24C9.6 23.478 9.636 22.956 9.69 22.452C13.938 20.562 17.304 17.088 19.068 12.786C22.326 17.394 27.69 20.4 33.756 20.4C35.16 20.4 36.51 20.238 37.806 19.932C38.184 21.21 38.4 22.578 38.4 24C38.4 31.938 31.938 38.4 24 38.4Z" fill="white"/>
</g>
<defs>
<clipPath id="clip0_1476_20246">
<rect width="48" height="48" fill="white"/>
</clipPath>
</defs>
</svg>
