<svg width="25" height="24" viewBox="0 0 25 24" fill="none" xmlns="http://www.w3.org/2000/svg">
<path d="M10.1392 13.125L11.1258 12.3575L11.1257 12.3573L11.1252 12.3567L11.1231 12.354L11.1147 12.3432L11.0819 12.301L10.9549 12.1378L10.4821 11.53L8.87015 9.45777C7.63174 7.86591 6.09301 5.88829 4.81763 4.25H19.9607C18.6854 5.88829 17.1466 7.86591 15.9082 9.45777L14.2962 11.53L13.8234 12.1378L13.6965 12.301L13.6636 12.3432L13.6553 12.354L13.6532 12.3567L13.6527 12.3573L13.6525 12.3575L14.6392 13.125L13.6525 12.3576L13.3892 12.6961V13.125V18.75C13.3892 19.2971 12.9363 19.75 12.3892 19.75C11.842 19.75 11.3892 19.2971 11.3892 18.75V13.125V12.6961L11.1259 12.3576L10.1392 13.125Z" stroke="white" stroke-width="2.5"/>
</svg>
