<svg width="48" height="48" viewBox="0 0 48 48" fill="none" xmlns="http://www.w3.org/2000/svg">
<g clip-path="url(#clip0_1476_20242)">
<path fill-rule="evenodd" clip-rule="evenodd" d="M45 3H3V45H45V3ZM0 0V48H48V0H0Z" fill="white"/>
<path d="M34.3399 10.392C34.1976 10.392 34.0554 10.3564 33.9309 10.2853C30.5169 8.52496 27.5652 7.77814 24.0267 7.77814C20.506 7.77814 17.163 8.61387 14.1224 10.2853C13.6957 10.5165 13.1622 10.3564 12.9133 9.92969C12.6821 9.50294 12.8422 8.95172 13.2689 8.72056C16.5763 6.92463 20.2037 6 24.0267 6C27.8141 6 31.1215 6.83573 34.7489 8.70278C35.1934 8.93393 35.3534 9.46738 35.1223 9.89413C34.9622 10.2142 34.66 10.392 34.3399 10.392V10.392ZM8.89469 19.7273C8.71687 19.7273 8.53906 19.6739 8.37903 19.5672C7.97005 19.2827 7.88115 18.7315 8.16565 18.3225C9.92601 15.8331 12.1665 13.8772 14.8337 12.508C20.417 9.62741 27.5652 9.60963 33.1663 12.4902C35.8335 13.8594 38.074 15.7976 39.8344 18.2692C40.1189 18.6604 40.0299 19.2294 39.621 19.5139C39.212 19.7984 38.6608 19.7095 38.3763 19.3005C36.7759 17.06 34.7489 15.2997 32.3484 14.0728C27.2451 11.4589 20.7193 11.4589 15.6338 14.0905C13.2156 15.3352 11.1885 17.1134 9.58816 19.3538C9.44591 19.6028 9.17919 19.7273 8.89469 19.7273V19.7273ZM20.0081 41.1894C19.7769 41.1894 19.5458 41.1005 19.3857 40.9227C17.8387 39.3757 17.003 38.38 15.8117 36.2284C14.5847 34.0413 13.9446 31.3741 13.9446 28.5113C13.9446 23.2302 18.4611 18.9271 24.0089 18.9271C29.5567 18.9271 34.0732 23.2302 34.0732 28.5113C34.0732 29.0092 33.682 29.4003 33.1841 29.4003C32.6862 29.4003 32.295 29.0092 32.295 28.5113C32.295 24.2082 28.5787 20.7052 24.0089 20.7052C19.4391 20.7052 15.7228 24.2082 15.7228 28.5113C15.7228 31.0718 16.2918 33.4367 17.3764 35.3571C18.5144 37.402 19.2968 38.2733 20.666 39.6602C21.0038 40.0159 21.0038 40.5671 20.666 40.9227C20.4704 41.1005 20.2392 41.1894 20.0081 41.1894ZM32.7573 37.8999C30.6414 37.8999 28.7743 37.3664 27.2451 36.3173C24.5957 34.5214 23.0131 31.6052 23.0131 28.5113C23.0131 28.0134 23.4043 27.6222 23.9022 27.6222C24.4001 27.6222 24.7913 28.0134 24.7913 28.5113C24.7913 31.0185 26.0715 33.3834 28.2409 34.8415C29.5033 35.695 30.9792 36.1039 32.7573 36.1039C33.1841 36.1039 33.8954 36.0506 34.6066 35.9261C35.0867 35.8372 35.549 36.1573 35.6379 36.6552C35.7268 37.1353 35.4068 37.5976 34.9089 37.6865C33.8954 37.8821 33.0063 37.8999 32.7573 37.8999V37.8999ZM29.1833 41.5628C29.1122 41.5628 29.0232 41.5451 28.9521 41.5273C26.1249 40.7449 24.2756 39.6958 22.3374 37.7932C19.848 35.3216 18.4789 32.032 18.4789 28.5113C18.4789 25.6307 20.9327 23.2835 23.9555 23.2835C26.9784 23.2835 29.4322 25.6307 29.4322 28.5113C29.4322 30.4139 31.0859 31.9609 33.1308 31.9609C35.1756 31.9609 36.8293 30.4139 36.8293 28.5113C36.8293 21.8077 31.0503 16.3666 23.9378 16.3666C18.8878 16.3666 14.2647 19.176 12.1842 23.5325C11.4908 24.9728 11.1351 26.662 11.1351 28.5113C11.1351 29.8982 11.2596 32.0853 12.3265 34.9304C12.5043 35.3927 12.2732 35.9083 11.8108 36.0684C11.3485 36.2462 10.8329 35.9973 10.6728 35.5527C9.80154 33.2234 9.37479 30.9118 9.37479 28.5113C9.37479 26.3775 9.78376 24.4393 10.5839 22.7501C12.9489 17.7891 18.1944 14.5706 23.9378 14.5706C32.0283 14.5706 38.6074 20.8119 38.6074 28.4935C38.6074 31.3741 36.1536 33.7212 33.1308 33.7212C30.1079 33.7212 27.6541 31.3741 27.6541 28.4935C27.6541 26.5909 26.0004 25.0439 23.9555 25.0439C21.9107 25.0439 20.257 26.5909 20.257 28.4935C20.257 31.5341 21.4306 34.3791 23.5821 36.5129C25.2714 38.1844 26.8895 39.109 29.3967 39.8025C29.8768 39.9269 30.1435 40.4248 30.019 40.8871C29.9301 41.2961 29.5567 41.5628 29.1833 41.5628V41.5628Z" fill="white" stroke="white" stroke-width="0.5"/>
</g>
<defs>
<clipPath id="clip0_1476_20242">
<rect width="48" height="48" fill="white"/>
</clipPath>
</defs>
</svg>
