<svg width="10" height="13" viewBox="0 0 10 13" fill="none" xmlns="http://www.w3.org/2000/svg">
<path d="M9.82917 0.80493C9.93166 0.873671 9.99316 0.988968 9.99316 1.11238V6.66526C9.99316 6.81664 9.901 6.95276 9.76046 7.00898L9.62297 6.66526C9.76046 7.00898 9.76046 7.00898 9.76046 7.00898L9.75855 7.00974L9.75398 7.01156L9.73707 7.01822C9.72242 7.02396 9.70114 7.03225 9.67384 7.04272C9.61927 7.06365 9.5406 7.09333 9.44292 7.12885C9.24778 7.19981 8.97566 7.29447 8.66754 7.38928C8.06386 7.57503 7.27705 7.77584 6.66143 7.77584C6.03453 7.77584 5.51506 7.56798 5.0638 7.38742L5.04318 7.37917C4.57374 7.1914 4.174 7.03546 3.69989 7.03546C3.18151 7.03546 2.48684 7.2052 1.89524 7.38898C1.60513 7.47911 1.3498 7.56937 1.1671 7.63708C1.14664 7.64467 1.12711 7.65196 1.10855 7.65894V12.2181C1.10855 12.4226 0.942808 12.5883 0.738356 12.5883C0.533905 12.5883 0.368164 12.4226 0.368164 12.2181V1.11238C0.368164 0.907928 0.533905 0.742188 0.738356 0.742188C0.942808 0.742188 1.10855 0.907928 1.10855 1.11238V1.32135C1.27596 1.26278 1.47587 1.1958 1.69379 1.12875C2.29747 0.943002 3.08428 0.742188 3.69989 0.742188C4.32238 0.742188 4.82817 0.94722 5.27023 1.12642C5.28099 1.13078 5.29171 1.13513 5.3024 1.13946C5.76249 1.32581 6.16376 1.48257 6.66143 1.48257C7.17982 1.48257 7.87449 1.31283 8.46608 1.12905C8.7562 1.03892 9.01153 0.948654 9.19423 0.880945C9.28546 0.847131 9.3583 0.819049 9.40798 0.799563C9.43281 0.789823 9.45184 0.78224 9.46446 0.777171L9.4785 0.771502L9.48178 0.770169L9.48248 0.769881" fill="#FF8383"/>
</svg>
