<svg width="35" height="34" viewBox="0 0 35 34" fill="none" xmlns="http://www.w3.org/2000/svg">
<path d="M10.6802 19.4885C10.7246 19.2309 10.7779 18.8844 10.9556 18.7689C11.4975 18.4224 12.0128 17.8538 12.7947 18.3158C13.1411 18.5201 13.5143 18.4046 13.7453 18.0493C14.1095 17.4718 14.5004 16.9121 14.8025 16.2991C15.1845 15.5261 15.1223 15.4195 14.4738 14.8243C14.305 14.6732 14.1006 14.4778 14.074 14.2735C13.9851 13.6249 13.9318 12.9497 14.6515 12.5677C14.687 12.5499 14.7137 12.5055 14.7492 12.4877C15.0513 12.2567 15.1134 11.9635 14.9446 11.6348C14.6604 11.0662 14.3938 10.471 14.0385 9.93792C13.4699 9.08503 13.4077 9.09391 12.4126 9.40486C12.2438 9.45817 12.0128 9.52924 11.8885 9.45817C11.3554 9.14722 10.6713 8.95177 10.6713 8.1433C10.6713 8.06334 10.6447 7.98338 10.618 7.90342C10.5292 7.59247 10.3604 7.41478 10.0228 7.35259C9.14321 7.18379 8.27255 7.17491 7.40189 7.38813C7.24197 7.42367 7.08206 7.59247 6.99321 7.7435C6.89549 7.92119 6.86883 8.1433 6.82441 8.34763C6.75334 8.70301 6.55788 8.91623 6.24693 9.14722C5.72276 9.52924 5.24301 9.53813 4.69218 9.28937C4.60334 9.25383 4.50561 9.24495 4.31904 9.20053C4.21243 9.26272 3.99921 9.31602 3.90148 9.45817C3.50169 10.0445 3.07524 10.622 2.75541 11.2528C2.35561 12.0346 2.40892 12.1057 3.03082 12.7365C3.19962 12.9053 3.43061 13.1096 3.44838 13.314C3.50168 13.9536 3.58165 14.6466 2.86202 15.0375C2.8176 15.0642 2.78206 15.1175 2.74652 15.153C2.50664 15.3662 2.48 15.6061 2.57772 15.9082C2.84425 16.7344 3.28846 17.4451 3.83929 18.1115C4.07028 18.3869 4.33681 18.4491 4.65664 18.3602C4.86098 18.3069 5.05643 18.2181 5.25189 18.1737C5.37627 18.147 5.54507 18.1292 5.65168 18.1825C6.27358 18.5201 6.93991 18.8222 6.93102 19.7018C6.93102 19.7195 6.9399 19.7284 6.9399 19.7462C6.98432 20.0571 7.16201 20.2348 7.47296 20.2437C8.26366 20.2615 9.05437 20.2792 9.84507 20.2792C10.3692 20.2615 10.5913 19.9594 10.6802 19.4885ZM8.77895 19.1865C8.76118 19.1865 8.7523 19.1865 8.73453 19.1865C7.99714 19.1865 7.9616 19.1865 7.85498 18.4668C7.79279 18.0315 7.58846 17.8094 7.19755 17.6584C6.91325 17.5518 6.62007 17.4096 6.39796 17.2053C5.97152 16.8055 5.53619 16.7611 5.02978 17.0098C4.70106 17.1697 4.47007 17.0809 4.31016 16.7611C4.29239 16.7255 4.26573 16.69 4.23908 16.6544C3.74156 15.8549 3.73268 15.846 4.399 15.2063C4.63887 14.9753 4.70995 14.7443 4.69218 14.4334C4.66553 13.9892 4.66553 13.5449 4.70107 13.1007C4.72772 12.7898 4.66553 12.5854 4.41677 12.3811C3.7238 11.7947 3.74156 11.777 4.18578 11.0129C4.53226 10.4266 4.54115 10.4088 5.19858 10.6487C5.63391 10.8086 5.96264 10.8086 6.32689 10.4621C6.59342 10.2133 6.97544 10.0801 7.32193 9.93792C7.64176 9.81354 7.75726 9.6092 7.80168 9.28937C7.94383 8.41871 7.95271 8.41871 8.84114 8.42759C9.58742 8.43648 9.52523 8.30321 9.68515 9.12945C9.78288 9.62697 10.0228 9.91127 10.4936 10.0623C10.7335 10.1334 10.9911 10.24 11.1511 10.4177C11.5153 10.8175 11.8885 10.8086 12.3504 10.6309C12.9635 10.3999 12.9723 10.4266 13.3277 10.9952C13.3721 11.0662 13.4077 11.1462 13.4521 11.2084C13.7097 11.5726 13.7186 11.8925 13.3188 12.1679C12.8835 12.4611 12.688 12.8431 12.8302 13.3761C12.8746 13.5361 12.8568 13.7137 12.8302 13.8737C12.7147 14.5755 12.8835 15.1619 13.4965 15.5794C13.692 15.7127 13.7008 15.8904 13.5765 16.0947C13.532 16.1658 13.4965 16.2458 13.461 16.3168C13.0168 17.1697 12.999 17.1875 12.0928 16.8765C11.8351 16.7877 11.6575 16.8321 11.4442 16.9743C11.0622 17.2319 10.6713 17.4896 10.2537 17.6761C9.90726 17.8272 9.73846 18.0493 9.67627 18.4135C9.57854 19.1865 9.56077 19.1865 8.77895 19.1865Z" fill="#8F94AC"/>
<path d="M10.9111 13.7936C10.9111 12.5854 9.98716 11.6436 8.76113 11.6258C7.5884 11.6081 6.58447 12.5854 6.58447 13.767C6.58447 14.993 7.54398 15.9703 8.76113 15.9525C9.98716 15.9436 10.9111 15.0108 10.9111 13.7936ZM8.74335 14.762C8.2103 14.7798 7.76608 14.3356 7.76608 13.7847C7.76608 13.2783 8.21918 12.8075 8.7167 12.8075C9.26753 12.7986 9.70286 13.225 9.71175 13.7758C9.72063 14.3356 9.32972 14.7442 8.74335 14.762Z" fill="#8F94AC"/>
<path d="M31.8069 21.9493C31.3983 21.9493 31.3183 21.7983 31.3183 21.4251C31.3361 19.8526 31.3361 18.2712 31.3272 16.6987C31.3272 16.0857 31.2472 15.4993 30.803 14.9929C29.8169 13.8735 28.8662 12.7096 27.8978 11.5813C27.5691 11.1993 27.1605 10.9505 26.6274 10.9417C26.0855 10.9328 25.5435 10.8972 25.0016 10.8884C24.0154 10.8795 24.0154 10.8884 23.9888 9.9022C23.9355 8.3208 22.9671 7.23692 21.5012 7.22803C18.3206 7.21026 15.14 7.21915 11.9594 7.22803C11.8617 7.26357 11.533 7.39683 11.533 7.78774C11.533 7.78774 11.5152 8.41853 12.0039 8.41853C15.14 8.41853 18.285 8.41853 21.4212 8.41853C22.3629 8.41853 22.7983 8.84497 22.7983 9.78671C22.7983 11.7146 22.7983 13.6514 22.7983 15.5793C22.7983 17.5338 22.7894 19.4972 22.8071 21.4518C22.8071 21.816 22.7183 21.9493 22.3363 21.9493C20.9237 21.9315 19.5111 21.9315 18.0985 21.9493C17.8053 21.9493 17.6365 21.8693 17.5032 21.5939C16.8369 20.2435 15.7264 19.5061 14.2249 19.4972C12.7235 19.4883 11.6041 20.2257 10.9289 21.5673C10.7423 21.9404 10.5291 21.9937 10.1826 21.8871C9.85386 21.7894 9.61398 21.5939 9.46295 21.3363L9.45407 21.3452C9.45407 21.3452 9.152 21.0164 8.74332 21.203C8.74332 21.203 8.38795 21.4251 8.49456 21.9493C8.84105 22.5001 9.40964 22.8999 10.1204 23.0332C10.4225 23.0865 10.538 23.1842 10.5735 23.5129C10.8134 25.9916 13.4165 27.4753 15.682 26.4359C16.9346 25.8584 17.6276 24.8545 17.7786 23.504C17.8142 23.1753 17.9474 23.1131 18.2406 23.1131C19.5999 23.122 20.9592 23.1309 22.3185 23.1131C22.7005 23.1043 22.8338 23.2197 22.8693 23.6018C23.0914 25.8761 25.5169 27.3687 27.658 26.5602C29.0883 26.0183 29.8968 24.9877 30.0567 23.4596C30.0834 23.202 30.1722 23.1043 30.4388 23.1131C30.8474 23.1309 31.2561 23.1576 31.6559 23.1043C31.9491 23.0687 32.2245 22.9088 32.4999 22.8022C32.4999 22.6156 32.4999 22.4202 32.4999 22.2336C32.2689 22.1181 32.0379 21.9404 31.8069 21.9493ZM14.1894 25.5652C12.8212 25.5652 11.7551 24.4813 11.7551 23.0954C11.7551 21.7183 12.8212 20.6433 14.2072 20.6433C15.5665 20.6433 16.6859 21.745 16.6859 23.0865C16.6859 24.4635 15.5665 25.5652 14.1894 25.5652ZM24.3797 12.0611C25.046 12.0789 25.7123 12.0522 26.3786 12.0789C26.5741 12.0877 26.8317 12.1677 26.9561 12.301C27.9067 13.3582 28.8307 14.4421 29.7635 15.5171C29.808 15.5615 29.8257 15.6237 29.8968 15.7481C27.8978 15.7481 25.9788 15.7481 23.9976 15.7481C23.9976 15.2861 23.9976 14.8419 23.9976 14.3977C23.9976 13.7491 24.0154 13.0917 23.9888 12.4431C23.971 12.1322 24.0865 12.0522 24.3797 12.0611ZM26.4497 25.5652C25.0638 25.5652 23.9888 24.4991 23.9888 23.122C23.9888 21.7183 25.0549 20.6433 26.4586 20.6433C27.8268 20.6433 28.9107 21.7272 28.9107 23.1043C28.9107 24.4724 27.8179 25.5652 26.4497 25.5652ZM30.0301 22.0204C28.5819 19.364 26.6007 18.8131 24.0421 20.2435C24.0243 20.208 23.9888 20.1636 23.9888 20.1191C23.9799 19.1507 23.9888 18.1912 23.9799 17.2229C23.9799 17.0096 24.0776 16.9297 24.2731 16.9297C26.1388 16.9297 27.9956 16.9297 29.8613 16.9474C29.9501 16.9474 30.1189 17.1162 30.1189 17.2051C30.1367 18.7154 30.1278 20.2257 30.1278 21.7272C30.1367 21.7894 30.1012 21.8338 30.0301 22.0204Z" fill="#8F94AC"/>
</svg>
