<svg width="32" height="32" viewBox="0 0 32 32" fill="none" xmlns="http://www.w3.org/2000/svg">
<path d="M27 26.5V9.875L19.125 2H9.5C7.567 2 6 3.567 6 5.5V26.5C6 28.433 7.567 30 9.5 30H23.5C25.433 30 27 28.433 27 26.5ZM19.125 7.25C19.125 8.69975 20.3003 9.875 21.75 9.875H25.25V26.5C25.25 27.4665 24.4665 28.25 23.5 28.25H9.5C8.5335 28.25 7.75 27.4665 7.75 26.5V5.5C7.75 4.5335 8.5335 3.75 9.5 3.75H19.125V7.25Z" fill="white"/>
<path d="M10.5554 26.6517C10.1911 26.5187 9.94629 26.2347 9.78822 25.9186C9.44791 25.238 9.56088 24.5594 9.92942 23.988C10.2756 23.4513 10.8494 22.9951 11.4977 22.6121C12.2277 22.181 13.1265 21.7998 14.0922 21.4833C14.4546 20.8328 14.8093 20.1414 15.1412 19.4386C15.4356 18.8151 15.7083 18.1906 15.9502 17.586C15.6149 16.803 15.352 16.0291 15.1987 15.32C15.0471 14.6191 14.9899 13.9258 15.1167 13.3312C15.2487 12.712 15.5962 12.1548 16.2564 11.8908C16.5916 11.7567 16.955 11.6801 17.3088 11.7558C17.6959 11.8386 17.9755 12.0825 18.1431 12.3949C18.2975 12.6827 18.3534 13.0172 18.3653 13.337C18.3775 13.6646 18.345 14.0286 18.2826 14.4106C18.1368 15.3029 17.8092 16.3962 17.3722 17.5512C17.6313 18.1073 17.9291 18.6702 18.2523 19.2154C18.5207 19.6683 18.8018 20.1011 19.0869 20.5014C19.953 20.4466 20.7576 20.4689 21.4229 20.5886C22.0597 20.7032 22.7074 20.9303 23.1027 21.4019C23.3143 21.6543 23.4403 21.9625 23.4529 22.3095C23.4651 22.6451 23.3704 22.9769 23.2121 23.2935C23.0643 23.5891 22.8624 23.8451 22.5915 24.0223C22.3151 24.2032 22.0074 24.2751 21.6998 24.2628C21.12 24.2395 20.5553 23.9201 20.066 23.5338C19.5401 23.1184 18.9967 22.5409 18.4722 21.8717C17.9117 21.9326 17.3214 22.025 16.7228 22.1467C16.1304 22.2671 15.5416 22.4137 14.9777 22.5816C14.3863 23.6022 13.7731 24.5219 13.1909 25.2238C12.6822 25.837 12.1273 26.3715 11.5703 26.601C11.2756 26.7224 10.9173 26.7838 10.5554 26.6517ZM12.9678 23.3253C12.6781 23.459 12.4088 23.5984 12.1652 23.7422C11.5913 24.0812 11.2182 24.4114 11.0324 24.6994C10.8689 24.9528 10.8649 25.1371 10.9621 25.3316C10.981 25.3693 10.9967 25.3936 11.0081 25.4087C11.0226 25.4051 11.043 25.3987 11.0703 25.3875C11.3097 25.2888 11.6913 24.9757 12.1807 24.3858C12.4347 24.0796 12.6991 23.7221 12.9678 23.3253ZM15.8385 20.9965C16.0461 20.948 16.254 20.9026 16.4614 20.8605C16.8424 20.783 17.2259 20.7156 17.6061 20.6597C17.4402 20.4063 17.2787 20.1471 17.1232 19.8846C16.9821 19.6466 16.8447 19.4039 16.7121 19.1583C16.5881 19.4393 16.4597 19.7202 16.328 19.999C16.1702 20.3332 16.0065 20.6668 15.8385 20.9965ZM20.1193 21.7868C20.381 22.0698 20.6367 22.312 20.8795 22.5038C21.3004 22.8362 21.593 22.9449 21.7525 22.9513C21.8145 22.9538 21.847 22.941 21.8729 22.924C21.9044 22.9034 21.9672 22.8484 22.0381 22.7065C22.1292 22.5243 22.1433 22.4128 22.1413 22.3573C22.1397 22.3133 22.1283 22.2826 22.0969 22.2451C22.0063 22.137 21.7454 21.9802 21.1905 21.8804C20.879 21.8243 20.5177 21.7936 20.1193 21.7868ZM16.6372 15.6478C16.798 15.1146 16.9177 14.6248 16.9873 14.1989C17.0411 13.8699 17.0616 13.5982 17.0537 13.3858C17.0468 13.1998 17.0191 13.0926 16.9976 13.0395C16.9554 13.0428 16.8745 13.0571 16.7438 13.1094C16.5916 13.1703 16.4665 13.2943 16.4003 13.6048C16.3289 13.9399 16.3479 14.4246 16.4815 15.0426C16.5236 15.2372 16.5758 15.4395 16.6372 15.6478Z" fill="white"/>
</svg>
