<svg width="41" height="42" viewBox="0 0 41 42" fill="none" xmlns="http://www.w3.org/2000/svg">
<circle opacity="0.6" cx="20.5" cy="21" r="20.5" fill="#007BEC"/>
<path fill-rule="evenodd" clip-rule="evenodd" d="M11.9668 22.8625C12.381 22.8625 12.7168 23.1983 12.7168 23.6125V26.9054C12.7168 27.6994 13.3655 28.3507 14.1754 28.3507H27.4273C28.2372 28.3507 28.8859 27.6994 28.8859 26.9054V23.6125C28.8859 23.1983 29.2217 22.8625 29.6359 22.8625C30.0501 22.8625 30.3859 23.1983 30.3859 23.6125V26.9054C30.3859 28.5364 29.057 29.8507 27.4273 29.8507H14.1754C12.5457 29.8507 11.2168 28.5364 11.2168 26.9054V23.6125C11.2168 23.1983 11.5526 22.8625 11.9668 22.8625Z" fill="white"/>
<path fill-rule="evenodd" clip-rule="evenodd" d="M15.8521 18.6932C16.1441 18.3994 16.619 18.398 16.9127 18.69L20.8013 22.555L24.6899 18.69C24.9837 18.398 25.4585 18.3994 25.7505 18.6932C26.0425 18.987 26.0411 19.4619 25.7473 19.7539L21.33 24.1444C21.0375 24.4351 20.5651 24.4351 20.2726 24.1444L15.8553 19.7539C15.5615 19.4619 15.5601 18.987 15.8521 18.6932Z" fill="white"/>
<path fill-rule="evenodd" clip-rule="evenodd" d="M20.8013 9.69092C21.2155 9.69092 21.5513 10.0267 21.5513 10.4409V23.6124C21.5513 24.0267 21.2155 24.3624 20.8013 24.3624C20.3871 24.3624 20.0513 24.0267 20.0513 23.6124V10.4409C20.0513 10.0267 20.3871 9.69092 20.8013 9.69092Z" fill="white"/>
</svg>
