<svg width="19" height="20" viewBox="0 0 19 20" fill="none" xmlns="http://www.w3.org/2000/svg">
<path d="M13.9438 12.7834C14.8828 11.5049 15.4375 9.92661 15.4375 8.21875C15.4375 3.9558 11.9817 0.5 7.71875 0.5C3.4558 0.5 0 3.9558 0 8.21875C0 12.4817 3.4558 15.9375 7.71875 15.9375C9.42707 15.9375 11.0058 15.3825 12.2844 14.4431L12.2834 14.4438C12.3184 14.4913 12.3574 14.5368 12.4004 14.5798L16.9728 19.1522C17.4366 19.6159 18.1884 19.6159 18.6522 19.1522C19.1159 18.6884 19.1159 17.9366 18.6522 17.4728L14.0798 12.9004C14.0368 12.8574 13.9913 12.8184 13.9438 12.7834ZM14.25 8.21875C14.25 11.8259 11.3259 14.75 7.71875 14.75C4.11164 14.75 1.1875 11.8259 1.1875 8.21875C1.1875 4.61164 4.11164 1.6875 7.71875 1.6875C11.3259 1.6875 14.25 4.61164 14.25 8.21875Z" fill="#9BA9B3"/>
</svg>
