<svg width="34" height="34" viewBox="0 0 34 34" fill="none" xmlns="http://www.w3.org/2000/svg">
<path d="M12.8842 27.9625C10.2642 27.9625 7.65422 27.9625 5.03422 27.9625C3.71422 27.9625 3.20422 27.4125 3.29422 26.0925C3.53422 22.3625 6.39422 19.3925 10.1242 19.1625C11.9542 19.0525 13.8042 19.0425 15.6242 19.1625C19.0542 19.3725 21.7542 21.8725 22.3742 25.2625C22.4442 25.6325 22.4742 26.0225 22.4842 26.4025C22.5142 27.3525 21.9242 27.9625 20.9642 27.9725C19.1942 27.9825 17.4142 27.9725 15.6442 27.9725C14.7242 27.9625 13.8042 27.9625 12.8842 27.9625ZM12.8542 26.6725C15.4542 26.6725 18.0542 26.6725 20.6542 26.6725C20.9742 26.6725 21.1642 26.6425 21.1642 26.2325C21.1542 23.3725 18.6842 20.6425 15.8242 20.4725C14.1042 20.3625 12.3742 20.3825 10.6442 20.3925C9.59422 20.4025 8.58422 20.6525 7.66422 21.1825C5.77422 22.2625 4.82422 23.9425 4.58422 26.0625C4.52422 26.6025 4.59422 26.6725 5.14422 26.6725C7.71422 26.6825 10.2842 26.6725 12.8542 26.6725Z" fill="#8F94AC"/>
<path d="M12.8543 16.9425C9.78432 16.9425 7.42432 14.5625 7.42432 11.4925C7.42432 8.50246 9.62432 6.02246 12.8843 6.02246C16.2543 6.02246 18.4143 8.71246 18.3443 11.6425C18.2643 14.6025 15.9143 16.9425 12.8543 16.9425ZM12.8943 15.6325C15.2343 15.6225 17.0743 13.7825 17.0543 11.4725C17.0243 9.11246 15.1743 7.28246 12.8243 7.31246C10.5443 7.33246 8.71432 9.19246 8.71432 11.5025C8.71432 13.8125 10.5443 15.6325 12.8943 15.6325Z" fill="#8F94AC"/>
<path d="M26.8543 27.9624C26.1343 27.9624 25.4143 27.9724 24.6943 27.9624C24.1843 27.9524 23.9643 27.7624 23.9543 27.3524C23.9443 26.9124 24.1843 26.6924 24.7043 26.6924C26.0043 26.6824 27.3043 26.6924 28.6043 26.6824C29.3143 26.6824 29.4343 26.5524 29.4143 25.8424C29.3343 23.3324 27.1943 21.1924 24.6843 21.1224C23.9343 21.1024 23.1843 21.0724 22.4343 21.0524C22.0743 21.0424 21.9143 20.8224 21.8943 20.5024C21.8743 20.1624 21.9843 19.8724 22.3643 19.8324C25.6443 19.4824 29.1643 20.2824 30.4443 24.3624C30.6243 24.9324 30.6943 25.5624 30.7143 26.1624C30.7543 27.2324 30.0243 27.9324 28.9443 27.9624C28.9143 27.9624 28.8843 27.9624 28.8543 27.9624C28.2043 27.9624 27.5343 27.9624 26.8543 27.9624Z" fill="#8F94AC"/>
<path d="M21.7844 17.0525C21.0844 16.8525 20.3744 16.6925 19.6944 16.4525C19.1544 16.2625 19.0044 15.8625 19.2044 15.4525C19.3944 15.0725 19.7744 14.9925 20.2644 15.2625C22.0044 16.1925 24.4644 15.3925 25.1244 13.3025C25.5444 11.9625 25.2944 10.7325 24.3244 9.73248C23.3644 8.74248 22.1544 8.49248 20.8244 8.85248C20.3044 8.99248 19.9644 8.86248 19.8544 8.46248C19.7344 8.05248 19.9344 7.76248 20.4444 7.59248C22.4244 6.95248 24.6744 7.77248 25.8544 9.59248C26.9944 11.3425 26.8344 13.7325 25.4744 15.2625C24.4544 16.4125 23.3044 16.9425 21.8144 16.9525C21.8044 16.9825 21.7944 17.0225 21.7844 17.0525Z" fill="#8F94AC"/>
</svg>
