<svg width="25" height="25" viewBox="0 0 25 25" fill="none" xmlns="http://www.w3.org/2000/svg">
<path d="M10.1686 8.71526C10.1686 9.83413 9.27313 10.7412 8.16856 10.7412C7.06399 10.7412 6.16856 9.83413 6.16856 8.71526C6.16856 7.59638 7.06399 6.68936 8.16856 6.68936C9.27313 6.68936 10.1686 7.59638 10.1686 8.71526Z" fill="#66A1D9"/>
<path d="M4.1665 3.98816C3.06193 3.98816 2.1665 4.89519 2.1665 6.01406V18.1695C2.1665 19.2883 3.06193 20.1954 4.1665 20.1954H21.4998C22.6044 20.1954 23.4998 19.2883 23.4998 18.1695V6.01406C23.4998 4.89519 22.6044 3.98816 21.4998 3.98816H4.1665ZM21.4998 5.33876C21.868 5.33876 22.1665 5.6411 22.1665 6.01406V14.1166L17.1334 11.4878C16.8767 11.3578 16.5667 11.4087 16.3638 11.6143L11.4169 16.6252L7.87169 14.2311C7.60728 14.0525 7.2552 14.0878 7.03049 14.3155L3.50189 17.4942V18.2229C3.50053 18.2052 3.49984 18.1874 3.49984 18.1695V6.01406C3.49984 5.6411 3.79831 5.33876 4.1665 5.33876H21.4998Z" fill="#66A1D9"/>
</svg>
