<svg width="60" height="60" viewBox="0 0 60 60" fill="none" xmlns="http://www.w3.org/2000/svg">
<circle cx="30" cy="30" r="29.5" fill="url(#paint0_linear_1282_5515)" stroke="url(#paint1_linear_1282_5515)"/>
<path d="M16 19C16 17.3431 17.3431 16 19 16L25 16C26.6569 16 28 17.3431 28 19V25C28 26.6569 26.6569 28 25 28H19C17.3431 28 16 26.6569 16 25L16 19ZM19 18C18.4477 18 18 18.4477 18 19V25C18 25.5523 18.4477 26 19 26H25C25.5523 26 26 25.5523 26 25V19C26 18.4477 25.5523 18 25 18H19ZM32 19C32 17.3431 33.3431 16 35 16L41 16C42.6569 16 44 17.3431 44 19V25C44 26.6569 42.6569 28 41 28H35C33.3431 28 32 26.6569 32 25V19ZM35 18C34.4477 18 34 18.4477 34 19V25C34 25.5523 34.4477 26 35 26H41C41.5523 26 42 25.5523 42 25V19C42 18.4477 41.5523 18 41 18H35ZM16 35C16 33.3431 17.3431 32 19 32H25C26.6569 32 28 33.3431 28 35V41C28 42.6569 26.6569 44 25 44H19C17.3431 44 16 42.6569 16 41L16 35ZM19 34C18.4477 34 18 34.4477 18 35V41C18 41.5523 18.4477 42 19 42H25C25.5523 42 26 41.5523 26 41V35C26 34.4477 25.5523 34 25 34H19ZM32 35C32 33.3431 33.3431 32 35 32H41C42.6569 32 44 33.3431 44 35V41C44 42.6569 42.6569 44 41 44H35C33.3431 44 32 42.6569 32 41V35ZM35 34C34.4477 34 34 34.4477 34 35V41C34 41.5523 34.4477 42 35 42H41C41.5523 42 42 41.5523 42 41V35C42 34.4477 41.5523 34 41 34H35Z" fill="#DE7836" style="mix-blend-mode:darken"/>
<path d="M15.7 18.7C15.7 17.0431 17.0431 15.7 18.7 15.7L24.7 15.7C26.3568 15.7 27.7 17.0431 27.7 18.7V24.7C27.7 26.3568 26.3568 27.7 24.7 27.7H18.7C17.0431 27.7 15.7 26.3568 15.7 24.7L15.7 18.7ZM18.7 17.7C18.1477 17.7 17.7 18.1477 17.7 18.7V24.7C17.7 25.2522 18.1477 25.7 18.7 25.7H24.7C25.2522 25.7 25.7 25.2522 25.7 24.7V18.7C25.7 18.1477 25.2522 17.7 24.7 17.7H18.7ZM31.7 18.7C31.7 17.0431 33.0431 15.7 34.7 15.7L40.7 15.7C42.3568 15.7 43.7 17.0431 43.7 18.7V24.7C43.7 26.3568 42.3568 27.7 40.7 27.7H34.7C33.0431 27.7 31.7 26.3568 31.7 24.7V18.7ZM34.7 17.7C34.1477 17.7 33.7 18.1477 33.7 18.7V24.7C33.7 25.2522 34.1477 25.7 34.7 25.7H40.7C41.2522 25.7 41.7 25.2522 41.7 24.7V18.7C41.7 18.1477 41.2522 17.7 40.7 17.7H34.7ZM15.7 34.7C15.7 33.0431 17.0431 31.7 18.7 31.7H24.7C26.3568 31.7 27.7 33.0431 27.7 34.7V40.7C27.7 42.3568 26.3568 43.7 24.7 43.7H18.7C17.0431 43.7 15.7 42.3568 15.7 40.7L15.7 34.7ZM18.7 33.7C18.1477 33.7 17.7 34.1477 17.7 34.7V40.7C17.7 41.2522 18.1477 41.7 18.7 41.7H24.7C25.2522 41.7 25.7 41.2522 25.7 40.7V34.7C25.7 34.1477 25.2522 33.7 24.7 33.7H18.7ZM31.7 34.7C31.7 33.0431 33.0431 31.7 34.7 31.7H40.7C42.3568 31.7 43.7 33.0431 43.7 34.7V40.7C43.7 42.3568 42.3568 43.7 40.7 43.7H34.7C33.0431 43.7 31.7 42.3568 31.7 40.7V34.7ZM34.7 33.7C34.1477 33.7 33.7 34.1477 33.7 34.7V40.7C33.7 41.2522 34.1477 41.7 34.7 41.7H40.7C41.2522 41.7 41.7 41.2522 41.7 40.7V34.7C41.7 34.1477 41.2522 33.7 40.7 33.7H34.7Z" fill="white"/>
<defs>
<linearGradient id="paint0_linear_1282_5515" x1="30" y1="0" x2="30" y2="60" gradientUnits="userSpaceOnUse">
<stop stop-color="#FE8E46"/>
<stop offset="1" stop-color="#F1A36E"/>
</linearGradient>
<linearGradient id="paint1_linear_1282_5515" x1="30" y1="0" x2="30" y2="60" gradientUnits="userSpaceOnUse">
<stop stop-color="#F1A26C"/>
<stop offset="1" stop-color="#FD8E47"/>
</linearGradient>
</defs>
</svg>
