<svg width="34" height="34" viewBox="0 0 34 34" fill="none" xmlns="http://www.w3.org/2000/svg">
<path d="M28.7963 11.6735C28.7963 10.4035 27.7963 9.30348 26.5263 9.19348C25.6863 9.12348 24.8363 9.13348 23.9863 9.13348C18.6963 9.12348 13.4063 9.12348 8.11629 9.13348C6.26629 9.12348 5.19629 10.2035 5.19629 12.0435C5.19629 15.3735 5.19629 18.7035 5.19629 22.0435C5.19629 23.7635 6.31629 24.8735 8.01629 24.8735C11.0163 24.8735 14.0063 24.8735 17.0063 24.8735C20.0363 24.8735 23.0563 24.8735 26.0863 24.8735C27.5763 24.8735 28.7863 23.7435 28.7863 22.3335C28.8063 18.7735 28.8063 15.2235 28.7963 11.6735ZM27.5363 22.2135C27.5363 23.1035 27.0363 23.6035 26.1563 23.6035C20.0463 23.6035 13.9363 23.6035 7.82629 23.6035C6.95629 23.6035 6.42629 23.0735 6.42629 22.2135C6.42629 18.7335 6.42629 15.2535 6.42629 11.7735C6.42629 10.8935 6.93629 10.4035 7.81629 10.4035C10.8763 10.4035 13.9263 10.4035 16.9863 10.4035C20.0263 10.4035 23.0663 10.4035 26.1063 10.4035C27.0663 10.4035 27.5263 10.8535 27.5263 11.8235C27.5463 15.2835 27.5463 18.7535 27.5363 22.2135Z" fill="#8F94AC"/>
<path d="M24.0264 14.4035C22.7664 14.3735 21.5164 14.3935 20.2564 14.3935C18.9864 14.3935 17.7164 14.3735 16.4464 14.4135C16.2264 14.4235 15.9464 14.5835 15.8164 14.7635C15.7264 14.8935 15.7464 15.2435 15.8564 15.3535C16.0164 15.5135 16.2964 15.6335 16.5364 15.6435C17.7764 15.6735 19.0164 15.6535 20.2564 15.6535C21.5264 15.6535 22.7964 15.6635 24.0664 15.6535C24.6864 15.6535 25.0564 15.1735 24.7564 14.7435C24.6264 14.5435 24.2764 14.4135 24.0264 14.4035Z" fill="#8F94AC"/>
<path d="M23.8363 18.3235C21.4563 18.3235 19.0763 18.3235 16.6963 18.3235C16.4963 18.3235 16.2463 18.3135 16.1063 18.4235C15.9363 18.5535 15.7563 18.8035 15.7563 18.9935C15.7563 19.1735 15.9463 19.4035 16.1163 19.5135C16.2663 19.6135 16.5063 19.5935 16.7163 19.5935C17.8863 19.6035 19.0563 19.5935 20.2163 19.5935C21.4263 19.5935 22.6363 19.5935 23.8463 19.5935C24.5563 19.5935 24.8563 19.3935 24.8463 18.9535C24.8363 18.5235 24.5263 18.3235 23.8363 18.3235Z" fill="#8F94AC"/>
<path d="M14.1264 15.1235H10.4764C10.4764 14.7435 10.4964 14.4435 10.4664 14.1435C10.4264 13.7535 10.4564 13.2935 10.2664 12.9835C10.1064 12.6935 9.68637 12.4135 9.35637 12.3935C9.35637 12.3935 8.54637 12.3035 8.54637 13.0735C8.54637 13.1735 8.59637 13.2935 8.65637 13.4235C8.87637 13.7235 9.34637 13.5635 9.34637 13.5635V15.0735C8.81637 15.1035 8.44637 15.1335 8.09637 15.1535C7.91637 15.1635 7.77637 15.3135 7.77637 15.5035V15.9635C7.77637 16.1435 7.91637 16.3035 8.10637 16.3135C8.47637 16.3335 8.82637 16.3535 9.28637 16.3735C9.28637 17.3735 9.23637 18.2635 9.29637 19.1435C9.37637 20.1635 10.0564 21.0035 10.8864 21.1935C11.8564 21.4135 12.6564 21.0435 13.2364 20.2835C13.8964 19.4035 13.9464 18.3935 13.4864 17.4035C13.1164 16.6235 12.1064 16.2935 11.4664 16.8035C11.1564 17.0535 10.9564 17.6235 10.9764 18.0435C10.9864 18.2435 11.5864 18.4535 11.9464 18.6035C12.1164 18.6735 12.3464 18.5835 12.5864 18.5735C12.4964 19.3935 12.1464 20.0235 11.3664 20.0035C10.6364 19.9835 10.5664 19.2435 10.5264 18.6635C10.4764 17.9135 10.5164 17.1535 10.5164 16.3035H14.1664C14.3564 16.3035 14.5064 16.1435 14.4964 15.9635L14.4764 15.4635C14.4464 15.2635 14.3064 15.1235 14.1264 15.1235Z" fill="#8F94AC"/>
</svg>
