<svg width="24" height="24" viewBox="0 0 24 24" fill="none" xmlns="http://www.w3.org/2000/svg">
<path fill-rule="evenodd" clip-rule="evenodd" d="M18.6501 3.34998H5.3501V21.7692L7.2001 19.9192L8.4001 21.1192L9.6001 19.9192L10.8001 21.1192L12.0001 19.9192L13.2001 21.1192L14.4001 19.9192L15.6001 21.1192L16.8001 19.9192L18.6501 21.7692V3.34998ZM6.6501 18.6307V4.64998H17.3501V18.6307L16.8001 18.0807L15.6001 19.2807L14.4001 18.0807L13.2001 19.2807L12.0001 18.0807L10.8001 19.2807L9.6001 18.0807L8.4001 19.2807L7.2001 18.0807L6.6501 18.6307ZM8.40015 8.84993H15.6001V7.54993H8.40015V8.84993ZM8.40015 11.2499H15.6001V9.94993H8.40015V11.2499ZM8.40015 13.6499H15.6001V12.3499H8.40015V13.6499ZM8.40015 16.0499H15.6001V14.7499H8.40015V16.0499Z" fill="#FFA133"/>
</svg>
