<svg width="19" height="18" viewBox="0 0 19 18" fill="none" xmlns="http://www.w3.org/2000/svg">
<path d="M12.2688 8.03975C12.4885 8.25942 12.4885 8.61558 12.2688 8.83525L8.89384 12.2102C8.78835 12.3157 8.64528 12.375 8.49609 12.375C8.34691 12.375 8.20384 12.3157 8.09835 12.2102L6.41085 10.5227C6.19118 10.3031 6.19118 9.94692 6.41085 9.72725C6.63052 9.50758 6.98667 9.50758 7.20634 9.72725L8.49609 11.017L11.4733 8.03975C11.693 7.82008 12.0492 7.82008 12.2688 8.03975Z" fill="#CDCDCD"/>
<path d="M3.99609 0C4.30675 0 4.55859 0.25184 4.55859 0.5625V1.125H13.5586V0.5625C13.5586 0.25184 13.8104 0 14.1211 0C14.4318 0 14.6836 0.25184 14.6836 0.5625V1.125H15.8086C17.0512 1.125 18.0586 2.13236 18.0586 3.375V15.75C18.0586 16.9926 17.0512 18 15.8086 18H2.30859C1.06595 18 0.0585938 16.9926 0.0585938 15.75V3.375C0.0585938 2.13236 1.06595 1.125 2.30859 1.125H3.43359V0.5625C3.43359 0.25184 3.68543 0 3.99609 0ZM1.18359 4.5V15.75C1.18359 16.3713 1.68727 16.875 2.30859 16.875H15.8086C16.4299 16.875 16.9336 16.3713 16.9336 15.75V4.5H1.18359Z" fill="#CDCDCD"/>
</svg>
