<svg width="19" height="18" viewBox="0 0 19 18" fill="none" xmlns="http://www.w3.org/2000/svg">
<path d="M10.0655 2.13402C10.9575 0.862396 12.7115 0.554679 13.9831 1.44671C15.2548 2.33874 15.5625 4.09273 14.6704 5.36435L8.85584 13.6533C8.32062 14.4162 7.26822 14.6009 6.50525 14.0656C5.74228 13.5304 5.55765 12.478 6.09287 11.7151L10.6153 5.26813C10.7937 5.01381 11.1445 4.95226 11.3989 5.13067C11.6532 5.30908 11.7147 5.65987 11.5363 5.9142L7.01386 12.3611C6.83545 12.6154 6.897 12.9662 7.15132 13.1447C7.40564 13.3231 7.75644 13.2615 7.93485 13.0072L13.7495 4.71829C14.2847 3.95531 14.1 2.90292 13.3371 2.3677C12.5741 1.83248 11.5217 2.01711 10.9865 2.78008L5.17188 11.069C4.27985 12.3406 4.58756 14.0946 5.85918 14.9866C7.13081 15.8787 8.88479 15.5709 9.77683 14.2993L14.2993 7.8524C14.4777 7.59808 14.8285 7.53653 15.0828 7.71494C15.3372 7.89335 15.3987 8.24414 15.2203 8.49847L10.6978 14.9454C9.44897 16.7257 6.99339 17.1565 5.21312 15.9076C3.43285 14.6588 3.00204 12.2032 4.25089 10.4229L10.0655 2.13402Z" fill="#CDCDCD"/>
</svg>
