<svg width="24" height="24" viewBox="0 0 24 24" fill="none" xmlns="http://www.w3.org/2000/svg">
<g clip-path="url(#clip0_1420_24964)">
<path d="M7.14111 22.9686C7.4554 22.5537 7.7194 22.1577 8.03368 21.812C8.12797 21.7051 8.36054 21.6863 8.53026 21.6863C12.1948 21.68 15.8657 21.68 19.5303 21.68C20.6365 21.68 21.4851 20.976 21.6737 19.9137C21.8434 18.9771 21.2525 17.9777 20.2908 17.6257C20.0268 17.5314 19.7188 17.5063 19.436 17.5063C18.1348 17.4937 16.8274 17.5126 15.5263 17.5C13.8543 17.4811 12.5468 16.4943 12.1194 14.9354C11.604 13.0686 12.7983 11.1011 14.7091 10.768C15.4571 10.636 16.2365 10.6737 16.9971 10.636C17.1731 10.6297 17.3491 10.636 17.6445 10.636C17.192 10.0263 16.796 9.52972 16.444 9.00172C15.7274 7.94572 15.0611 6.87086 14.86 5.56972C14.5457 3.552 15.9097 1.748 17.5503 1.22C20.2343 0.35886 22.8743 2.13772 22.9937 4.94743C23.044 6.12915 22.5663 7.21029 21.8811 8.15315C20.9948 9.37886 20.0331 10.5543 19.084 11.736C18.9834 11.8617 18.7445 11.9434 18.5685 11.9434C17.5565 11.9623 16.5445 11.9434 15.5325 11.956C14.4828 11.9686 13.7223 12.5406 13.4394 13.496C13.0497 14.816 14.0051 16.136 15.3754 16.1549C16.5383 16.1674 17.7074 16.1171 18.8703 16.1737C19.5931 16.2114 20.3537 16.2743 21.02 16.532C22.3965 17.0537 23.1948 18.6063 22.9623 20.0394C22.692 21.724 21.5605 22.8366 19.964 22.9749C19.7503 22.9937 19.5365 23 19.3228 23C15.3628 23 11.4028 23 7.44911 23C7.36111 23 7.2794 22.9874 7.14111 22.9686ZM18.7885 10.0137C18.952 9.90057 19.0337 9.86915 19.0714 9.81257C19.8005 8.73772 20.5737 7.688 21.24 6.57543C21.6234 5.93429 21.8183 5.21143 21.6045 4.41315C21.24 3.07429 19.9577 2.16915 18.5371 2.33257C17.1857 2.48972 16.136 3.65886 16.1171 5.02286C16.1045 5.82743 16.4503 6.51886 16.8525 7.16629C17.456 8.14057 18.1348 9.05829 18.7885 10.0137Z" fill="#FFA133"/>
<path d="M5.09189 22.9811C4.03589 21.9251 3.13075 20.8189 2.34503 19.6057C1.77303 18.7257 1.26389 17.8331 1.06903 16.7771C0.704463 14.8097 1.89246 12.8297 3.80332 12.2514C6.48732 11.4406 9.08332 13.2069 9.15875 16.0166C9.18389 16.7897 8.88218 17.6257 8.53646 18.336C7.69418 20.0709 6.46846 21.548 5.09189 22.9811ZM5.07303 13.3703C3.28161 13.364 1.82332 15.0989 2.31989 16.6703C2.82903 18.2606 3.85361 19.5491 4.86561 20.8377C4.91589 20.9006 5.16732 20.9069 5.22389 20.844C6.24846 19.6811 7.19132 18.4491 7.69418 16.9594C8.29761 15.1869 6.95246 13.3766 5.07303 13.3703Z" fill="#FFA133"/>
<path d="M19.8761 5.10459C19.8698 5.67031 19.4298 6.09145 18.8703 6.08516C18.3486 6.07888 17.9086 5.63259 17.8961 5.11088C17.8898 4.57659 18.3549 4.09888 18.8829 4.09888C19.4235 4.09888 19.8886 4.57031 19.8761 5.10459Z" fill="#FFA133"/>
<path d="M5.0164 17.1354C4.47583 17.1354 4.05469 16.6891 4.05469 16.1297C4.05469 15.5766 4.50726 15.1303 5.04154 15.1428C5.60726 15.1554 6.02212 15.5703 6.02212 16.136C6.02212 16.7331 5.61354 17.1417 5.0164 17.1354Z" fill="#FFA133"/>
</g>
<defs>
<clipPath id="clip0_1420_24964">
<rect width="22" height="22" fill="white" transform="translate(1 1)"/>
</clipPath>
</defs>
</svg>
