<svg width="25" height="26" viewBox="0 0 25 26" fill="none" xmlns="http://www.w3.org/2000/svg">
<path d="M12.5 23.9375C6.45939 23.9375 1.5625 19.0406 1.5625 13C1.5625 6.95939 6.45939 2.0625 12.5 2.0625C18.5406 2.0625 23.4375 6.95939 23.4375 13C23.4375 19.0406 18.5406 23.9375 12.5 23.9375ZM12.5 25.5C19.4036 25.5 25 19.9036 25 13C25 6.09644 19.4036 0.5 12.5 0.5C5.59644 0.5 0 6.09644 0 13C0 19.9036 5.59644 25.5 12.5 25.5Z" fill="#9BA9B3"/>
<path d="M6.69499 15.4487C7.06847 15.2327 7.54639 15.3603 7.76244 15.7338C8.70919 17.3705 10.4768 18.4688 12.5 18.4688C14.5233 18.4688 16.2909 17.3705 17.2376 15.7338C17.4537 15.3603 17.9316 15.2327 18.3051 15.4487C18.6786 15.6648 18.8062 16.1427 18.5902 16.5162C17.3756 18.6158 15.1036 20.0312 12.5 20.0312C9.8965 20.0312 7.62448 18.6158 6.40993 16.5162C6.19388 16.1427 6.3215 15.6648 6.69499 15.4487Z" fill="#9BA9B3"/>
<path d="M10.9375 10.6562C10.9375 11.9507 10.2379 13 9.375 13C8.51206 13 7.8125 11.9507 7.8125 10.6562C7.8125 9.36183 8.51206 8.3125 9.375 8.3125C10.2379 8.3125 10.9375 9.36183 10.9375 10.6562Z" fill="#9BA9B3"/>
<path d="M17.1875 10.6562C17.1875 11.9507 16.4879 13 15.625 13C14.7621 13 14.0625 11.9507 14.0625 10.6562C14.0625 9.36183 14.7621 8.3125 15.625 8.3125C16.4879 8.3125 17.1875 9.36183 17.1875 10.6562Z" fill="#9BA9B3"/>
</svg>
