<svg width="25" height="23" viewBox="0 0 25 23" fill="none" xmlns="http://www.w3.org/2000/svg">
<g clip-path="url(#clip0_6356_40989)">
<path d="M14.2297 22.07C13.9197 22.07 13.6997 22.07 13.4697 22.07C10.0397 22.07 6.60969 22.07 3.17969 22.07C1.27969 22.07 0.179688 20.96 0.179688 19.05C0.179688 13.7 0.179688 8.35 0.179688 3C0.179688 1.16 1.32969 0 3.16969 0C5.25969 0 7.34969 0 9.43969 0C10.1397 0 10.7097 0.23 11.2097 0.73C12.7497 2.3 14.2997 3.86 15.8797 5.39C16.4597 5.96 16.7297 6.6 16.7097 7.4C16.6897 8.57 16.6997 8.57 15.5897 8.93C15.5497 8.94 15.4997 8.94 15.3997 8.94C15.3697 8.73 15.3497 8.53 15.3197 8.27C15.1397 8.26 14.9597 8.25 14.7897 8.25C13.4497 8.25 12.1097 8.25 10.7797 8.25C9.31969 8.25 8.49969 7.43 8.48969 5.97C8.48969 4.6 8.47969 3.23 8.49969 1.86C8.50969 1.46 8.37969 1.33 7.96969 1.33C6.28969 1.36 4.59969 1.35 2.90969 1.35C2.00969 1.35 1.47969 1.89 1.47969 2.79C1.47969 8.29 1.47969 13.8 1.47969 19.3C1.47969 20.21 2.02969 20.74 2.94969 20.74C6.11969 20.74 9.28969 20.74 12.4497 20.74C12.7497 20.74 12.9597 20.81 13.1597 21.05C13.4697 21.4 13.8297 21.69 14.2297 22.07ZM9.83969 1.51C9.83969 1.52 9.79969 1.61 9.79969 1.71C9.79969 3.2 9.78969 4.69 9.79969 6.17C9.79969 6.67 10.0697 6.92 10.5797 6.92C12.0397 6.93 13.4897 6.92 14.9497 6.92C15.0597 6.92 15.1697 6.89 15.2297 6.88C13.4397 5.1 11.6497 3.31 9.83969 1.51Z" fill="#C1B0A3"/>
<path d="M9.4698 11.26C8.2098 11.23 6.9598 11.24 5.6998 11.24C4.4298 11.24 5.1598 11.22 3.8898 11.26C3.6698 11.27 3.3898 11.43 3.2598 11.61C3.1698 11.74 3.1898 12.09 3.2998 12.2C3.4598 12.36 3.7398 12.48 3.9798 12.49C5.2198 12.52 4.4598 12.5 5.6998 12.5C6.9698 12.5 8.2398 12.51 9.5098 12.5C10.1298 12.5 10.4998 12.02 10.1998 11.59C10.0698 11.4 9.7198 11.26 9.4698 11.26Z" fill="#C1B0A3"/>
<path d="M9.27922 14.18C6.89922 14.18 6.51922 14.18 4.13922 14.18C3.93922 14.18 3.68922 14.17 3.54922 14.28C3.37922 14.41 3.19922 14.66 3.19922 14.85C3.19922 15.03 3.38922 15.26 3.55922 15.37C3.70922 15.47 3.94922 15.45 4.15922 15.45C5.32922 15.46 4.49922 15.45 5.65922 15.45C6.86922 15.45 8.07922 15.45 9.28922 15.45C9.99922 15.45 10.2992 15.25 10.2892 14.81C10.2792 14.37 9.97922 14.18 9.27922 14.18Z" fill="#C1B0A3"/>
<path d="M9.27922 17.18C6.89922 17.18 6.51922 17.18 4.13922 17.18C3.93922 17.18 3.68922 17.17 3.54922 17.28C3.37922 17.41 3.19922 17.66 3.19922 17.85C3.19922 18.03 3.38922 18.26 3.55922 18.37C3.70922 18.47 3.94922 18.45 4.15922 18.45C5.32922 18.46 4.49922 18.45 5.65922 18.45C6.86922 18.45 8.07922 18.45 9.28922 18.45C9.99922 18.45 10.2992 18.25 10.2892 17.81C10.2792 17.37 9.97922 17.18 9.27922 17.18Z" fill="#C1B0A3"/>
<path d="M6.34013 3.03997C5.71013 3.00997 5.08013 3.02997 4.45013 3.02997C3.82013 3.02997 4.18013 3.00997 3.55013 3.03997C3.44013 3.04997 3.30013 3.21997 3.23013 3.39997C3.18013 3.51997 3.20013 3.86997 3.25013 3.98997C3.33013 4.14997 3.47013 4.26997 3.59013 4.27997C4.21013 4.29997 3.83013 4.28997 4.45013 4.28997C5.09013 4.28997 5.72013 4.29997 6.36013 4.28997C6.67013 4.28997 6.86013 3.80997 6.70013 3.37997C6.64013 3.17997 6.46013 3.04997 6.34013 3.03997Z" fill="#C1B0A3"/>
<path d="M6.23922 4.95995C5.04922 4.95995 4.85922 4.95995 3.66922 4.95995C3.56922 4.95995 3.44922 4.94995 3.36922 5.05995C3.28922 5.18995 3.20922 5.43995 3.19922 5.63995C3.19922 5.81995 3.28922 6.04995 3.37922 6.15995C3.45922 6.25995 3.57922 6.23995 3.67922 6.23995C4.25922 6.24995 3.84922 6.23995 4.42922 6.23995C5.03922 6.23995 5.63922 6.23995 6.24922 6.23995C6.60922 6.23995 6.74922 6.03995 6.74922 5.59995C6.73922 5.15995 6.58922 4.95995 6.23922 4.95995Z" fill="#C1B0A3"/>
<path d="M24.0199 16.4201C23.6099 16.1501 23.4299 15.9201 23.4299 15.6801C23.4299 15.4501 23.5999 15.2201 23.9799 14.9501C24.4899 14.5901 24.6199 14.2001 24.3899 13.7301C24.0299 12.9601 23.6199 12.2401 23.1799 11.5901C22.8599 11.1201 22.3799 11.0101 21.8399 11.3101C21.4799 11.5001 21.1899 11.5301 20.9699 11.4101C20.7399 11.2801 20.6199 10.9901 20.6099 10.5601C20.5899 9.91005 20.3299 9.60005 19.7499 9.56005C18.9199 9.50005 18.0899 9.49005 17.2999 9.56005C16.6799 9.61005 16.4399 9.88005 16.4199 10.5801C16.4099 10.9701 16.2799 11.2501 16.0499 11.3701C15.8299 11.5001 15.5299 11.4701 15.1999 11.2901C14.6499 10.9901 14.1599 11.0701 13.8799 11.4901C13.4399 12.1601 13.0199 12.9201 12.5999 13.8201C12.3399 14.3701 12.7399 14.7701 13.0099 14.9601C13.3899 15.2301 13.5699 15.4701 13.5699 15.7101C13.5699 15.9501 13.3999 16.1801 13.0299 16.4301C12.6999 16.6601 12.3599 17.0401 12.6099 17.5601C13.0099 18.4001 13.4599 19.1801 13.9199 19.8701C14.2699 20.3901 14.8699 20.1801 15.1199 20.0601C15.3699 19.9401 15.5899 19.8801 15.7599 19.8801C15.8799 19.8801 15.9699 19.9101 16.0599 19.9601C16.2799 20.0901 16.3999 20.3901 16.4199 20.8701C16.4299 21.0501 16.4999 21.6601 17.0099 21.7101C18.0299 21.8201 18.9199 21.8401 19.7199 21.7701C20.3599 21.7201 20.5899 21.4501 20.6099 20.7001C20.6199 20.3601 20.7499 20.1001 20.9699 19.9701C21.1899 19.8401 21.4799 19.8501 21.7699 20.0101C21.8899 20.0701 22.0299 20.1201 22.1999 20.1701C22.2799 20.2001 22.3699 20.2301 22.4699 20.2601C22.5399 20.2201 22.6199 20.1701 22.6999 20.1301C22.8999 20.0201 23.0999 19.9101 23.2099 19.7501C23.6599 19.0501 24.0699 18.3101 24.4199 17.5501C24.6699 17.0101 24.3399 16.6301 24.0199 16.4201ZM22.7499 18.1001L22.7099 18.1801C22.5699 18.4401 22.4299 18.5801 22.2499 18.6201C22.0799 18.6601 21.8999 18.5901 21.6899 18.4201C21.4099 18.1901 21.1699 18.2001 20.8599 18.4501C20.4999 18.7301 20.0899 18.9701 19.6499 19.1301C19.3299 19.2501 19.2399 19.4001 19.2399 19.7601C19.2399 19.7701 19.2399 20.4301 19.0199 20.4801C18.8599 20.5201 18.6999 20.5301 18.5399 20.5301C18.3199 20.5301 18.1099 20.5001 17.9499 20.4701C17.7799 20.4401 17.7499 19.9401 17.7599 19.8301C17.7899 19.4201 17.6699 19.2301 17.2899 19.1001C16.9099 18.9701 16.5099 18.7401 16.1799 18.4501C15.8899 18.2001 15.6999 18.1801 15.3899 18.3701C15.0999 18.5501 14.7799 18.5601 14.5099 18.4101C14.2299 18.2601 14.0599 17.9501 14.0499 17.5901C14.0499 17.4201 14.2699 17.2101 14.4399 17.1401C14.8899 16.9301 15.0199 16.6701 14.9099 16.1901C14.8299 15.8401 14.8299 15.4301 14.9199 15.0601C15.0099 14.6701 14.9099 14.4601 14.5299 14.2701C14.4099 14.2101 13.9999 13.9101 14.0699 13.7501C14.2099 13.4001 14.4399 13.0801 14.6599 12.7701C14.7499 12.6501 15.0499 12.8101 15.0899 12.8301C15.2599 12.9201 15.4199 13.0201 15.5699 13.1101C15.6099 13.1301 15.6499 13.1601 15.6799 13.1801L17.7199 11.9901C17.7299 11.9101 17.7299 11.8301 17.7299 11.7301C17.7399 11.4401 17.7399 11.1201 17.9199 10.9301C18.0799 10.7601 18.3999 10.7801 18.6999 10.8001C18.8199 10.8101 18.9399 10.8101 19.0399 10.8101H19.0799L19.0999 10.8501C19.1199 10.8801 19.1399 10.9101 19.1599 10.9301C19.1899 10.9701 19.2199 11.0101 19.2099 11.0501C19.0899 11.7901 19.3999 12.2301 20.2299 12.5001C20.4999 12.5901 20.7299 12.7801 20.9799 12.9801C21.0699 13.0601 21.1699 13.1401 21.2699 13.2101C21.2999 13.1901 21.3399 13.1701 21.3699 13.1501C21.4799 13.0801 21.5899 13.0101 21.7199 12.9601L21.7899 12.9301C22.1899 12.7501 22.3199 12.7101 22.3899 12.7901C22.6199 13.0801 22.8099 13.4201 22.9599 13.8101C23.0199 13.9701 22.5499 14.2301 22.4699 14.2601C22.0799 14.4201 21.9799 14.6201 22.0799 15.0301C22.1599 15.3801 22.1699 15.8001 22.0999 16.2101C22.0299 16.6301 22.0699 16.8901 22.5099 17.1001C22.7899 17.2301 22.9299 17.3101 22.9699 17.4401C23.0199 17.6001 22.9299 17.7701 22.7499 18.1001Z" fill="#C1B0A3"/>
<path d="M18.5601 13.4399C18.5401 13.4399 18.5301 13.4399 18.5101 13.4399C17.3101 13.4399 16.2901 14.4299 16.2601 15.6299C16.2501 16.2299 16.4701 16.8099 16.9001 17.2499C17.3301 17.6899 17.8901 17.9399 18.4901 17.9499C18.5001 17.9499 18.5101 17.9499 18.5201 17.9499C19.7301 17.9499 20.7301 16.9599 20.7501 15.7299C20.7701 14.4699 19.8101 13.4699 18.5601 13.4399ZM19.1301 16.3599C18.9701 16.5199 18.7501 16.6099 18.5101 16.6099C18.5001 16.6099 18.4901 16.6099 18.4801 16.6099C17.9601 16.5999 17.6101 16.2099 17.6201 15.6699C17.6201 15.3999 17.7101 15.1799 17.8701 15.0199C18.0201 14.8699 18.2401 14.7899 18.4901 14.7899C18.5001 14.7899 18.5101 14.7899 18.5201 14.7899C19.0601 14.7999 19.4101 15.1699 19.3901 15.7099C19.4001 15.9699 19.3001 16.1999 19.1301 16.3599Z" fill="#C1B0A3"/>
</g>
<defs>
<clipPath id="clip0_6356_40989">
<rect width="24.33" height="22.07" fill="white" transform="translate(0.179688)"/>
</clipPath>
</defs>
</svg>
