<svg width="23" height="22" viewBox="0 0 23 22" fill="none" xmlns="http://www.w3.org/2000/svg">
<g clip-path="url(#clip0_6356_40946)">
<path d="M5.1797 2.66001C4.0297 2.78001 2.3997 4.35001 2.5497 6.43001C2.6597 8.14001 4.0797 9.89001 6.2597 9.89001C6.2697 9.89001 6.2897 9.89001 6.2997 9.89001C7.2697 9.88001 8.3597 9.38001 9.0897 8.63001C9.5297 8.17001 9.7597 7.68001 9.7497 7.23001V7.10001L9.6097 7.09001C9.1297 7.04001 8.6397 6.99001 8.1997 7.63001C7.7197 8.33001 6.9097 8.70001 6.0497 8.62001C5.1597 8.54001 4.4097 8.01001 4.0397 7.21001C3.4897 6.00001 3.8797 4.75001 5.0197 4.04001C5.0897 4.00001 5.3097 3.85001 5.3297 3.65001C5.3597 3.45001 5.3497 3.24001 5.3497 3.04001C5.3497 2.96001 5.3497 2.88001 5.3497 2.81001V2.64001L5.1797 2.66001Z" fill="#C1B0A3"/>
<path d="M6.63941 2.15002C6.62941 2.15002 6.62941 2.15002 6.61941 2.15002C6.12941 2.15002 5.90941 2.38002 5.89941 2.86002C5.89941 3.19002 5.89941 3.52002 5.89941 3.85002V4.86002C5.89941 5.19002 5.89941 5.53002 5.89941 5.86002C5.89941 6.27002 6.12941 6.51002 6.52941 6.51002H7.18941C7.53941 6.51002 7.89941 6.51002 8.24941 6.51002C8.70941 6.51002 9.16941 6.51002 9.62941 6.51002C10.0194 6.51002 10.2394 6.27002 10.2594 5.86002C10.2894 4.94002 9.89941 4.00002 9.19941 3.28002C8.49941 2.57002 7.56941 2.15002 6.63941 2.15002ZM8.65941 5.26002C8.16941 5.26002 7.69941 5.26002 7.21941 5.25002C7.19941 5.24002 7.17941 5.22002 7.17941 5.24002C7.16941 4.76002 7.16941 4.29002 7.16941 3.81002V3.55002C7.50941 3.58002 7.86941 3.76002 8.17941 4.05002C8.54941 4.40002 8.80941 4.85002 8.86941 5.26002H8.65941Z" fill="#C1B0A3"/>
<path d="M4.26008 19.34H10.2101C10.2201 19.34 10.2401 19.34 10.2501 19.34C10.3001 19.34 10.3501 19.34 10.3901 19.33C10.6201 19.29 10.8101 19.16 10.9001 18.96C10.9901 18.77 10.9801 18.55 10.8601 18.36C10.6801 18.05 10.3401 18.05 10.2301 18.05H4.33008C4.18008 18.05 4.13008 18.03 4.13008 18.03C4.13008 18.02 4.10008 17.98 4.10008 17.81V16.39V12.83C4.10008 12.55 4.00008 12.39 3.91008 12.31C3.83008 12.23 3.69008 12.14 3.45008 12.14C3.08008 12.15 2.83008 12.43 2.83008 12.84V17.95C2.83008 18.25 2.91008 18.52 3.06008 18.74C3.32008 19.14 3.72008 19.34 4.26008 19.34Z" fill="#C1B0A3"/>
<path d="M6.9897 14.94L6.6897 14.65C6.3397 14.3 5.9997 14.3 5.6497 14.65L4.6197 15.68C4.5697 15.73 4.5097 15.8 4.4597 15.88C4.2897 16.16 4.3397 16.47 4.5797 16.69C4.8297 16.91 5.1297 16.91 5.3897 16.7C5.4397 16.66 5.4897 16.61 5.5697 16.53L6.1597 15.94L6.4797 16.26C6.6697 16.45 6.8697 16.64 7.0597 16.83C7.2497 17.01 7.4197 17.1 7.5897 17.1C7.7597 17.1 7.9397 17 8.1297 16.81L9.1997 15.75V15.83C9.1997 16.22 9.4397 16.49 9.8097 16.5C10.0497 16.49 10.1997 16.41 10.2897 16.33C10.3697 16.25 10.4797 16.1 10.4797 15.85C10.4897 15.31 10.4897 14.76 10.4797 14.22C10.4697 13.84 10.2097 13.58 9.8197 13.58C9.2797 13.57 8.7397 13.58 8.2097 13.58C7.8197 13.58 7.5497 13.84 7.5497 14.21C7.5497 14.57 7.8197 14.84 8.1897 14.86C8.2197 14.86 8.2597 14.86 8.2897 14.86C8.0597 15.09 7.8297 15.32 7.5897 15.57C7.3997 15.34 7.1997 15.14 6.9897 14.94Z" fill="#C1B0A3"/>
<path d="M15.1497 20.07C15.0397 20.26 14.8597 20.43 14.5997 20.54C14.3997 20.63 14.1597 20.68 13.9397 20.68C10.2597 20.69 6.57969 20.7 2.90969 20.68C1.94969 20.67 1.47969 20.13 1.46969 19.16C1.45969 16.45 1.46969 13.73 1.46969 11.02C1.46969 8.37 1.48969 5.72 1.45969 3.06C1.43969 1.75 2.10969 1.28 3.24969 1.28C4.80969 1.28 6.37969 1.29 7.93969 1.27C7.94969 1.27 7.95969 1.27 7.96969 1.27H9.14969C9.14969 1.27 9.46969 1.28 9.77969 1.43C9.84969 1.47 9.91969 1.5 9.97969 1.55C9.98969 1.55 9.99969 1.56 9.99969 1.57C11.0997 2.38 15.0897 6.42 15.2297 6.89C15.2297 6.89 15.3897 7.25 15.3797 8.71C15.3797 8.95 15.3797 9.18 15.3797 9.42C15.7997 9.37 16.2297 9.37 16.6497 9.43C16.6497 8.76 16.6497 8.09 16.6497 7.41C16.6497 6.65 16.4097 5.97 15.8497 5.42C14.3297 3.91 12.8097 2.4 11.2997 0.87C10.7297 0.27 10.0297 0 9.20969 0C7.17969 0 5.15969 0 3.13969 0C1.33969 0 0.179688 1.16 0.179688 2.97C0.179688 5.64 0.179688 8.3 0.179688 10.97C0.179688 13.67 0.179688 16.36 0.179688 19.06C0.179688 20.88 1.30969 22 3.13969 22C6.64969 22 10.1597 22 13.6697 22C15.1297 22 16.1297 21.31 16.4997 20.11C16.3197 20.13 16.1497 20.14 15.9697 20.14C15.6897 20.14 15.4197 20.11 15.1497 20.07Z" fill="#C1B0A3"/>
<path d="M22.1593 20.12C21.8093 19.76 21.4593 19.41 21.1093 19.05L19.4993 17.42C19.5193 17.39 19.5293 17.37 19.5493 17.35C20.3293 16.28 20.5693 15.06 20.2693 13.73C20.0093 12.56 19.2493 11.55 18.1993 10.95C17.1293 10.34 15.8493 10.2 14.6793 10.57C12.5293 11.25 11.2393 13.51 11.7393 15.7C12.1893 17.69 13.9693 19.13 15.9793 19.13C16.9693 19.13 17.8393 18.85 18.5793 18.3C18.6793 18.23 18.6993 18.24 18.7793 18.31C19.0493 18.59 19.3193 18.85 19.5893 19.12L19.9893 19.52C20.4493 19.98 20.9093 20.43 21.3793 20.89C21.5193 21.03 21.6693 21.1 21.8193 21.1C21.9493 21.1 22.0693 21.05 22.1793 20.94C22.3093 20.82 22.3793 20.69 22.3793 20.54C22.3593 20.41 22.2993 20.27 22.1593 20.12ZM18.2893 17.06C17.6893 17.65 16.8793 17.98 16.0093 17.98C15.9993 17.98 15.9993 17.98 15.9893 17.98C14.1893 17.97 12.7993 16.58 12.7693 14.75C12.7693 13.89 13.1093 13.08 13.7193 12.47C14.3293 11.86 15.1293 11.53 15.9793 11.53H15.9893C17.7993 11.54 19.2193 12.95 19.2193 14.75C19.2293 15.64 18.8893 16.46 18.2893 17.06Z" fill="#C1B0A3"/>
<path d="M15.9999 12.38C15.6399 12.38 15.4199 12.62 15.4199 13.01C15.4199 13.39 15.4199 13.76 15.4199 14.14V14.98C15.4199 15.36 15.4199 15.74 15.4199 16.12C15.4199 16.24 15.4399 16.35 15.4699 16.45C15.5499 16.68 15.7499 16.82 15.9999 16.82C16.0199 16.82 16.0399 16.82 16.0599 16.82C16.3199 16.8 16.5099 16.62 16.5599 16.37C16.5799 16.27 16.5799 16.16 16.5799 16.02C16.5799 15.07 16.5799 14.12 16.5799 13.18C16.5799 13.08 16.5699 12.98 16.5599 12.88C16.5199 12.56 16.3099 12.38 15.9999 12.38Z" fill="#C1B0A3"/>
<path d="M18.2092 15.1701C18.2092 15.0901 18.2092 15.0201 18.2092 14.9401C18.2092 14.6901 18.2192 14.4201 18.1992 14.1601C18.1792 13.8701 17.9492 13.6801 17.6492 13.6801H17.6392C17.3292 13.6801 17.0892 13.9001 17.0892 14.2001C17.0692 14.8701 17.0692 15.5601 17.0892 16.3001C17.0992 16.5801 17.2992 16.7901 17.5892 16.8101C17.6092 16.8101 17.6292 16.8101 17.6492 16.8101C17.9092 16.8101 18.1192 16.6601 18.1892 16.4201C18.2192 16.3201 18.2292 16.2201 18.2292 16.1101C18.2292 15.9101 18.2292 15.7101 18.2292 15.5001V15.1701H18.2092Z" fill="#C1B0A3"/>
<path d="M14.3501 14.34H14.3401C14.0301 14.34 13.7801 14.59 13.7701 14.92C13.7601 15.07 13.7701 15.22 13.7701 15.37V15.58V15.75C13.7701 15.91 13.7701 16.06 13.7701 16.22C13.7801 16.57 14.0001 16.8 14.3201 16.81C14.3301 16.81 14.3301 16.81 14.3401 16.81C14.5001 16.81 14.6401 16.76 14.7401 16.66C14.8501 16.56 14.9101 16.41 14.9101 16.23C14.9201 15.77 14.9201 15.33 14.9101 14.9C14.9101 14.6 14.6601 14.35 14.3501 14.34Z" fill="#C1B0A3"/>
</g>
<defs>
<clipPath id="clip0_6356_40946">
<rect width="22.18" height="22" fill="white" transform="translate(0.179688)"/>
</clipPath>
</defs>
</svg>
