<svg width="22" height="22" viewBox="0 0 22 22" fill="none" xmlns="http://www.w3.org/2000/svg">
<path d="M1.37109 7.03125C1.37109 6.66881 1.66491 6.375 2.02734 6.375H19.0898C19.4523 6.375 19.7461 6.66881 19.7461 7.03125V7.34375C19.7461 7.70619 19.4523 8 19.0898 8H2.02734C1.66491 8 1.37109 7.70619 1.37109 7.34375V7.03125Z" fill="#9BA9B3"/>
<path d="M1.37109 10.5312C1.37109 10.1688 1.66491 9.875 2.02734 9.875H8.58984C8.95228 9.875 9.24609 10.1688 9.24609 10.5312V10.8438C9.24609 11.2062 8.95228 11.5 8.58984 11.5H2.02734C1.66491 11.5 1.37109 11.2062 1.37109 10.8438V10.5312Z" fill="#9BA9B3"/>
<path d="M1.37109 17.5312C1.37109 17.1688 1.66491 16.875 2.02734 16.875H3.33984C3.70228 16.875 3.99609 17.1688 3.99609 17.5312V17.8438C3.99609 18.2062 3.70228 18.5 3.33984 18.5H2.02734C1.66491 18.5 1.37109 18.2062 1.37109 17.8438V17.5312Z" fill="#9BA9B3"/>
<path d="M11.8711 17.5312C11.8711 17.1688 12.1649 16.875 12.5273 16.875H13.8398C14.2023 16.875 14.4961 17.1688 14.4961 17.5312V17.8438C14.4961 18.2062 14.2023 18.5 13.8398 18.5H12.5273C12.1649 18.5 11.8711 18.2062 11.8711 17.8438V17.5312Z" fill="#9BA9B3"/>
<path d="M6.62109 17.5312C6.62109 17.1688 6.91491 16.875 7.27734 16.875H8.58984C8.95228 16.875 9.24609 17.1688 9.24609 17.5312V17.8438C9.24609 18.2062 8.95228 18.5 8.58984 18.5H7.27734C6.91491 18.5 6.62109 18.2062 6.62109 17.8438V17.5312Z" fill="#9BA9B3"/>
<path d="M17.1211 17.5312C17.1211 17.1688 17.4149 16.875 17.7773 16.875H19.0898C19.4523 16.875 19.7461 17.1688 19.7461 17.5312V17.8438C19.7461 18.2062 19.4523 18.5 19.0898 18.5H17.7773C17.4149 18.5 17.1211 18.2062 17.1211 17.8438V17.5312Z" fill="#9BA9B3"/>
<path d="M11.8711 10.5312C11.8711 10.1688 12.1649 9.875 12.5273 9.875H19.0898C19.4523 9.875 19.7461 10.1688 19.7461 10.5312V10.8438C19.7461 11.2062 19.4523 11.5 19.0898 11.5H12.5273C12.1649 11.5 11.8711 11.2062 11.8711 10.8438V10.5312Z" fill="#9BA9B3"/>
<path d="M1.37109 3.625C1.37109 3.26256 1.66491 2.96875 2.02734 2.96875H19.0898C19.4523 2.96875 19.7461 3.26256 19.7461 3.625V3.9375C19.7461 4.29994 19.4523 4.59375 19.0898 4.59375H2.02734C1.66491 4.59375 1.37109 4.29994 1.37109 3.9375V3.625Z" fill="#9BA9B3"/>
<path d="M1.37109 14.0312C1.37109 13.6688 1.66491 13.375 2.02734 13.375H8.58984C8.95228 13.375 9.24609 13.6688 9.24609 14.0312V14.3438C9.24609 14.7062 8.95228 15 8.58984 15H2.02734C1.66491 15 1.37109 14.7062 1.37109 14.3438V14.0312Z" fill="#9BA9B3"/>
<path d="M11.8711 14.0312C11.8711 13.6688 12.1649 13.375 12.5273 13.375H19.0898C19.4523 13.375 19.7461 13.6688 19.7461 14.0312V14.3438C19.7461 14.7062 19.4523 15 19.0898 15H12.5273C12.1649 15 11.8711 14.7062 11.8711 14.3438V14.0312Z" fill="#9BA9B3"/>
</svg>
