<svg width="20" height="20" viewBox="0 0 20 20" fill="none" xmlns="http://www.w3.org/2000/svg">
<path fill-rule="evenodd" clip-rule="evenodd" d="M4.8538 0.625C4.8538 0.279822 4.58544 0 4.2544 0C3.92336 0 3.655 0.279822 3.655 0.625V1.25H2.4562C1.13204 1.25 0.0585938 2.36929 0.0585938 3.75V17.5C0.0585938 18.8807 1.13204 20 2.4562 20H16.8418C18.166 20 19.2394 18.8807 19.2394 17.5V3.75C19.2394 2.36929 18.166 1.25 16.8418 1.25H15.643V0.625C15.643 0.279822 15.3747 0 15.0436 0C14.7126 0 14.4442 0.279822 14.4442 0.625V1.25H4.8538V0.625ZM1.2574 3.75C1.2574 3.05964 1.79412 2.5 2.4562 2.5H16.8418C17.5039 2.5 18.0406 3.05964 18.0406 3.75V5H1.2574V3.75ZM1.2574 6.25H18.0406V17.5C18.0406 18.1904 17.5039 18.75 16.8418 18.75H2.4562C1.79412 18.75 1.2574 18.1904 1.2574 17.5V6.25ZM4.16877 8.57143H2.79871V10H4.16877V8.57143ZM6.90889 8.57143H5.53883V10H6.90889V8.57143ZM8.27895 8.57143H9.649V10H8.27895V8.57143ZM12.3891 8.57143H11.0191V10H12.3891V8.57143ZM13.7592 10V8.57143H15.1292V10H13.7592ZM4.16877 12.8571V11.4286H2.79871V12.8571H4.16877ZM5.53883 11.3728H6.90889V14.2857H5.53883V11.3728ZM9.649 11.3728H6.90889V12.8013H9.649V11.3728ZM11.0191 11.3728H12.3891V12.8013H11.0191V11.3728ZM15.1292 11.3728H13.7592V12.8013H15.1292V11.3728ZM13.7592 15.7143V14.2857H15.1292V15.7143H13.7592ZM12.3891 14.2857H11.0191V15.7143H12.3891V14.2857ZM8.27895 12.8013H9.649V15.7143H8.27895V12.8013ZM8.27895 14.2857H5.53883V15.7143H8.27895V14.2857ZM2.79871 14.2857H4.16877V15.7143H2.79871V14.2857Z" fill="#9BA9B3"/>
</svg>
