<svg width="35" height="34" viewBox="0 0 35 34" fill="none" xmlns="http://www.w3.org/2000/svg">
<path d="M11.1156 15.225C11.3556 15.295 11.6956 15.325 11.8056 15.495C11.8056 15.495 12.2556 15.785 12.6856 15.475C12.6856 15.475 13.1656 15.255 12.9656 14.535C12.8156 14.265 12.5856 14.135 12.2656 14.085C11.3456 13.935 11.3456 13.935 11.3456 13.015C11.3456 12.985 11.3456 12.955 11.3456 12.915C11.3556 12.145 11.3456 12.095 12.0656 11.975C12.6456 11.885 12.9456 11.625 13.1456 11.075C13.2956 10.645 13.6256 10.285 13.8756 9.89501C13.9656 9.75501 14.0356 9.59501 14.0956 9.48501C13.9756 9.13501 13.9056 8.83501 13.7856 8.55501C13.6556 8.27501 13.7456 8.09501 13.9956 7.96501C14.0556 7.93501 14.1056 7.89501 14.1556 7.86501C15.1456 7.25501 15.1256 7.26501 15.9756 8.04501C16.1556 8.21501 16.4756 8.28501 16.7356 8.31501C17.2456 8.36501 17.7656 8.30501 18.2656 8.35501C18.6356 8.39501 18.8856 8.30501 19.1356 8.01501C19.8156 7.23501 19.8656 7.24501 20.7456 7.79501C21.3556 8.17501 21.3956 8.19501 21.1356 8.85501C20.9556 9.39501 20.9656 9.82501 21.3956 10.285C21.6656 10.575 21.8356 10.995 21.9856 11.375C22.1156 11.705 22.3056 11.835 22.6356 11.905C23.8056 12.175 23.6856 11.835 23.7356 13.225C23.7556 13.765 23.5456 14.005 23.0556 14.055C22.6256 14.095 22.2956 14.235 22.0756 14.535C22.0156 14.655 21.8756 15.165 22.4756 15.525C22.4756 15.525 22.9156 15.685 23.2456 15.475C23.4856 15.275 23.7756 15.135 24.1956 15.145C24.2256 15.145 24.2556 15.125 24.2856 15.125C24.7056 15.035 24.9356 14.775 24.9456 14.355C24.9656 13.495 24.9556 12.635 24.9556 11.775C24.9556 11.265 24.7356 10.935 24.2056 10.885C23.4556 10.805 22.9256 10.465 22.6556 9.74501C22.6356 9.70501 22.5856 9.66501 22.5856 9.62501C22.5556 9.43501 22.4856 9.23501 22.5156 9.05501C22.5856 8.69501 22.7256 8.35501 22.8556 7.92501C22.7456 7.76501 22.6456 7.52501 22.4756 7.39501C21.9056 6.98501 21.3356 6.55501 20.7156 6.24501C19.5356 5.64501 19.5256 5.67501 18.5656 6.59501C18.4056 6.75501 18.1856 6.92501 17.9756 6.94501C17.2356 7.02501 16.5056 6.97501 16.0656 6.21501C16.0356 6.16501 15.9756 6.12501 15.9356 6.07501C15.7056 5.85501 15.4556 5.74501 15.1556 5.91501C14.3656 6.33501 13.5756 6.75501 12.8056 7.19501C12.2856 7.49501 12.1656 7.93501 12.3856 8.50501C12.4956 8.78501 12.6056 9.18501 12.4856 9.41501C12.1356 10.105 11.8356 10.915 10.8256 10.885C10.7756 10.885 10.7356 10.905 10.6856 10.925C10.3656 10.995 10.1656 11.175 10.1456 11.515C10.1056 12.365 10.0256 13.215 10.0656 14.055C10.1156 14.915 10.2356 14.975 11.1156 15.225Z" fill="#8F94AC"/>
<path d="M30.4654 16.525C29.9454 16.515 29.4254 16.525 28.9054 16.525C25.4854 16.525 22.0754 16.515 18.6554 16.535C18.2554 16.535 18.0954 16.425 18.1254 16.015C18.1454 15.815 18.1254 15.605 18.1254 15.405C18.7054 15.275 19.1854 14.955 19.5154 14.515C19.8154 14.115 19.9954 13.605 20.0054 13.025C20.0354 11.655 18.9354 10.545 17.5554 10.535C16.1454 10.525 15.0454 11.615 15.0354 13.015C15.0354 13.595 15.2254 14.105 15.5354 14.525C15.8554 14.945 16.3054 15.255 16.8454 15.395C16.8454 15.615 16.8454 15.835 16.8654 16.055C16.8954 16.435 16.7554 16.545 16.3754 16.545C14.4154 16.525 12.4554 16.535 10.4954 16.535C8.51545 16.535 6.54545 16.535 4.56545 16.535C4.02545 16.535 3.75545 16.775 3.77545 17.205C3.79545 17.605 4.05545 17.805 4.57545 17.805C6.21545 17.805 7.85545 17.815 9.49545 17.805C9.81545 17.805 9.97545 17.885 9.95545 18.245C9.93545 18.685 9.93545 19.135 9.95545 19.575C9.96545 19.885 9.84545 19.975 9.54545 19.965C8.85545 19.955 8.16545 19.955 7.47545 19.965C6.00545 19.975 5.17545 20.735 5.11545 22.195C5.07545 23.445 5.07545 24.705 5.11545 25.965C5.15545 27.265 5.92545 28.135 7.07545 28.145C9.43545 28.175 11.7954 28.175 14.1554 28.145C15.2254 28.135 16.0454 27.315 16.0754 26.235C16.1154 24.795 16.1154 23.355 16.0754 21.915C16.0554 20.885 15.3354 20.115 14.2954 20.025C13.4254 19.945 12.5554 19.965 11.6854 19.965C11.3854 19.965 11.2754 19.875 11.2854 19.565C11.3054 19.215 11.2854 18.865 11.2854 18.505C11.2854 17.795 11.2854 17.795 11.9654 17.795C14.0454 17.795 16.1354 17.795 18.2154 17.795C19.8954 17.795 21.5854 17.805 23.2654 17.785C23.6254 17.785 23.7655 17.895 23.7455 18.265C23.7255 18.695 23.7255 19.125 23.7455 19.555C23.7555 19.855 23.6355 19.965 23.3454 19.955C22.6255 19.945 21.9054 19.945 21.1854 19.955C19.8654 19.965 19.0454 20.595 18.9654 21.895C18.8654 23.385 18.8954 24.895 18.9754 26.385C19.0354 27.435 19.8254 28.125 20.8754 28.135C23.2354 28.165 25.5954 28.155 27.9555 28.125C28.9755 28.115 29.7854 27.355 29.8254 26.335C29.8854 24.825 29.8754 23.305 29.8254 21.795C29.7854 20.815 29.0754 20.105 28.0954 20.025C27.2155 19.955 26.3254 19.965 25.4354 19.965C25.1554 19.965 25.0454 19.875 25.0554 19.595C25.0754 19.155 25.0754 18.705 25.0554 18.265C25.0354 17.885 25.1855 17.795 25.5355 17.805C27.1755 17.815 28.8155 17.815 30.4555 17.815C30.9755 17.815 31.2254 17.615 31.2254 17.185C31.2354 16.755 30.9854 16.535 30.4654 16.525ZM13.9454 21.295C14.5554 21.295 14.7854 21.505 14.7854 22.125C14.7954 23.425 14.7954 24.725 14.7854 26.035C14.7854 26.595 14.5254 26.835 13.9555 26.835C11.7155 26.835 9.48545 26.835 7.24545 26.835C6.68545 26.835 6.42545 26.595 6.42545 26.025C6.41545 24.705 6.41545 23.395 6.42545 22.075C6.43545 21.535 6.69545 21.305 7.22545 21.295C8.35545 21.295 9.49545 21.295 10.6254 21.295C11.7454 21.295 12.8454 21.295 13.9454 21.295ZM16.3954 13.025C16.3854 12.435 16.9455 11.885 17.5355 11.895C18.1555 11.905 18.6255 12.375 18.6355 12.995C18.6355 13.645 18.1554 14.125 17.5154 14.115C16.9154 14.105 16.4054 13.605 16.3954 13.025ZM27.7254 21.295C28.3354 21.295 28.5655 21.495 28.5655 22.115C28.5755 23.405 28.5755 24.685 28.5655 25.975C28.5555 26.625 28.3354 26.825 27.7055 26.835C25.5054 26.835 23.2955 26.835 21.0954 26.835C20.4555 26.835 20.2354 26.625 20.2254 25.985C20.2154 24.695 20.2154 23.415 20.2254 22.125C20.2254 21.515 20.4654 21.295 21.0554 21.295C22.1854 21.295 23.3255 21.295 24.4555 21.295C25.5555 21.295 26.6454 21.295 27.7254 21.295Z" fill="#8F94AC"/>
</svg>
