<svg width="18" height="18" viewBox="0 0 18 18" fill="none" xmlns="http://www.w3.org/2000/svg">
<path d="M8.90715 2.26788C8.96676 2.24404 9.03325 2.24404 9.09285 2.26788L10.7306 2.92297L5.25 5.11519L3.51944 4.42297L8.90715 2.26788ZM14.4806 4.42297L9 6.61519L7.26944 5.92297L12.75 3.73074L14.4806 4.42297ZM9.75 15.3152V7.93074L15.75 5.53074V12.9152L9.75 15.3152ZM2.25 5.53074L8.25 7.93074V15.3152L2.25 12.9152V5.53074ZM9.64993 0.875166C9.23271 0.708278 8.76729 0.708278 8.35007 0.875166L1.22146 3.72661C0.936713 3.84051 0.75 4.11629 0.75 4.42297V13.0845C0.75 13.5956 1.06119 14.0552 1.53576 14.245L8.72146 17.1193C8.90027 17.1908 9.09974 17.1908 9.27854 17.1193L16.4642 14.245C16.9388 14.0552 17.25 13.5956 17.25 13.0845V4.42297C17.25 4.11629 17.0633 3.84051 16.7785 3.72661L9.64993 0.875166Z" fill="#FFA133" stroke="#FFA133" stroke-width="0.5"/>
</svg>
