<svg width="34" height="34" viewBox="0 0 34 34" fill="none" xmlns="http://www.w3.org/2000/svg">
<path d="M27.9947 18.0248C27.8147 18.0248 27.6447 18.0248 27.4647 18.0248C27.4747 17.9748 27.4947 17.9348 27.4947 17.8748C27.4947 17.1848 27.5347 16.4848 27.4647 15.7948C27.0747 11.6348 24.3148 8.35477 20.3147 7.20477C20.1447 7.15477 19.9548 6.99477 19.8748 6.83477C19.4748 6.07477 18.8647 5.65477 17.9948 5.63477C17.1147 5.63477 16.2347 5.63477 15.3647 5.64477C14.5247 5.65477 13.9148 6.04477 13.5148 6.80477C13.4248 6.97477 13.2248 7.15477 13.0448 7.20477C8.38475 8.59477 5.45475 12.6148 5.86475 17.8648C5.86475 17.9248 5.88475 17.9648 5.89475 18.0148C5.71475 18.0148 5.53475 18.0148 5.34475 18.0148C4.57475 18.0148 4.34475 18.3248 4.56475 19.0648C4.59475 19.1548 4.64475 19.2248 4.67475 19.3048H6.30475C13.2048 19.3048 20.1047 19.3048 27.1347 19.3048H28.6247C28.6647 19.2048 28.7147 19.1148 28.7447 19.0148C28.9647 18.2648 28.7847 18.0248 27.9947 18.0248ZM7.08475 18.0248C7.09475 17.9748 7.11475 17.9148 7.11475 17.8548C7.12475 17.4448 7.10475 17.0348 7.11475 16.6348C7.19475 13.5848 8.48475 11.1948 11.0247 9.53477C11.6947 9.09477 12.4547 8.81477 13.2747 8.41477C13.2948 8.71477 13.3147 8.86477 13.3147 9.00477C13.3147 9.53477 13.3147 10.0648 13.3147 10.5848C13.3147 12.5048 13.3147 14.4148 13.3147 16.3348C13.3147 16.9248 13.6548 17.2248 14.1748 17.0548C14.5848 16.9248 14.6147 16.5648 14.6147 16.2048C14.6147 13.3948 14.6147 10.5948 14.6147 7.78477C14.6147 7.15477 14.8247 6.94477 15.4548 6.93477C16.2248 6.92477 16.9948 6.93477 17.7648 6.93477C18.5448 6.93477 18.7347 7.12477 18.7347 7.89477C18.7347 10.5948 18.7347 13.2948 18.7347 15.9948C18.7347 16.1848 18.7548 16.3848 18.7847 16.5748C18.8348 16.8948 19.0147 17.0848 19.3647 17.0748C19.7148 17.0648 19.9447 16.9148 19.9948 16.5548C20.0247 16.3148 20.0448 16.0748 20.0548 15.8348C20.0548 13.5848 20.0548 11.3348 20.0548 9.08477C20.0548 8.91477 20.0747 8.73477 20.0848 8.53477C20.2148 8.56477 20.2847 8.56477 20.3547 8.58477C23.7347 9.66477 26.1447 12.6348 26.2247 16.4848C26.2347 16.9548 26.2147 17.4248 26.2447 17.8848C26.2447 17.9248 26.2647 17.9648 26.2747 18.0048C23.0747 18.0048 19.8748 18.0048 16.6847 18.0048C13.4747 18.0248 10.2847 18.0248 7.08475 18.0248Z" fill="#8F94AC"/>
<path d="M23.8645 21.2447C23.6145 21.0147 23.3445 20.7447 23.3045 20.4547C23.2945 20.4047 23.2945 20.3547 23.2845 20.3147H22.0245C21.9845 21.0547 22.2545 21.5947 22.8345 21.9947C23.1445 22.2047 23.1945 22.5247 22.9745 22.8547C22.9445 22.9047 22.9145 22.9647 22.8845 23.0247C22.8645 23.0647 22.8545 23.0947 22.8345 23.1247C22.2245 24.2847 22.1245 24.3347 20.8945 23.9147C20.6245 23.8247 20.4445 23.8547 20.1945 24.0247C19.6945 24.3647 19.1945 24.6947 18.6545 24.9347C18.2545 25.1147 18.0745 25.3447 18.0045 25.7647C17.8245 26.7947 17.7545 26.8647 16.7145 26.8647C16.6945 26.8647 16.6845 26.8647 16.6645 26.8647H16.6045C15.6045 26.8547 15.4745 26.8147 15.3245 25.8147C15.2545 25.3347 15.0545 25.0847 14.5745 24.8947C14.2445 24.7647 13.8245 24.5747 13.5045 24.2847C13.0145 23.8347 12.5345 23.7647 11.9245 24.0647C11.6845 24.1847 11.4645 24.2047 11.2745 24.1447C11.0845 24.0747 10.9245 23.9247 10.7945 23.6747C10.7845 23.6547 10.7645 23.6347 10.7545 23.6047L10.7145 23.5547C10.0445 22.4647 10.0545 22.3747 10.9445 21.5147C11.2045 21.2647 11.2945 21.0147 11.2745 20.6347C11.2945 20.5247 11.2945 20.4147 11.2945 20.3047H10.0345C9.95447 20.8647 9.68447 21.2447 9.19447 21.5147C9.18447 21.5247 9.16447 21.5447 9.14447 21.5647C9.12447 21.5947 9.09447 21.6147 9.07447 21.6447C8.83447 21.8547 8.78447 22.0947 8.90447 22.4547C9.20447 23.3947 9.70447 24.2747 10.4945 25.2347C10.7345 25.5247 11.0045 25.6047 11.3945 25.5047C11.4945 25.4747 11.5945 25.4447 11.7045 25.4047C11.8545 25.3547 12.0145 25.3047 12.1745 25.2647C12.4445 25.2047 12.6445 25.2247 12.7845 25.2947L12.9045 25.3647C13.6545 25.7647 14.5145 26.2247 14.4945 27.3747V27.3647C14.4945 27.3647 14.5045 27.3747 14.5045 27.3947C14.5545 27.7247 14.7245 27.8947 15.0345 27.8947C16.1645 27.9247 17.1645 27.9347 18.0745 27.9347C18.5945 27.9347 18.8745 27.6647 18.9845 27.0647L18.9945 26.9947C19.0545 26.6447 19.1345 26.2147 19.3945 26.0547C19.5045 25.9847 19.6245 25.9047 19.7345 25.8247C20.3245 25.4047 20.9845 24.9347 21.9045 25.4747C22.2745 25.6947 22.6645 25.5747 22.9145 25.1747C23.0245 25.0047 23.1245 24.8447 23.2345 24.6747C23.5945 24.1147 23.9645 23.5447 24.2645 22.9547C24.7145 22.0147 24.6445 21.9547 23.8645 21.2447Z" fill="#8F94AC"/>
<path d="M16.6847 22.4349C17.9847 22.4149 19.0047 21.5549 19.2347 20.3149H17.9547C17.7647 20.8549 17.2847 21.1849 16.6747 21.2049C16.6647 21.2049 16.6447 21.2049 16.6347 21.2049C16.0847 21.2049 15.5847 20.8449 15.3747 20.3149H14.1147C14.3447 21.5649 15.3847 22.4449 16.6547 22.4449C16.6647 22.4349 16.6747 22.4349 16.6847 22.4349Z" fill="#8F94AC"/>
</svg>
