<svg width="13" height="32" viewBox="0 0 13 32" fill="none" xmlns="http://www.w3.org/2000/svg">
<path fill-rule="evenodd" clip-rule="evenodd" d="M12.5846 16.5575C12.5671 16.7292 12.489 16.8906 12.3623 17.0137L1.7291 27.347C1.42771 27.6399 0.93905 27.6399 0.637656 27.347C0.50295 27.2161 0.428449 27.0488 0.414155 26.8777C0.428469 27.0488 0.502981 27.216 0.637662 27.3469C0.939055 27.6398 1.42771 27.6398 1.72911 27.3469L12.3624 17.0136C12.489 16.8905 12.5671 16.7291 12.5846 16.5575ZM10.7251 16.4833L0.637656 6.68033C0.488729 6.5356 0.413391 6.34645 0.411641 6.15677C0.413416 6.34641 0.488761 6.53553 0.637662 6.68023L10.7252 16.4832L10.7251 16.4833ZM0.346604 6.96317L10.1431 16.4833L0.346603 26.0035C-0.115534 26.4526 -0.115534 27.1807 0.346604 27.6298C0.808742 28.0789 1.55801 28.0789 2.02015 27.6298L12.6534 17.2965C12.8753 17.0808 13 16.7883 13 16.4833C13 16.1783 12.8753 15.8858 12.6534 15.6702L2.02015 5.33683C1.55802 4.88772 0.808741 4.88772 0.346604 5.33683C-0.115534 5.78593 -0.115534 6.51407 0.346604 6.96317Z" fill="#9BA9B3"/>
</svg>
