<svg width="17" height="16" viewBox="0 0 17 16" fill="none" xmlns="http://www.w3.org/2000/svg">
<path d="M9.55859 0C9.83474 0 10.0586 0.223858 10.0586 0.5C10.0586 0.776142 10.2825 1 10.5586 1C10.8347 1 11.0586 1.22386 11.0586 1.5V2C11.0586 2.27614 10.8347 2.5 10.5586 2.5H5.55859C5.28245 2.5 5.05859 2.27614 5.05859 2V1.5C5.05859 1.22386 5.28245 1 5.55859 1C5.83474 1 6.05859 0.776142 6.05859 0.5C6.05859 0.223858 6.28245 0 6.55859 0H9.55859Z" fill="#007BEC"/>
<path d="M3.05859 2.5C3.05859 2.22386 3.28245 2 3.55859 2H4.05859C4.33474 2 4.55859 1.77614 4.55859 1.5C4.55859 1.22386 4.33474 1 4.05859 1H3.55859C2.73017 1 2.05859 1.67157 2.05859 2.5V14.5C2.05859 15.3284 2.73017 16 3.55859 16H12.5586C13.387 16 14.0586 15.3284 14.0586 14.5V2.5C14.0586 1.67157 13.387 1 12.5586 1H12.0586C11.7825 1 11.5586 1.22386 11.5586 1.5C11.5586 1.77614 11.7825 2 12.0586 2H12.5586C12.8347 2 13.0586 2.22386 13.0586 2.5V14.5C13.0586 14.7761 12.8347 15 12.5586 15H3.55859C3.28245 15 3.05859 14.7761 3.05859 14.5V2.5Z" fill="#007BEC"/>
<path d="M8.05859 8.29289L6.91215 7.14645C6.71688 6.95118 6.4003 6.95118 6.20504 7.14645C6.00978 7.34171 6.00978 7.65829 6.20504 7.85355L7.35149 9L6.20504 10.1464C6.00978 10.3417 6.00978 10.6583 6.20504 10.8536C6.4003 11.0488 6.71688 11.0488 6.91215 10.8536L8.05859 9.70711L9.20504 10.8536C9.4003 11.0488 9.71689 11.0488 9.91215 10.8536C10.1074 10.6583 10.1074 10.3417 9.91215 10.1464L8.7657 9L9.91215 7.85355C10.1074 7.65829 10.1074 7.34171 9.91215 7.14645C9.71689 6.95118 9.4003 6.95118 9.20504 7.14645L8.05859 8.29289Z" fill="#007BEC"/>
</svg>
