<svg width="28" height="18" viewBox="0 0 28 18" fill="none" xmlns="http://www.w3.org/2000/svg">
<path fill-rule="evenodd" clip-rule="evenodd" d="M22.847 5.65527C22.4225 5.65527 22.0905 6.00946 22.0905 6.43114V12.4829H0V13.8277C0 14.4948 0.475031 15.0576 1.1062 15.157C1.20068 16.433 2.23224 17.4484 3.50431 17.4484C4.77121 17.4484 5.79954 16.4412 5.90123 15.1725H20.9996C21.1013 16.4412 22.1297 17.4484 23.3966 17.4484C24.6634 17.4484 25.6918 16.4412 25.7935 15.1725H26.1444C27.1759 15.1725 28 14.3089 28 13.2587V10.8131C28 10.3803 27.8578 9.95967 27.5955 9.62026L25.9681 7.5142C25.6171 7.05988 25.0835 6.7932 24.517 6.7932H23.6034V6.43114C23.6034 6.00946 23.2715 5.65527 22.847 5.65527ZM23.6034 12.4919V8.34493H24.517C24.6183 8.34493 24.7163 8.39252 24.7824 8.47807L26.4098 10.5841C26.4594 10.6483 26.4871 10.729 26.4871 10.8131V13.2587C26.4871 13.4655 26.3269 13.6208 26.1444 13.6208H25.4187C25.0269 12.9943 24.3672 12.559 23.6034 12.4919ZM2.61207 14.9656C2.61207 14.4446 3.01824 14.0346 3.50431 14.0346C3.99038 14.0346 4.39655 14.4446 4.39655 14.9656C4.39655 15.4866 3.99038 15.8967 3.50431 15.8967C3.01824 15.8967 2.61207 15.4866 2.61207 14.9656ZM22.5043 14.9656C22.5043 14.4446 22.9105 14.0346 23.3966 14.0346C23.8826 14.0346 24.2888 14.4446 24.2888 14.9656C24.2888 15.4866 23.8826 15.8967 23.3966 15.8967C22.9105 15.8967 22.5043 15.4866 22.5043 14.9656Z" fill="#FFA133"/>
<path fill-rule="evenodd" clip-rule="evenodd" d="M12.3438 8.05176H10.3438V10.0518H12.3438V8.05176ZM8.84375 6.55176V11.5518H13.8438V6.55176H8.84375Z" fill="#FFA133"/>
<path fill-rule="evenodd" clip-rule="evenodd" d="M6.28125 8.05176H4.28125V10.0518H6.28125V8.05176ZM2.78125 6.55176V11.5518H7.78125V6.55176H2.78125Z" fill="#FFA133"/>
<path fill-rule="evenodd" clip-rule="evenodd" d="M18.3438 8.05176H16.3438V10.0518H18.3438V8.05176ZM14.8438 6.55176V11.5518H19.8438V6.55176H14.8438Z" fill="#FFA133"/>
<path fill-rule="evenodd" clip-rule="evenodd" d="M15.3438 2.05176H13.3438V4.05176H15.3438V2.05176ZM11.8438 0.551758V5.55176H16.8438V0.551758H11.8438Z" fill="#FFA133"/>
<path fill-rule="evenodd" clip-rule="evenodd" d="M9.28125 2.05176H7.28125V4.05176H9.28125V2.05176ZM5.78125 0.551758V5.55176H10.7812V0.551758H5.78125Z" fill="#FFA133"/>
</svg>
