<svg width="19" height="18" viewBox="0 0 19 18" fill="none" xmlns="http://www.w3.org/2000/svg">
<g clip-path="url(#clip0_2132_37227)">
<path d="M9.48132 14.4691C7.06547 14.4691 4.65061 14.4782 2.23476 14.461C1.8245 14.4579 1.67252 14.5806 1.69636 15.0045C1.72516 15.5268 1.71225 16.0511 1.69735 16.5744C1.68146 17.1474 1.3457 17.5024 0.852993 17.5003C0.380154 17.4983 0.0155906 17.117 0.0126106 16.5562C0.00367032 14.1577 -0.0161969 11.7593 0.0225442 9.36087C0.0404247 8.24836 0.60664 7.38736 1.45497 6.69977C1.6596 6.53345 1.84437 6.28803 1.93576 6.03957C2.30727 5.02949 2.63309 4.00115 2.98673 2.98498C3.56089 1.33701 4.57909 0.551051 6.29462 0.524684C8.42836 0.492231 10.5631 0.494259 12.6968 0.523669C14.4044 0.545981 15.4673 1.36845 16.0405 3.02352C16.2779 3.70705 16.5223 4.38855 16.7348 5.08019C16.9782 5.87223 17.2633 6.58112 17.9736 7.12571C18.7007 7.68349 18.9858 8.57593 18.9908 9.50995C19.0047 11.8242 18.9997 14.1375 18.9937 16.4517C18.9917 17.0987 18.661 17.4943 18.1573 17.5014C17.6249 17.5085 17.302 17.1099 17.2971 16.4314C17.2941 15.9751 17.2703 15.5177 17.304 15.0644C17.3378 14.608 17.1977 14.4559 16.7269 14.46C14.312 14.4813 11.8972 14.4691 9.48132 14.4691ZM9.47834 12.6832C11.9101 12.6832 14.3408 12.6741 16.7726 12.6923C17.1868 12.6954 17.3199 12.5686 17.305 12.1477C17.2772 11.3547 17.303 10.5606 17.2951 9.76754C17.2832 8.54347 16.5322 7.77881 15.3332 7.7778C11.4462 7.77476 7.55917 7.77476 3.67215 7.7778C2.47614 7.77881 1.72119 8.54246 1.7053 9.76957C1.69437 10.5626 1.72218 11.3577 1.69536 12.1498C1.68046 12.5737 1.8245 12.6954 2.23376 12.6923C4.64862 12.6741 7.06348 12.6832 9.47834 12.6832ZM3.75261 5.97466C7.61678 5.97466 11.3916 5.97466 15.2657 5.97466C14.8693 4.9372 14.5236 3.9403 14.1054 2.97586C13.9157 2.53978 13.4895 2.31565 13.0058 2.31464C10.6743 2.30754 8.34392 2.30754 6.01251 2.31464C5.48801 2.31565 5.05391 2.57527 4.85325 3.0509C4.4569 3.98898 4.13009 4.9585 3.75261 5.97466Z" fill="#FFA133"/>
<path d="M5.2735 10.2297C5.27648 10.9355 4.80364 11.4294 4.13213 11.4213C3.4924 11.4142 2.99771 10.9162 2.98182 10.2672C2.96592 9.60089 3.4636 9.06746 4.11822 9.04819C4.76986 9.02791 5.27052 9.54005 5.2735 10.2297Z" fill="#FFA133"/>
<path d="M13.7252 10.2561C13.7192 9.56547 14.2059 9.04724 14.8625 9.04724C15.5132 9.04724 16.0248 9.57358 16.0238 10.2399C16.0228 10.9092 15.5053 11.4315 14.8506 11.4234C14.201 11.4153 13.7321 10.9285 13.7252 10.2561Z" fill="#FFA133"/>
</g>
<defs>
<clipPath id="clip0_2132_37227">
<rect width="19" height="17" fill="white" transform="translate(0 0.5)"/>
</clipPath>
</defs>
</svg>
