<svg width="24" height="24" viewBox="0 0 24 24" fill="none" xmlns="http://www.w3.org/2000/svg">
<path d="M11.75 22C13.1307 22 14.25 20.8807 14.25 19.5H9.25C9.25 20.8807 10.3693 22 11.75 22Z" fill="#515D64"/>
<path d="M12.9939 3.37379C12.998 3.33307 13 3.29177 13 3.25C13 2.55964 12.4404 2 11.75 2C11.0596 2 10.5 2.55964 10.5 3.25C10.5 3.29178 10.502 3.33308 10.5061 3.3738C7.65025 3.95056 5.50003 6.47417 5.50003 9.5C5.50003 10.872 4.875 17 3 18.25H20.5C18.625 17 18 10.872 18 9.5C18 6.47415 15.8498 3.95053 12.9939 3.37379Z" fill="#515D64"/>
</svg>
