<svg width="20" height="19" viewBox="0 0 20 19" fill="none" xmlns="http://www.w3.org/2000/svg">
<path d="M9.72092 0.574113C9.89385 0.475296 10.1061 0.475296 10.2791 0.574113L14.4978 2.98483C14.6731 3.08498 14.7812 3.27136 14.7812 3.47321V7.96821L18.7166 10.217C18.8918 10.3171 19 10.5035 19 10.7054V15.5268C19 15.7286 18.8918 15.915 18.7166 16.0152L14.4978 18.4259C14.3249 18.5247 14.1126 18.5247 13.9397 18.4259L10 16.1746L6.06033 18.4259C5.8874 18.5247 5.6751 18.5247 5.50217 18.4259L1.28342 16.0152C1.10816 15.915 1 15.7286 1 15.5268V10.7054C1 10.5035 1.10816 10.3171 1.28342 10.217L5.21875 7.96821V3.47321C5.21875 3.27136 5.32691 3.08498 5.50217 2.98483L9.72092 0.574113ZM5.78125 8.9425L2.69625 10.7054L5.78125 12.4682L8.86625 10.7054L5.78125 8.9425ZM9.4375 11.6746L6.34375 13.4425V16.9682L9.4375 15.2004V11.6746ZM10.5625 15.2004L13.6562 16.9682V13.4425L10.5625 11.6746V15.2004ZM11.1338 10.7054L14.2188 12.4682L17.3037 10.7054L14.2188 8.9425L11.1338 10.7054ZM13.6562 7.96821V4.4425L10.5625 6.21036V9.73607L13.6562 7.96821ZM9.4375 9.73607V6.21036L6.34375 4.4425V7.96821L9.4375 9.73607ZM6.91501 3.47321L10 5.23607L13.085 3.47321L10 1.71036L6.91501 3.47321ZM17.875 11.6746L14.7812 13.4425V16.9682L17.875 15.2004V11.6746ZM5.21875 16.9682V13.4425L2.125 11.6746V15.2004L5.21875 16.9682Z" fill="#FFA133" stroke="#FFA133" stroke-width="0.4" stroke-linejoin="round"/>
</svg>
