<svg width="17" height="16" viewBox="0 0 17 16" fill="none" xmlns="http://www.w3.org/2000/svg">
<path d="M14.8371 0.0847436C14.9755 0.177588 15.0586 0.333313 15.0586 0.5V8C15.0586 8.20445 14.9341 8.38831 14.7443 8.46424L14.5586 8C14.7443 8.46424 14.7444 8.46421 14.7443 8.46424L14.7417 8.46527L14.7355 8.46772L14.7127 8.47672C14.6929 8.48447 14.6642 8.49567 14.6273 8.50981C14.5536 8.53808 14.4473 8.57817 14.3154 8.62615C14.0518 8.72199 13.6843 8.84984 13.2681 8.97789C12.4528 9.22877 11.3901 9.5 10.5586 9.5C9.71187 9.5 9.01024 9.21926 8.40075 8.97538L8.3729 8.96424C7.73885 8.71062 7.19894 8.5 6.55859 8.5C5.85844 8.5 4.92018 8.72926 4.12114 8.97749C3.7293 9.09922 3.38444 9.22114 3.13768 9.31259C3.11004 9.32283 3.08366 9.33268 3.05859 9.3421V15.5C3.05859 15.7761 2.83474 16 2.55859 16C2.28245 16 2.05859 15.7761 2.05859 15.5V0.5C2.05859 0.223858 2.28245 0 2.55859 0C2.83474 0 3.05859 0.223858 3.05859 0.5V0.782252C3.2847 0.703141 3.55472 0.612675 3.84905 0.522111C4.66441 0.27123 5.72711 0 6.55859 0C7.39935 0 8.08249 0.276927 8.67956 0.518963C8.6941 0.524854 8.70858 0.530725 8.72301 0.53657C9.34443 0.788264 9.88641 1 10.5586 1C11.2587 1 12.197 0.770738 12.996 0.522511C13.3879 0.40078 13.7327 0.278864 13.9795 0.187412C14.1027 0.141742 14.2011 0.103813 14.2682 0.0774948C14.3018 0.0643394 14.3274 0.0540962 14.3445 0.0472503L14.3635 0.0395938L14.3679 0.0377929L14.3688 0.0374047M14.0586 1.22243C13.839 1.30036 13.5779 1.38888 13.2927 1.47749C12.4823 1.72926 11.4205 2 10.5586 2C9.67234 2 8.96648 1.7141 8.35516 1.46649L8.3476 1.46343C7.72049 1.20943 7.19738 1 6.55859 1C5.89008 1 4.95278 1.22877 4.14314 1.47789C3.7468 1.59984 3.39559 1.72199 3.14353 1.81365C3.11378 1.82446 3.08544 1.83485 3.05859 1.84475V8.27757C3.27819 8.19964 3.53925 8.11112 3.82447 8.02251C4.63491 7.77074 5.69665 7.5 6.55859 7.5C7.40532 7.5 8.10694 7.78074 8.71643 8.02462L8.74429 8.03576C9.37834 8.28938 9.91825 8.5 10.5586 8.5C11.2271 8.5 12.1644 8.27123 12.9741 8.02211C13.3704 7.90016 13.7216 7.77801 13.9737 7.68635C14.0034 7.67554 14.0317 7.66515 14.0586 7.65525V1.22243Z" fill="#FF3C3C"/>
</svg>
