<svg width="32" height="32" viewBox="0 0 32 32" fill="none" xmlns="http://www.w3.org/2000/svg">
<path d="M8.39428 4.32486C7.95601 3.76136 7.12304 3.70951 6.61826 4.21429L4.80889 6.02365C3.96281 6.86974 3.65177 8.0684 4.02143 9.11982C5.50591 13.3422 7.93627 17.3067 11.3148 20.6852C14.6933 24.0637 18.6578 26.4941 22.8802 27.9786C23.9316 28.3482 25.1303 28.0372 25.9763 27.1911L27.7857 25.3817C28.2905 24.877 28.2386 24.044 27.6751 23.6057L23.6393 20.4667C23.3514 20.2428 22.9766 20.1637 22.6228 20.2522L18.792 21.2099C17.7514 21.47 16.6507 21.1651 15.8923 20.4067L11.5933 16.1077C10.8349 15.3493 10.53 14.2486 10.7901 13.208L11.7478 9.37717C11.8363 9.02338 11.7572 8.64856 11.5333 8.36069L8.39428 4.32486ZM5.29835 2.89438C6.59705 1.59568 8.74012 1.7291 9.8677 3.17886L13.0067 7.2147C13.5827 7.95532 13.7863 8.91965 13.5587 9.8299L12.601 13.6608C12.4999 14.0652 12.6184 14.493 12.9132 14.7878L17.2122 19.0868C17.507 19.3816 17.9348 19.5001 18.3392 19.399L22.1701 18.4413C23.0804 18.2137 24.0447 18.4173 24.7853 18.9933L28.8211 22.1323C30.2709 23.2599 30.4043 25.403 29.1056 26.7017L27.2963 28.511C26.0017 29.8055 24.0655 30.3739 22.2611 29.7395C17.7807 28.1643 13.5752 25.5855 9.99486 22.0051C6.41454 18.4248 3.83566 14.2193 2.26047 9.73894C1.62606 7.93447 2.19448 5.99826 3.48899 4.70375L5.29835 2.89438Z" fill="#9BA9B3"/>
</svg>
