<svg width="24" height="24" viewBox="0 0 24 24" fill="none" xmlns="http://www.w3.org/2000/svg">
<path d="M11.9384 6.0157C11.9558 6.00605 11.9775 6 12.0015 6C12.0256 6 12.0473 6.00605 12.0647 6.0157C12.0797 6.02403 12.0995 6.03926 12.1194 6.07312L18.9763 17.7398C19.012 17.8005 19.0113 17.864 18.9785 17.9231C18.962 17.9528 18.9415 17.9724 18.9238 17.9833C18.909 17.9925 18.8901 18 18.8585 18H5.14459C5.11303 18 5.09404 17.9925 5.07932 17.9833C5.06163 17.9724 5.04106 17.9528 5.02461 17.9231C4.9918 17.864 4.99108 17.8005 5.02675 17.7398L11.8837 6.07312C11.9036 6.03926 11.9234 6.02403 11.9384 6.0157ZM12.9815 5.56642C12.5376 4.81119 11.4655 4.81119 11.0216 5.56642L4.16463 17.2331C3.70759 18.0107 4.25628 19 5.14459 19H18.8585C19.7468 19 20.2955 18.0107 19.8385 17.2331L12.9815 5.56642Z" fill="#FFA133"/>
<path d="M11.0015 16C11.0015 15.4477 11.4493 15 12.0015 15C12.5538 15 13.0015 15.4477 13.0015 16C13.0015 16.5523 12.5538 17 12.0015 17C11.4493 17 11.0015 16.5523 11.0015 16Z" fill="#FFA133"/>
<path d="M11.0995 9.99504C11.0462 9.46228 11.4646 9 12 9C12.5354 9 12.9538 9.46228 12.9005 9.99504L12.5498 13.5025C12.5215 13.7849 12.2838 14 12 14C11.7162 14 11.4785 13.7849 11.4502 13.5025L11.0995 9.99504Z" fill="#FFA133"/>
<path fill-rule="evenodd" clip-rule="evenodd" d="M12.7227 5.71765C12.3948 5.15974 11.6079 5.15974 11.28 5.71765L4.42309 17.3843C4.07814 17.9712 4.49878 18.6992 5.14442 18.6992H18.8583C19.504 18.6992 19.9246 17.9712 19.5797 17.3843L12.7227 5.71765ZM10.7628 5.41363C11.3226 4.46108 12.6801 4.46108 13.24 5.41363L20.0969 17.0803C20.666 18.0486 19.9893 19.2992 18.8583 19.2992H5.14442C4.01343 19.2992 3.3367 18.0486 3.90582 17.0803L10.7628 5.41363ZM12.0014 6.4639L18.6048 17.6992H5.39794L12.0014 6.4639ZM11.7925 5.75269C11.8554 5.71774 11.9274 5.69922 12.0014 5.69922C12.0753 5.69922 12.1473 5.71774 12.2102 5.75269C12.2717 5.78687 12.3307 5.84004 12.3779 5.92034L19.2348 17.587C19.3258 17.7419 19.3234 17.9186 19.2407 18.0679C19.2003 18.1406 19.1445 18.1986 19.0817 18.2375C19.0203 18.2756 18.9467 18.2992 18.8583 18.2992H5.14442C5.05603 18.2992 4.98244 18.2756 4.92109 18.2375C4.85823 18.1986 4.80243 18.1406 4.76208 18.0679C4.6793 17.9186 4.67692 17.7419 4.76794 17.587L11.6249 5.92033C11.6721 5.84005 11.731 5.78688 11.7925 5.75269ZM11.9998 9.29922C11.6419 9.29922 11.3622 9.60826 11.3978 9.96441L11.7486 13.4718C11.7615 13.6009 11.8701 13.6992 11.9998 13.6992C12.1295 13.6992 12.2382 13.6009 12.2511 13.4718L12.6018 9.96441C12.6374 9.60826 12.3578 9.29922 11.9998 9.29922ZM10.8008 10.0241C10.7299 9.31475 11.2869 8.69922 11.9998 8.69922C12.7127 8.69922 13.2698 9.31475 13.1988 10.0241L12.8481 13.5316C12.8045 13.9673 12.4378 14.2992 11.9998 14.2992C11.5619 14.2992 11.1951 13.9673 11.1516 13.5316L10.8008 10.0241ZM12.0014 15.2992C11.6148 15.2992 11.3014 15.6126 11.3014 15.9992C11.3014 16.3858 11.6148 16.6992 12.0014 16.6992C12.388 16.6992 12.7014 16.3858 12.7014 15.9992C12.7014 15.6126 12.388 15.2992 12.0014 15.2992ZM10.7014 15.9992C10.7014 15.2812 11.2834 14.6992 12.0014 14.6992C12.7193 14.6992 13.3014 15.2812 13.3014 15.9992C13.3014 16.7172 12.7193 17.2992 12.0014 17.2992C11.2834 17.2992 10.7014 16.7172 10.7014 15.9992Z" fill="#FFA133"/>
</svg>
