<svg width="12" height="16" viewBox="0 0 12 16" fill="none" xmlns="http://www.w3.org/2000/svg">
<path d="M8 0.5C8 0.223857 7.77614 0 7.5 0H4.5C4.22386 0 4 0.223857 4 0.5C4 0.776142 3.77614 1 3.5 1C3.22386 1 3 1.22386 3 1.5V2C3 2.27614 3.22386 2.5 3.5 2.5H8.5C8.77614 2.5 9 2.27614 9 2V1.5C9 1.22386 8.77614 1 8.5 1C8.22386 1 8 0.776142 8 0.5Z" fill="#80939D"/>
<path d="M2.08535 1H1.5C0.671573 1 0 1.67157 0 2.5V14.5C0 15.3284 0.671572 16 1.5 16H10.5C11.3284 16 12 15.3284 12 14.5V2.5C12 1.67157 11.3284 1 10.5 1H9.91465C9.96992 1.15639 10 1.32468 10 1.5V2C10 2.82843 9.32843 3.5 8.5 3.5H3.5C2.67157 3.5 2 2.82843 2 2V1.5C2 1.32468 2.03008 1.15639 2.08535 1ZM8.85355 7.85355L5.85355 10.8536C5.75979 10.9473 5.63261 11 5.5 11C5.36739 11 5.24021 10.9473 5.14645 10.8536L3.64645 9.35355C3.45118 9.15829 3.45118 8.84171 3.64645 8.64645C3.84171 8.45118 4.15829 8.45118 4.35355 8.64645L5.5 9.79289L8.14645 7.14645C8.34171 6.95118 8.65829 6.95118 8.85355 7.14645C9.04882 7.34171 9.04882 7.65829 8.85355 7.85355Z" fill="#80939D"/>
</svg>
