<svg width="24" height="24" viewBox="0 0 24 24" fill="none" xmlns="http://www.w3.org/2000/svg">
<path fill-rule="evenodd" clip-rule="evenodd" d="M12.5 1C9.57289 1 7.2 3.37289 7.2 6.3C7.2 8.85011 9.00061 10.979 11.4 11.4856V17.7C11.4 17.9474 11.4817 18.1758 11.6196 18.3595L8.89834 18.4837C8.7255 18.421 8.58342 18.3586 8.46934 18.3C8.85648 18.1011 9.47186 17.9062 10.2798 17.7723C10.8791 17.6731 11.2845 17.1067 11.1852 16.5074C11.0859 15.908 10.5196 15.5026 9.92023 15.6019C8.96648 15.7599 8.0904 16.0128 7.42047 16.3658C6.84639 16.6683 6 17.2758 6 18.3C6 19.0313 6.44635 19.5516 6.84349 19.8646C7.25449 20.1885 7.78107 20.4321 8.33377 20.6164C9.4506 20.9886 10.9235 21.2 12.5 21.2C14.0765 21.2 15.5494 20.9886 16.6662 20.6164C17.2189 20.4321 17.7455 20.1885 18.1565 19.8646C18.5537 19.5516 19 19.0313 19 18.3C19 17.2758 18.1536 16.6683 17.5795 16.3658C16.9096 16.0128 16.0335 15.7599 15.0798 15.6019C14.4804 15.5026 13.9141 15.908 13.8148 16.5074C13.7155 17.1067 14.1209 17.6731 14.7202 17.7723C15.3239 17.8723 15.82 18.0064 16.1938 18.1508L13.4369 18.2766C13.5403 18.1089 13.6 17.9114 13.6 17.7V11.4856C15.9994 10.979 17.8 8.85011 17.8 6.3C17.8 3.37289 15.4271 1 12.5 1ZM13.3463 18.4028C13.3794 18.363 13.4097 18.3208 13.4369 18.2766L11.6196 18.3595C11.6408 18.3879 11.6634 18.4152 11.6873 18.4413L8.95756 18.5047C8.93743 18.4977 8.91769 18.4907 8.89834 18.4837L7.89574 18.5294L8.95756 18.5047C8.981 18.5129 9.00497 18.5211 9.02947 18.5293C9.86707 18.8085 11.0942 19 12.5 19C13.9058 19 15.1329 18.8085 15.9705 18.5293C16.1721 18.4621 16.3375 18.3943 16.4702 18.3302L17.2201 18.3127L17.2893 18.3304C17.2943 18.3206 17.2968 18.3135 17.2982 18.3092C17.3 18.3032 17.3 18.3001 17.3 18.3001C17.3 18.3001 17.3 18.2981 17.2994 18.2956C17.2988 18.2929 17.2974 18.2874 17.2937 18.2789C17.2861 18.2614 17.2688 18.2307 17.2314 18.1882C17.2091 18.163 17.1817 18.1359 17.1487 18.1073L16.1938 18.1508C16.3203 18.1997 16.4328 18.2497 16.5307 18.3C16.5113 18.31 16.4911 18.32 16.4702 18.3302L13.3463 18.4028ZM13.3463 18.4028C13.1445 18.6455 12.8403 18.8 12.5 18.8C12.1781 18.8 11.8885 18.6617 11.6873 18.4413L13.3463 18.4028ZM9.4 6.3C9.4 4.58792 10.7879 3.2 12.5 3.2C14.2121 3.2 15.6 4.58792 15.6 6.3C15.6 8.01208 14.2121 9.4 12.5 9.4C10.7879 9.4 9.4 8.01208 9.4 6.3Z" fill="#FFA133"/>
</svg>
