<svg width="24" height="24" viewBox="0 0 24 24" fill="none" xmlns="http://www.w3.org/2000/svg">
<path d="M9 9.5C9.27614 9.5 9.5 9.72386 9.5 10V16C9.5 16.2761 9.27614 16.5 9 16.5C8.72386 16.5 8.5 16.2761 8.5 16V10C8.5 9.72386 8.72386 9.5 9 9.5Z" fill="#FF0000"/>
<path d="M11.5 9.5C11.7761 9.5 12 9.72386 12 10V16C12 16.2761 11.7761 16.5 11.5 16.5C11.2239 16.5 11 16.2761 11 16V10C11 9.72386 11.2239 9.5 11.5 9.5Z" fill="#FF0000"/>
<path d="M14.5 10C14.5 9.72386 14.2761 9.5 14 9.5C13.7239 9.5 13.5 9.72386 13.5 10V16C13.5 16.2761 13.7239 16.5 14 16.5C14.2761 16.5 14.5 16.2761 14.5 16V10Z" fill="#FF0000"/>
<path fill-rule="evenodd" clip-rule="evenodd" d="M18 7C18 7.55228 17.5523 8 17 8H16.5V17C16.5 18.1046 15.6046 19 14.5 19H8.5C7.39543 19 6.5 18.1046 6.5 17V8H6C5.44772 8 5 7.55228 5 7V6C5 5.44772 5.44772 5 6 5H9.5C9.5 4.44772 9.94772 4 10.5 4H12.5C13.0523 4 13.5 4.44772 13.5 5H17C17.5523 5 18 5.44772 18 6V7ZM7.61803 8L7.5 8.05902V17C7.5 17.5523 7.94772 18 8.5 18H14.5C15.0523 18 15.5 17.5523 15.5 17V8.05902L15.382 8H7.61803ZM6 7V6H17V7H6Z" fill="#FF0000"/>
</svg>
