<svg width="25" height="26" viewBox="0 0 25 26" fill="none" xmlns="http://www.w3.org/2000/svg">
<path d="M7.03125 5.1875C7.03125 3.03014 8.78014 1.28125 10.9375 1.28125C13.0949 1.28125 14.8438 3.03014 14.8438 5.1875V19.25C14.8438 20.5444 13.7944 21.5938 12.5 21.5938C11.2056 21.5938 10.1562 20.5444 10.1562 19.25V8.3125C10.1562 7.88103 10.506 7.53125 10.9375 7.53125C11.369 7.53125 11.7188 7.88103 11.7188 8.3125V19.25C11.7188 19.6815 12.0685 20.0312 12.5 20.0312C12.9315 20.0312 13.2812 19.6815 13.2812 19.25V5.1875C13.2812 3.89308 12.2319 2.84375 10.9375 2.84375C9.64308 2.84375 8.59375 3.89308 8.59375 5.1875V19.25C8.59375 21.4074 10.3426 23.1562 12.5 23.1562C14.6574 23.1562 16.4062 21.4074 16.4062 19.25V8.3125C16.4062 7.88103 16.756 7.53125 17.1875 7.53125C17.619 7.53125 17.9688 7.88103 17.9688 8.3125V19.25C17.9688 22.2703 15.5203 24.7188 12.5 24.7188C9.47969 24.7188 7.03125 22.2703 7.03125 19.25V5.1875Z" fill="#9BA9B3"/>
</svg>
