<svg width="40" height="40" viewBox="0 0 40 40" fill="none" xmlns="http://www.w3.org/2000/svg">
<circle cx="20" cy="20" r="20" fill="url(#paint0_linear_1284_5552)"/>
<path d="M12.4688 17.1562C12.9002 17.1562 13.25 17.506 13.25 17.9375V19.5C13.25 22.9518 16.0482 25.75 19.5 25.75C22.9518 25.75 25.75 22.9518 25.75 19.5V17.9375C25.75 17.506 26.0998 17.1562 26.5312 17.1562C26.9627 17.1562 27.3125 17.506 27.3125 17.9375V19.5C27.3125 23.5511 24.2292 26.882 20.2812 27.2739V30.4375H24.9688C25.4002 30.4375 25.75 30.7873 25.75 31.2188C25.75 31.6502 25.4002 32 24.9688 32H14.0312C13.5998 32 13.25 31.6502 13.25 31.2188C13.25 30.7873 13.5998 30.4375 14.0312 30.4375H18.7188V27.2739C14.7708 26.882 11.6875 23.5511 11.6875 19.5V17.9375C11.6875 17.506 12.0373 17.1562 12.4688 17.1562Z" fill="white"/>
<path d="M22.625 19.5C22.625 21.2259 21.2259 22.625 19.5 22.625C17.7741 22.625 16.375 21.2259 16.375 19.5V11.6875C16.375 9.96161 17.7741 8.5625 19.5 8.5625C21.2259 8.5625 22.625 9.96161 22.625 11.6875V19.5ZM19.5 7C16.9112 7 14.8125 9.09866 14.8125 11.6875V19.5C14.8125 22.0888 16.9112 24.1875 19.5 24.1875C22.0888 24.1875 24.1875 22.0888 24.1875 19.5V11.6875C24.1875 9.09867 22.0888 7 19.5 7Z" fill="white"/>
<defs>
<linearGradient id="paint0_linear_1284_5552" x1="20" y1="0" x2="20" y2="40" gradientUnits="userSpaceOnUse">
<stop stop-color="#FE8E46"/>
<stop offset="1" stop-color="#FF8A3A"/>
</linearGradient>
</defs>
</svg>
