<svg width="13" height="32" viewBox="0 0 13 32" fill="none" xmlns="http://www.w3.org/2000/svg">
<path fill-rule="evenodd" clip-rule="evenodd" d="M0.415386 16.5575C0.432928 16.7292 0.511012 16.8906 0.637655 17.0137L11.2709 27.347C11.5723 27.6399 12.061 27.6399 12.3623 27.347C12.4971 27.2161 12.5716 27.0488 12.5858 26.8777C12.5715 27.0488 12.497 27.216 12.3623 27.3469C12.0609 27.6398 11.5723 27.6398 11.2709 27.3469L0.637649 17.0136C0.51103 16.8905 0.432948 16.7291 0.415386 16.5575ZM2.27487 16.4833L12.3623 6.68033C12.5113 6.5356 12.5866 6.34645 12.5884 6.15677C12.5866 6.34641 12.5112 6.53553 12.3623 6.68023L2.27482 16.4832L2.27487 16.4833ZM12.6534 6.96317L2.85693 16.4833L12.6534 26.0035C13.1155 26.4526 13.1155 27.1807 12.6534 27.6298C12.1913 28.0789 11.442 28.0789 10.9798 27.6298L0.346603 17.2965C0.124677 17.0808 0 16.7883 0 16.4833C0 16.1783 0.124677 15.8858 0.346604 15.6702L10.9798 5.33683C11.442 4.88772 12.1913 4.88772 12.6534 5.33683C13.1155 5.78593 13.1155 6.51407 12.6534 6.96317Z" fill="#9BA9B3"/>
</svg>
