<svg width="24" height="24" viewBox="0 0 24 24" fill="none" xmlns="http://www.w3.org/2000/svg">
<path d="M3.33333 20H22.6667C23.4 20 24 19.4 24 18.6667C24 17.9333 23.4 17.3333 22.6667 17.3333H3.33333C2.6 17.3333 2 17.9333 2 18.6667C2 19.4 2.6 20 3.33333 20ZM3.33333 13.3333H22.6667C23.4 13.3333 24 12.7333 24 12C24 11.2667 23.4 10.6667 22.6667 10.6667H3.33333C2.6 10.6667 2 11.2667 2 12C2 12.7333 2.6 13.3333 3.33333 13.3333ZM2 5.33333C2 6.06667 2.6 6.66667 3.33333 6.66667H22.6667C23.4 6.66667 24 6.06667 24 5.33333C24 4.6 23.4 4 22.6667 4H3.33333C2.6 4 2 4.6 2 5.33333Z" fill="#434969"/>
</svg>
