<svg width="34" height="34" viewBox="0 0 34 34" fill="none" xmlns="http://www.w3.org/2000/svg">
<path d="M25.2359 13.4C25.2359 12.64 24.9959 11.96 24.4359 11.41C22.9159 9.9 21.3959 8.39 19.8859 6.86C19.2959 6.27 18.6059 6 17.7859 6C15.7659 6 13.7359 6 11.7159 6C9.91586 6 8.75586 7.16 8.75586 8.97C8.75586 11.64 8.75586 14.3 8.75586 16.97C8.75586 19.67 8.75586 22.36 8.75586 25.06C8.75586 26.88 9.88586 28 11.7159 28C15.2259 28 18.7359 28 22.2459 28C24.0859 28 25.2259 26.91 25.2359 25.08C25.2459 21.18 25.2459 17.29 25.2359 13.4ZM18.3359 7.91C18.3359 7.76 18.3559 7.62 18.3659 7.42C18.9659 7.64 23.6659 12.37 23.8159 12.88C23.6459 12.89 23.4759 12.92 23.3159 12.92C22.0259 12.92 20.7459 12.93 19.4559 12.92C18.5359 12.92 18.3359 12.72 18.3359 11.82C18.3259 10.51 18.3259 9.21 18.3359 7.91ZM23.9459 24.95C23.9459 25.59 23.8759 26.23 23.1859 26.54C22.9859 26.63 22.7459 26.68 22.5259 26.68C18.8459 26.69 15.1659 26.7 11.4959 26.68C10.5359 26.67 10.0659 26.13 10.0559 25.16C10.0459 22.45 10.0559 19.73 10.0559 17.02C10.0559 14.37 10.0759 11.72 10.0459 9.06C10.0259 7.74 10.6959 7.27 11.8359 7.27C13.3959 7.27 14.9659 7.28 16.5259 7.26C16.9659 7.25 17.0759 7.42 17.0659 7.83C17.0459 9.24 17.0559 10.65 17.0559 12.06C17.0559 13.36 17.9059 14.21 19.2159 14.22C20.6259 14.23 22.0359 14.23 23.4459 14.21C23.8059 14.21 23.9559 14.29 23.9559 14.69C23.9459 18.11 23.9559 21.53 23.9459 24.95Z" fill="#8F94AC"/>
<path d="M19.3857 22.19C17.8957 24.34 14.5757 23.98 13.4957 21.6C12.7757 20.02 13.1557 18.2 14.8757 17.13C15.0157 17.04 15.1757 16.89 15.1957 16.75C15.2457 16.39 15.2157 16.02 15.2157 15.65C13.8757 15.8 11.6957 17.74 11.8857 20.46C12.0457 22.82 13.9857 24.93 16.6957 24.9C18.8057 24.88 21.1357 23.06 21.0857 21.56C20.4157 21.49 19.8857 21.47 19.3857 22.19Z" fill="#8F94AC"/>
<path d="M17.1257 14.98C16.5957 14.98 16.3757 15.2 16.3657 15.73C16.3657 16.37 16.3657 17.02 16.3657 17.66C16.3657 18.35 16.3657 19.04 16.3657 19.73C16.3657 20.15 16.5557 20.4 16.9957 20.4C18.3757 20.4 19.7557 20.41 21.1357 20.4C21.5657 20.4 21.7557 20.15 21.7757 19.72C21.8457 17.25 19.6057 14.97 17.1257 14.98ZM17.8857 19.11C17.8057 19.11 17.6657 18.97 17.6557 18.9C17.6357 18.08 17.6457 17.26 17.6457 16.44C18.9457 16.39 20.2857 17.87 20.3257 19.12C19.5057 19.12 18.6957 19.13 17.8857 19.11Z" fill="#8F94AC"/>
</svg>
