<svg width="19" height="18" viewBox="0 0 19 18" fill="none" xmlns="http://www.w3.org/2000/svg">
<path d="M15.8086 1.125C16.4299 1.125 16.9336 1.62868 16.9336 2.25V11.25C16.9336 11.8713 16.4299 12.375 15.8086 12.375H5.02458C4.42785 12.375 3.85555 12.6121 3.43359 13.034L1.18359 15.284V2.25C1.18359 1.62868 1.68727 1.125 2.30859 1.125H15.8086ZM2.30859 0C1.06595 0 0.0585938 1.00736 0.0585938 2.25V16.642C0.0585938 17.1431 0.664485 17.3941 1.01884 17.0398L4.22909 13.8295C4.44007 13.6185 4.72622 13.5 5.02458 13.5H15.8086C17.0512 13.5 18.0586 12.4926 18.0586 11.25V2.25C18.0586 1.00736 17.0512 0 15.8086 0H2.30859Z" fill="#CDCDCD"/>
<path d="M3.43359 3.9375C3.43359 3.62684 3.68543 3.375 3.99609 3.375H14.1211C14.4318 3.375 14.6836 3.62684 14.6836 3.9375C14.6836 4.24816 14.4318 4.5 14.1211 4.5H3.99609C3.68543 4.5 3.43359 4.24816 3.43359 3.9375ZM3.43359 6.75C3.43359 6.43934 3.68543 6.1875 3.99609 6.1875H14.1211C14.4318 6.1875 14.6836 6.43934 14.6836 6.75C14.6836 7.06066 14.4318 7.3125 14.1211 7.3125H3.99609C3.68543 7.3125 3.43359 7.06066 3.43359 6.75ZM3.43359 9.5625C3.43359 9.25184 3.68543 9 3.99609 9H9.62109C9.93175 9 10.1836 9.25184 10.1836 9.5625C10.1836 9.87316 9.93175 10.125 9.62109 10.125H3.99609C3.68543 10.125 3.43359 9.87316 3.43359 9.5625Z" fill="#CDCDCD"/>
</svg>
