<svg width="25" height="20" viewBox="0 0 25 20" fill="none" xmlns="http://www.w3.org/2000/svg">
<g clip-path="url(#clip0_6356_40978)">
<path d="M22.4197 14.25C23.2997 14.25 23.9397 13.75 24.1897 12.89C24.2797 12.59 24.2897 12.24 24.2897 11.97C24.2997 8.33 24.2997 5.93 24.2897 2.29C24.2897 2.01 24.2797 1.65 24.1797 1.34C23.9197 0.47 23.2397 0 22.2197 0C20.5497 0 18.8897 0 17.2197 0H15.3397H13.3497C11.6897 0 10.0397 0 8.37973 0C7.29973 0 6.52973 0.58 6.38973 1.52C6.33973 1.88 6.34973 2.27 6.35973 2.64L6.36973 2.91C6.37973 3.24 6.56973 3.46 6.88973 3.5C7.26973 3.56 7.54973 3.4 7.63973 3.09C7.69973 2.87 7.69973 2.61 7.70973 2.37V2.3C7.71973 1.53 7.85973 1.39 8.59973 1.39C13.0797 1.39 17.5497 1.39 22.0297 1.39C22.7597 1.39 22.9097 1.54 22.9097 2.27V8.13C22.9097 9.44 22.9097 11.26 22.9097 12.11C22.9097 12.72 22.7197 12.9 22.1097 12.91C21.8897 12.91 21.6697 12.91 21.4597 12.91C21.1597 12.91 20.8597 12.91 20.5597 12.91H20.5097L20.4697 12.89H14.5597C14.4697 12.91 14.3697 12.92 14.2597 12.91C14.1797 12.9 14.0997 12.9 14.0097 12.9C13.9397 12.9 13.8697 12.9 13.7997 12.9C13.7297 12.9 13.6497 12.9 13.5797 12.9C13.2297 12.9 12.8097 13.02 12.7997 13.55C12.7997 13.75 12.8597 13.92 12.9697 14.04C13.0997 14.18 13.2997 14.25 13.5497 14.25C16.8297 14.27 19.5697 14.27 22.4197 14.25Z" fill="#C0B1A6"/>
<path d="M19.1895 10.47C18.0795 10.44 16.9095 10.44 15.7195 10.48C15.3295 10.49 15.0395 10.76 14.9795 11.19C14.9495 11.39 14.9395 11.6 14.9395 11.82H19.9795C19.9795 11.66 19.9795 11.51 19.9795 11.35C19.9595 10.85 19.6295 10.48 19.1895 10.47Z" fill="#C0B1A6"/>
<path d="M7.39976 13.56C7.12976 13.56 6.84976 13.56 6.57976 13.56C6.01976 13.57 5.42976 13.57 4.85976 13.55C2.74976 13.46 0.409756 15 0.189756 17.94C0.159756 18.36 0.239756 18.68 0.419756 18.88C0.609756 19.08 0.919756 19.18 1.33976 19.18C2.35976 19.18 3.36976 19.18 4.38976 19.18H6.08976H7.66976C8.74976 19.18 9.82976 19.18 10.9098 19.18C11.2798 19.18 11.5498 19.09 11.7198 18.92C11.8898 18.75 11.9798 18.47 11.9698 18.09C11.9598 15.56 9.94976 13.56 7.39976 13.56ZM1.56976 17.78L1.63976 17.53C1.99976 16.18 2.72976 15.36 3.81976 15.09C4.51976 14.92 5.24976 14.83 5.99976 14.83C6.74976 14.83 7.52976 14.91 8.31976 15.08C9.52976 15.33 10.4798 16.63 10.4798 17.58V17.78H1.56976Z" fill="#C0B1A6"/>
<path d="M6.12946 11.8199C8.10946 11.8099 9.54947 10.3399 9.54947 8.32994C9.54947 7.40994 9.18947 6.55994 8.53946 5.91994C7.88946 5.28994 7.03946 4.93994 6.12946 4.93994C6.10946 4.93994 6.08946 4.93994 6.06946 4.93994C4.09946 4.95994 2.63947 6.44994 2.64947 8.38994C2.66947 10.3899 4.12946 11.8099 6.12946 11.8199ZM4.66946 6.87994C5.06946 6.49994 5.58947 6.30994 6.11947 6.29994C7.25947 6.32994 8.19947 7.28994 8.17947 8.39994C8.16947 8.93994 7.93947 9.46994 7.53947 9.84994C7.13947 10.2299 6.63946 10.4399 6.10946 10.4399C6.09946 10.4399 6.08946 10.4399 6.06946 10.4399C4.90946 10.4199 4.00946 9.49994 4.02946 8.34994C4.02946 7.80994 4.26946 7.26994 4.66946 6.87994Z" fill="#C0B1A6"/>
<path d="M13.2295 17.8199V19.1899H14.5995V17.8199H13.2295Z" fill="#C0B1A6"/>
<path d="M17.7997 17.8199H16.4297V19.1899H17.7997V17.8199Z" fill="#C0B1A6"/>
<path d="M19.6299 17.8199V19.1899H20.9999V17.8199H19.6299Z" fill="#C0B1A6"/>
<path d="M22.9297 17.8199V19.1899H24.2997V17.8199H22.9297Z" fill="#C0B1A6"/>
<path d="M16.2401 16.91L16.2301 15.54H14.8701V16.91H16.2301H16.2401Z" fill="#C0B1A6"/>
<path d="M19.4393 15.54H18.0693V16.91H19.4393V15.54Z" fill="#C0B1A6"/>
<path d="M22.6395 15.54H21.2695V16.91H22.6395V15.54Z" fill="#C0B1A6"/>
</g>
<defs>
<clipPath id="clip0_6356_40978">
<rect width="24.12" height="19.19" fill="white" transform="translate(0.179688)"/>
</clipPath>
</defs>
</svg>
