<svg width="19" height="18" viewBox="0 0 19 18" fill="none" xmlns="http://www.w3.org/2000/svg">
<path d="M16.6844 0.0953366C16.8401 0.199787 16.9336 0.374978 16.9336 0.5625V9C16.9336 9.23001 16.7936 9.43684 16.58 9.52227L16.3711 9C16.58 9.52227 16.5801 9.52224 16.58 9.52227L16.5771 9.52342L16.5702 9.52618L16.5445 9.53631C16.5222 9.54503 16.4899 9.55762 16.4484 9.57353C16.3655 9.60534 16.2459 9.65044 16.0975 9.70441C15.801 9.81224 15.3875 9.95607 14.9193 10.1001C14.002 10.3824 12.8065 10.6875 11.8711 10.6875C10.9185 10.6875 10.1292 10.3717 9.44353 10.0973L9.41219 10.0848C8.69888 9.79945 8.09148 9.5625 7.37109 9.5625C6.58342 9.5625 5.52787 9.82042 4.62896 10.0997C4.18814 10.2366 3.80017 10.3738 3.52257 10.4767C3.49148 10.4882 3.46179 10.4993 3.43359 10.5099V17.4375C3.43359 17.7482 3.18175 18 2.87109 18C2.56043 18 2.30859 17.7482 2.30859 17.4375V0.5625C2.30859 0.25184 2.56043 0 2.87109 0C3.18175 0 3.43359 0.25184 3.43359 0.5625V0.880034C3.68796 0.791034 3.99173 0.68926 4.32286 0.587374C5.24014 0.305134 6.43567 0 7.37109 0C8.31694 0 9.08548 0.311543 9.75719 0.583833C9.77354 0.590461 9.78983 0.597065 9.80606 0.603641C10.5052 0.886796 11.1149 1.125 11.8711 1.125C12.6588 1.125 13.7143 0.86708 14.6132 0.587824C15.054 0.450877 15.442 0.313722 15.7196 0.210839C15.8583 0.15946 15.9689 0.116789 16.0444 0.0871816C16.0821 0.0723818 16.1111 0.0608582 16.1302 0.0531566L16.1516 0.044543L16.1566 0.042517L16.1576 0.0420803M15.8086 1.37524C15.5615 1.46291 15.2679 1.56249 14.947 1.66218C14.0352 1.94542 12.8408 2.25 11.8711 2.25C10.8741 2.25 10.08 1.92836 9.39223 1.6498L9.38373 1.64636C8.67822 1.36061 8.08973 1.125 7.37109 1.125C6.61901 1.125 5.56455 1.38237 4.6537 1.66263C4.20783 1.79982 3.81272 1.93723 3.52914 2.04035C3.49568 2.05252 3.4638 2.0642 3.43359 2.07534V9.31226C3.68064 9.22459 3.97433 9.12501 4.2952 9.02532C5.20695 8.74208 6.40141 8.4375 7.37109 8.4375C8.32366 8.4375 9.11299 8.75333 9.79866 9.02769L9.83 9.04023C10.5433 9.32555 11.1507 9.5625 11.8711 9.5625C12.6232 9.5625 13.6776 9.30513 14.5885 9.02487C15.0344 8.88768 15.4295 8.75026 15.713 8.64715C15.7465 8.63498 15.7784 8.6233 15.8086 8.61216V1.37524Z" fill="#CDCDCD"/>
</svg>
