<svg width="24" height="24" viewBox="0 0 24 24" fill="none" xmlns="http://www.w3.org/2000/svg">
<path fill-rule="evenodd" clip-rule="evenodd" d="M15.847 9C15.4225 9 15.0905 9.35419 15.0905 9.77586V15.8276H3V17.1724C3 17.8395 3.47503 18.4023 4.1062 18.5017C4.20068 19.7777 5.23224 20.7931 6.50431 20.7931C7.77121 20.7931 8.79954 19.786 8.90123 18.5172H13.9996C14.1013 19.786 15.1297 20.7931 16.3966 20.7931C17.6634 20.7931 18.6918 19.786 18.7935 18.5172H19.1444C20.1759 18.5172 21 17.6536 21 16.6034V14.1578C21 13.7251 20.8578 13.3044 20.5955 12.965L18.9681 10.8589C18.6171 10.4046 18.0835 10.1379 17.517 10.1379H16.6034V9.77586C16.6034 9.35419 16.2715 9 15.847 9ZM16.6034 15.8366V11.6897H17.517C17.6183 11.6897 17.7163 11.7372 17.7824 11.8228L19.4098 13.9289C19.4594 13.993 19.4871 14.0737 19.4871 14.1578V16.6034C19.4871 16.8102 19.3269 16.9655 19.1444 16.9655H18.4187C18.0269 16.339 17.3672 15.9038 16.6034 15.8366ZM5.61207 18.3103C5.61207 17.7893 6.01824 17.3793 6.50431 17.3793C6.99038 17.3793 7.39655 17.7893 7.39655 18.3103C7.39655 18.8314 6.99038 19.2414 6.50431 19.2414C6.01824 19.2414 5.61207 18.8314 5.61207 18.3103ZM15.5043 18.3103C15.5043 17.7893 15.9105 17.3793 16.3966 17.3793C16.8826 17.3793 17.2888 17.7893 17.2888 18.3103C17.2888 18.8314 16.8826 19.2414 16.3966 19.2414C15.9105 19.2414 15.5043 18.8314 15.5043 18.3103Z" fill="#FFA133"/>
<path fill-rule="evenodd" clip-rule="evenodd" d="M6.5 11.5H4.5V13.5H6.5V11.5ZM3 10V15H8V10H3Z" fill="#FFA133"/>
<path fill-rule="evenodd" clip-rule="evenodd" d="M12.5 11.5H10.5V13.5H12.5V11.5ZM9 10V15H14V10H9Z" fill="#FFA133"/>
<path fill-rule="evenodd" clip-rule="evenodd" d="M9.5 5.5H7.5V7.5H9.5V5.5ZM6 4V9H11V4H6Z" fill="#FFA133"/>
</svg>
