<svg width="24" height="24" viewBox="0 0 24 24" fill="none" xmlns="http://www.w3.org/2000/svg">
<path d="M6.3125 5C5.58763 5 5 5.58763 5 6.3125V16.375C5 16.8582 5.39175 17.25 5.875 17.25V6.3125C5.875 6.07088 6.07088 5.875 6.3125 5.875H17.25C17.25 5.39175 16.8582 5 16.375 5H6.3125Z" fill="#FF8A00"/>
<path d="M8.0625 6.75C7.33763 6.75 6.75 7.33763 6.75 8.0625V17.6875C6.75 18.4124 7.33763 19 8.0625 19H13.3876C13.7357 19 14.0695 18.8617 14.3156 18.6156L18.6156 14.3156C18.8617 14.0695 19 13.7357 19 13.3876V8.0625C19 7.33763 18.4124 6.75 17.6875 6.75H8.0625ZM7.625 8.0625C7.625 7.82088 7.82088 7.625 8.0625 7.625H17.6875C17.9291 7.625 18.125 7.82088 18.125 8.0625V12.875H14.1875C13.4626 12.875 12.875 13.4626 12.875 14.1875V18.125H8.0625C7.82088 18.125 7.625 17.9291 7.625 17.6875V8.0625ZM13.75 17.9438V14.1875C13.75 13.9459 13.9459 13.75 14.1875 13.75H17.9438L13.75 17.9438Z" fill="#FF8A00"/>
</svg>
