<svg width="24" height="24" viewBox="0 0 24 24" fill="none" xmlns="http://www.w3.org/2000/svg">
<path fill-rule="evenodd" clip-rule="evenodd" d="M15.2186 8.80005C14.8082 8.80005 14.4873 9.14243 14.4873 9.55005V15.4H2.7998V16.7C2.7998 17.3449 3.259 17.889 3.86913 17.985C3.96046 19.2185 4.95763 20.2 6.18731 20.2C7.41197 20.2 8.40603 19.2265 8.50432 18H13.4328C13.5311 19.2265 14.5251 20.2 15.7498 20.2C16.9745 20.2 17.9685 19.2265 18.0668 18H18.4061C19.4032 18 20.1998 17.1652 20.1998 16.15V13.7859C20.1998 13.3676 20.0623 12.961 19.8088 12.6329L18.2357 10.597C17.8963 10.1578 17.3805 9.90005 16.8329 9.90005H15.9498V9.55005C15.9498 9.14243 15.6289 8.80005 15.2186 8.80005ZM15.9498 15.4088V11.4H16.8329C16.9308 11.4 17.0256 11.4461 17.0895 11.5288L18.6626 13.5646C18.7105 13.6266 18.7373 13.7046 18.7373 13.7859V16.15C18.7373 16.3499 18.5825 16.5 18.4061 16.5H17.7045C17.3258 15.8945 16.6881 15.4737 15.9498 15.4088ZM5.32481 17.8C5.32481 17.2964 5.71744 16.9 6.18731 16.9C6.65717 16.9 7.04981 17.2964 7.04981 17.8C7.04981 18.3037 6.65717 18.7 6.18731 18.7C5.71744 18.7 5.32481 18.3037 5.32481 17.8ZM14.8873 17.8C14.8873 17.2964 15.2799 16.9 15.7498 16.9C16.2197 16.9 16.6123 17.2964 16.6123 17.8C16.6123 18.3037 16.2197 18.7 15.7498 18.7C15.2799 18.7 14.8873 18.3037 14.8873 17.8Z" fill="#FFA133"/>
<path fill-rule="evenodd" clip-rule="evenodd" d="M8.09983 3.80005C5.17271 3.80005 2.7998 6.17295 2.7998 9.10007C2.7998 12.0272 5.17271 14.4001 8.09983 14.4001C11.0269 14.4001 13.3999 12.0272 13.3999 9.10007C13.3999 6.17295 11.0269 3.80005 8.09983 3.80005ZM4.24422 9.10007C4.24422 6.97068 5.97044 5.24447 8.09983 5.24447C10.2292 5.24447 11.9554 6.97068 11.9554 9.10007C11.9554 11.2295 10.2292 12.9557 8.09983 12.9557C5.97044 12.9557 4.24422 11.2295 4.24422 9.10007ZM7.79464 5.63117C7.39577 5.63117 7.07243 5.95452 7.07243 6.35338V9.71045C7.07243 9.96962 7.2113 10.2089 7.43632 10.3375L9.57264 11.5583C9.91895 11.7561 10.3601 11.6358 10.558 11.2895C10.7559 10.9432 10.6356 10.502 10.2893 10.3041L8.51685 9.29133V6.35338C8.51685 5.95452 8.19351 5.63117 7.79464 5.63117Z" fill="#FFA133"/>
</svg>
