<svg width="25" height="26" viewBox="0 0 25 26" fill="none" xmlns="http://www.w3.org/2000/svg">
<path d="M23.4375 19.25C23.4375 20.1129 22.7379 20.8125 21.875 20.8125H3.125C2.26206 20.8125 1.5625 20.1129 1.5625 19.25V9.875C1.5625 9.01206 2.26205 8.3125 3.125 8.3125H4.95558C6.19879 8.3125 7.39107 7.81864 8.27015 6.93956L9.56456 5.64514C9.85759 5.35212 10.255 5.1875 10.6694 5.1875H14.3306C14.745 5.1875 15.1424 5.35212 15.4354 5.64515L16.7299 6.93956C17.6089 7.81864 18.8012 8.3125 20.0444 8.3125H21.875C22.7379 8.3125 23.4375 9.01206 23.4375 9.875V19.25ZM3.125 6.75C1.39911 6.75 0 8.14911 0 9.875V19.25C0 20.9759 1.39911 22.375 3.125 22.375H21.875C23.6009 22.375 25 20.9759 25 19.25V9.875C25 8.14911 23.6009 6.75 21.875 6.75H20.0444C19.2156 6.75 18.4208 6.42076 17.8347 5.83471L16.5403 4.54029C15.9542 3.95424 15.1594 3.625 14.3306 3.625H10.6694C9.84062 3.625 9.04576 3.95424 8.45971 4.54029L7.16529 5.83471C6.57924 6.42076 5.78438 6.75 4.95558 6.75H3.125Z" fill="#9BA9B3"/>
<path d="M12.5 17.6875C10.3426 17.6875 8.59375 15.9386 8.59375 13.7812C8.59375 11.6239 10.3426 9.875 12.5 9.875C14.6574 9.875 16.4062 11.6239 16.4062 13.7812C16.4062 15.9386 14.6574 17.6875 12.5 17.6875ZM12.5 19.25C15.5203 19.25 17.9688 16.8016 17.9688 13.7812C17.9688 10.7609 15.5203 8.3125 12.5 8.3125C9.47969 8.3125 7.03125 10.7609 7.03125 13.7812C7.03125 16.8016 9.47969 19.25 12.5 19.25Z" fill="#9BA9B3"/>
<path d="M4.6875 10.6562C4.6875 11.0877 4.33772 11.4375 3.90625 11.4375C3.47478 11.4375 3.125 11.0877 3.125 10.6562C3.125 10.2248 3.47478 9.875 3.90625 9.875C4.33772 9.875 4.6875 10.2248 4.6875 10.6562Z" fill="#9BA9B3"/>
</svg>
