<svg width="324" height="196" viewBox="0 0 324 196" fill="none" xmlns="http://www.w3.org/2000/svg">
<rect x="1.14355" y="1.81836" width="321" height="193" rx="9" stroke="#8698A1" stroke-opacity="0.25" stroke-width="2"/>
<path d="M242.56 64.7657V55.8184H103.168V116.959H242.56" stroke="#8698A1" stroke-opacity="0.25" stroke-width="2" stroke-linecap="round" stroke-linejoin="round"/>
<path d="M211.178 75.5771H262.264M192.568 90.4894H276.86M226.504 104.656H259.345" stroke="#8698A1" stroke-opacity="0.25" stroke-width="2" stroke-linecap="round" stroke-linejoin="round"/>
<path d="M209.632 129.261C209.632 135.112 204.995 139.818 199.32 139.818C193.645 139.818 189.008 135.112 189.008 129.261C189.008 123.411 193.645 118.704 199.32 118.704C204.995 118.704 209.632 123.411 209.632 129.261Z" stroke="#8698A1" stroke-opacity="0.25" stroke-width="2" stroke-linejoin="round"/>
<path d="M234.445 129.261C234.445 135.112 229.808 139.818 224.133 139.818C218.458 139.818 213.821 135.112 213.821 129.261C213.821 123.411 218.458 118.704 224.133 118.704C229.808 118.704 234.445 123.411 234.445 129.261Z" stroke="#8698A1" stroke-opacity="0.25" stroke-width="2" stroke-linejoin="round"/>
<path d="M135.192 129.261C135.192 135.112 130.555 139.818 124.88 139.818C119.205 139.818 114.568 135.112 114.568 129.261C114.568 123.411 119.205 118.704 124.88 118.704C130.555 118.704 135.192 123.411 135.192 129.261Z" stroke="#8698A1" stroke-opacity="0.25" stroke-width="2" stroke-linejoin="round"/>
<path d="M82.6462 129.261C82.6462 135.112 78.0093 139.818 72.3343 139.818C66.6593 139.818 62.0225 135.112 62.0225 129.261C62.0225 123.411 66.6593 118.704 72.3343 118.704C78.0093 118.704 82.6462 123.411 82.6462 129.261Z" stroke="#8698A1" stroke-opacity="0.25" stroke-width="2" stroke-linejoin="round"/>
<path d="M244.202 129.821H235.444M140.936 129.821H136.374M113.751 129.821H83.0991M60.6578 129.821H52.0827C50.1974 129.634 46.4268 127.733 46.4268 121.619V103.351L50.988 98.8776L54.8194 83.2197C55.0019 81.1071 56.8629 76.882 62.8472 76.882H88.9375V128.702" stroke="#8698A1" stroke-opacity="0.25" stroke-width="2" stroke-linecap="round" stroke-linejoin="round"/>
<path d="M69.9626 103.911H48.7985M51.7177 119.755H47.3389" stroke="#8698A1" stroke-opacity="0.25" stroke-width="2" stroke-linecap="round" stroke-linejoin="round"/>
</svg>
