<svg width="331" height="196" viewBox="0 0 331 196" fill="none" xmlns="http://www.w3.org/2000/svg">
<g opacity="0.25">
<rect x="1.64355" y="1.5" width="328" height="193" rx="9" stroke="#8698A1" stroke-width="2"/>
<line x1="30.6436" y1="167.486" x2="125.644" y2="167.486" stroke="#9BA9B3" stroke-width="2" stroke-linecap="round"/>
<line x1="207.644" y1="142" x2="302.644" y2="142" stroke="#9BA9B3" stroke-width="2" stroke-linecap="round"/>
<line x1="1" y1="-1" x2="96.0014" y2="-1" transform="matrix(0.999987 0.00512397 -0.00174638 0.999998 206.644 168)" stroke="#9BA9B3" stroke-width="2" stroke-linecap="round"/>
<line x1="30.1436" y1="33" x2="304.144" y2="33" stroke="#9BA9B3" stroke-width="2" stroke-linecap="round"/>
<line x1="30.1436" y1="58" x2="304.144" y2="58" stroke="#9BA9B3" stroke-width="2" stroke-linecap="round"/>
<path d="M54.1436 100.5C53.4928 100.572 53.2689 101.731 53.0324 102.222C51.257 105.91 50.0278 109.828 48.2269 113.5C45.808 118.432 43.6994 123.457 41.4491 128.472C40.5735 130.424 40.1493 132.492 38.8936 134.25" stroke="#9BA9B3" stroke-width="2" stroke-linecap="round"/>
<path d="M53.3936 101.75C54.4903 104.08 53.8029 107.708 53.9491 110.194C54.1151 113.017 54.1065 116.926 55.3936 119.5" stroke="#9BA9B3" stroke-width="2" stroke-linecap="round"/>
<path d="M65.6433 99.5C64.5455 100.354 64.0154 102.902 63.4072 104.139C61.9874 107.026 61.404 110.226 60.0322 113.111C59.2412 114.775 58.5284 116.48 57.7544 118.139C57.0503 119.648 57.1916 118.509 57.3933 117.5" stroke="#9BA9B3" stroke-width="2" stroke-linecap="round"/>
<path d="M66.3936 100C66.3936 106.025 66.0197 112.006 65.6714 118.014C65.5317 120.424 65.3936 122.835 65.3936 125.25C65.3936 126.742 65.5852 128.411 65.2547 129.875C65.1768 130.22 64.349 134.357 65.1714 134.444C66.1744 134.551 67.307 133.699 68.1158 133.25C69.8651 132.278 71.4225 131.265 72.7686 129.764C75.3107 126.93 77.7085 123.651 79.1019 120.083C80.5122 116.472 80.4063 111.952 80.5325 108.139C80.7688 100.998 80.0189 92.9215 74.7269 87.5278C70.8422 83.5683 65.3014 82.4387 60.1714 84.2778C56.5055 85.592 53.4031 87.8133 50.5047 90.375C44.6969 95.5082 39.8915 101.617 36.5603 108.639C35.052 111.818 32.7434 116.708 33.8658 120.389C35.8042 126.746 46.7985 125.822 51.5464 125.875C64.9701 126.024 78.416 125.307 91.8242 124.764C101.773 124.361 111.819 123.596 121.783 123.861C124.3 123.928 126.711 124.11 129.005 125.181C129.325 125.33 129.574 125.603 129.338 126C128.755 126.98 126.131 127.454 125.255 127.778C116.125 131.146 106.871 134.133 97.6436 137.222C76.3492 144.351 55.1959 151.899 33.8936 159" stroke="#9BA9B3" stroke-width="2" stroke-linecap="round"/>
</g>
</svg>
