<svg width="25" height="24" viewBox="0 0 25 24" fill="none" xmlns="http://www.w3.org/2000/svg">
<path d="M9.43286 10.8044C9.48827 10.4469 9.54026 10.1133 9.59156 9.77899C9.60319 9.70189 9.66339 9.66915 9.72222 9.63367C10.3481 9.26048 10.9905 8.91799 11.7073 8.75493C13.1261 8.43291 14.2705 9.22364 14.4402 10.6714C14.5667 11.7514 14.4135 12.8211 14.2096 13.8834C13.9298 15.3427 13.6521 16.8027 13.3908 18.2648C13.3128 18.7014 13.3176 19.1483 13.4154 19.5863C13.5071 19.9957 13.7711 20.2065 14.1898 20.2106C14.6324 20.2153 15.0373 20.0796 15.4587 19.8347C15.406 20.1962 15.3629 20.5067 15.313 20.8157C15.3007 20.8915 15.2966 20.9795 15.2172 21.0252C14.4723 21.4502 13.778 21.9824 12.8566 22.0001C11.4419 22.0274 10.5089 21.191 10.4117 19.7733C10.3386 18.6973 10.5308 17.6467 10.7148 16.5953C10.9631 15.1763 11.2114 13.7572 11.4501 12.3367C11.5124 11.9649 11.4823 11.5869 11.433 11.2151C11.3722 10.7498 11.1731 10.5663 10.7045 10.5049C10.4856 10.4762 10.2722 10.4967 10.0649 10.5677C9.86382 10.6373 9.66681 10.7164 9.43286 10.8044Z" fill="white"/>
<path d="M15.6443 2.9221C15.6504 4.04644 14.8391 4.85968 13.7097 4.86173C12.6153 4.86377 11.7185 4.0021 11.7178 2.94802C11.7171 1.88849 12.5988 1.01589 13.6865 1.0002C14.794 0.985191 15.6381 1.81344 15.6443 2.9221Z" fill="white"/>
</svg>
