<svg width="35" height="35" viewBox="0 0 35 35" fill="none" xmlns="http://www.w3.org/2000/svg">
<g clip-path="url(#clip0_6614_40246)">
<rect x="1.22852" y="1.15234" width="32" height="32" rx="5" fill="white"/>
<path d="M17.3303 24.7985C16.5148 24.7985 15.6993 24.8286 14.8855 24.7918C13.8809 24.7466 13.2663 24.1295 13.2579 23.2314C13.2495 22.3283 13.8573 21.748 14.8804 21.6828C16.2818 21.5941 16.2818 21.5941 16.2818 20.2328C16.2818 19.5922 16.2683 18.9517 16.2835 18.3112C16.2936 17.883 16.1096 17.7024 15.6774 17.7308C15.3971 17.7492 15.1151 17.7409 14.8349 17.7308C13.9079 17.6991 13.3322 17.1806 13.2663 16.3243C13.2005 15.4681 13.7053 14.7473 14.59 14.687C15.7635 14.6084 16.9521 14.6084 18.1255 14.6937C18.9647 14.7539 19.4189 15.3945 19.4357 16.3678C19.4644 17.8429 19.4644 19.3196 19.4391 20.7947C19.429 21.3466 19.5218 21.6543 20.1752 21.738C21.0042 21.8433 21.5074 22.5691 21.4432 23.3451C21.3791 24.1195 20.7949 24.7299 19.9439 24.7817C19.0761 24.8353 18.2015 24.7935 17.3303 24.7935C17.3303 24.7935 17.3303 24.7951 17.3303 24.7985Z" fill="#9BA9B3"/>
<path d="M17.3284 12.7283C16.0824 12.7233 15.2922 11.9323 15.2871 10.6863C15.2837 9.41192 16.0992 8.62254 17.4061 8.64094C18.6234 8.65766 19.4338 9.49554 19.4186 10.7231C19.4051 11.9406 18.5778 12.7333 17.3284 12.7283Z" fill="#9BA9B3"/>
</g>
<rect x="0.728516" y="0.652344" width="33" height="33" rx="5.5" stroke="#DFE3EF"/>
<defs>
<clipPath id="clip0_6614_40246">
<rect x="1.22852" y="1.15234" width="32" height="32" rx="5" fill="white"/>
</clipPath>
</defs>
</svg>
