<svg width="21" height="21" viewBox="0 0 21 21" fill="none" xmlns="http://www.w3.org/2000/svg">
<path d="M17.7768 3.13561C15.6614 1.02023 12.6635 -0.199689 9.36716 0.137735C4.60429 0.617915 0.684987 4.48531 0.152896 9.24818C-0.560885 15.5424 4.3058 20.8504 10.4443 20.8504C14.5843 20.8504 18.1402 18.4235 19.8013 14.9325C20.2166 14.063 19.5937 13.0637 18.6333 13.0637C18.1532 13.0637 17.6989 13.3232 17.4913 13.7515C16.0248 16.9051 12.5078 18.9037 8.66636 18.0471C5.78528 17.4112 3.46224 15.0622 2.85229 12.1812C1.76215 7.14577 5.59061 2.68139 10.4443 2.68139C12.5986 2.68139 14.5194 3.57686 15.921 4.99145L13.9613 6.9511C13.1437 7.7687 13.7147 9.17031 14.8698 9.17031H19.5288C20.2426 9.17031 20.8266 8.58631 20.8266 7.87253V3.21348C20.8266 2.05845 19.425 1.47445 18.6074 2.29206L17.7768 3.13561Z" fill="#00D8A0"/>
</svg>
