<svg width="23" height="22" viewBox="0 0 23 22" fill="none" xmlns="http://www.w3.org/2000/svg">
<path fill-rule="evenodd" clip-rule="evenodd" d="M14.1452 16.943C14.1452 17.237 13.9069 17.4753 13.6129 17.4753H5.09677C4.80282 17.4753 4.56452 17.237 4.56452 16.943L4.56452 4.59678C4.56452 4.30282 4.80282 4.06452 5.09677 4.06452L13.6129 4.06452C13.9069 4.06452 14.1452 4.30282 14.1452 4.59678V6.72581C14.1452 7.01977 14.3835 7.25807 14.6774 7.25807C14.9714 7.25807 15.2097 7.01977 15.2097 6.72581V4.59678C15.2097 3.7149 14.4948 3 13.6129 3L5.09677 3C4.2149 3 3.5 3.7149 3.5 4.59677L3.5 16.943C3.5 17.8249 4.2149 18.5398 5.09677 18.5398H13.6129C14.4948 18.5398 15.2097 17.8249 15.2097 16.943V14.814C15.2097 14.52 14.9714 14.2817 14.6774 14.2817C14.3835 14.2817 14.1452 14.52 14.1452 14.814V16.943Z" fill="#8F94AC" stroke="#8F94AC" stroke-width="0.4" stroke-linecap="round"/>
<path fill-rule="evenodd" clip-rule="evenodd" d="M20.3765 11.1463C20.5844 10.9384 20.5844 10.6014 20.3765 10.3936L17.183 7.20002C16.9751 6.99216 16.6381 6.99216 16.4303 7.20002C16.2224 7.40788 16.2224 7.74489 16.4303 7.95275L18.7152 10.2377L9.35501 10.2377C9.06105 10.2377 8.82275 10.476 8.82275 10.7699C8.82275 11.0639 9.06105 11.3022 9.35501 11.3022H18.7152L16.4303 13.5871C16.2224 13.795 16.2224 14.132 16.4303 14.3398C16.6381 14.5477 16.9751 14.5477 17.183 14.3398L20.3765 11.1463Z" fill="#8F94AC" stroke="#8F94AC" stroke-width="0.4" stroke-linecap="round" stroke-linejoin="round"/>
</svg>
