<svg width="22" height="22" viewBox="0 0 22 22" fill="none" xmlns="http://www.w3.org/2000/svg">
<mask id="path-1-outside-1_1452_19368" maskUnits="userSpaceOnUse" x="2" y="1" width="17" height="18" fill="black">
<rect fill="white" x="2" y="1" width="17" height="18"/>
<path fill-rule="evenodd" clip-rule="evenodd" d="M18.2242 2.07701C18.3762 2.17096 18.4688 2.33692 18.4688 2.51563V17.9844C18.4688 18.2691 18.2379 18.5 17.9531 18.5H14.8594C14.5746 18.5 14.3438 18.2691 14.3438 17.9844V16.4375H13.3125V17.9844C13.3125 18.2691 13.0816 18.5 12.7969 18.5H3.51562C3.23085 18.5 3 18.2691 3 17.9844V12.3125C3 12.0906 3.14202 11.8935 3.35257 11.8233L9.1875 9.87836V6.64063C9.1875 6.44532 9.29785 6.26678 9.47253 6.17944L17.7225 2.05444C17.8824 1.97452 18.0722 1.98306 18.2242 2.07701ZM9.1875 10.9654L4.03125 12.6841V17.4688H9.1875V10.9654ZM10.2188 17.4688H12.2812V15.9219C12.2812 15.6371 12.5121 15.4063 12.7969 15.4063H14.8594C15.1441 15.4063 15.375 15.6371 15.375 15.9219V17.4688H17.4375V3.34992L10.2188 6.9593V17.4688Z"/>
<path d="M5.0625 13.3438H6.09375V14.375H5.0625V13.3438Z"/>
<path d="M7.125 13.3438H8.15625V14.375H7.125V13.3438Z"/>
<path d="M5.0625 15.4063H6.09375V16.4375H5.0625V15.4063Z"/>
<path d="M7.125 15.4063H8.15625V16.4375H7.125V15.4063Z"/>
<path d="M11.25 11.2813H12.2812V12.3125H11.25V11.2813Z"/>
<path d="M13.3125 11.2813H14.3438V12.3125H13.3125V11.2813Z"/>
<path d="M11.25 13.3438H12.2812V14.375H11.25V13.3438Z"/>
<path d="M13.3125 13.3438H14.3438V14.375H13.3125V13.3438Z"/>
<path d="M15.375 11.2813H16.4062V12.3125H15.375V11.2813Z"/>
<path d="M15.375 13.3438H16.4062V14.375H15.375V13.3438Z"/>
<path d="M11.25 9.21875H12.2812V10.25H11.25V9.21875Z"/>
<path d="M13.3125 9.21875H14.3438V10.25H13.3125V9.21875Z"/>
<path d="M15.375 9.21875H16.4062V10.25H15.375V9.21875Z"/>
<path d="M11.25 7.15625H12.2812V8.1875H11.25V7.15625Z"/>
<path d="M13.3125 7.15625H14.3438V8.1875H13.3125V7.15625Z"/>
<path d="M15.375 7.15625H16.4062V8.1875H15.375V7.15625Z"/>
<path d="M15.375 5.09375H16.4062V6.125H15.375V5.09375Z"/>
</mask>
<path fill-rule="evenodd" clip-rule="evenodd" d="M18.2242 2.07701C18.3762 2.17096 18.4688 2.33692 18.4688 2.51563V17.9844C18.4688 18.2691 18.2379 18.5 17.9531 18.5H14.8594C14.5746 18.5 14.3438 18.2691 14.3438 17.9844V16.4375H13.3125V17.9844C13.3125 18.2691 13.0816 18.5 12.7969 18.5H3.51562C3.23085 18.5 3 18.2691 3 17.9844V12.3125C3 12.0906 3.14202 11.8935 3.35257 11.8233L9.1875 9.87836V6.64063C9.1875 6.44532 9.29785 6.26678 9.47253 6.17944L17.7225 2.05444C17.8824 1.97452 18.0722 1.98306 18.2242 2.07701ZM9.1875 10.9654L4.03125 12.6841V17.4688H9.1875V10.9654ZM10.2188 17.4688H12.2812V15.9219C12.2812 15.6371 12.5121 15.4063 12.7969 15.4063H14.8594C15.1441 15.4063 15.375 15.6371 15.375 15.9219V17.4688H17.4375V3.34992L10.2188 6.9593V17.4688Z" fill="#8F94AC"/>
<path d="M5.0625 13.3438H6.09375V14.375H5.0625V13.3438Z" fill="#8F94AC"/>
<path d="M7.125 13.3438H8.15625V14.375H7.125V13.3438Z" fill="#8F94AC"/>
<path d="M5.0625 15.4063H6.09375V16.4375H5.0625V15.4063Z" fill="#8F94AC"/>
<path d="M7.125 15.4063H8.15625V16.4375H7.125V15.4063Z" fill="#8F94AC"/>
<path d="M11.25 11.2813H12.2812V12.3125H11.25V11.2813Z" fill="#8F94AC"/>
<path d="M13.3125 11.2813H14.3438V12.3125H13.3125V11.2813Z" fill="#8F94AC"/>
<path d="M11.25 13.3438H12.2812V14.375H11.25V13.3438Z" fill="#8F94AC"/>
<path d="M13.3125 13.3438H14.3438V14.375H13.3125V13.3438Z" fill="#8F94AC"/>
<path d="M15.375 11.2813H16.4062V12.3125H15.375V11.2813Z" fill="#8F94AC"/>
<path d="M15.375 13.3438H16.4062V14.375H15.375V13.3438Z" fill="#8F94AC"/>
<path d="M11.25 9.21875H12.2812V10.25H11.25V9.21875Z" fill="#8F94AC"/>
<path d="M13.3125 9.21875H14.3438V10.25H13.3125V9.21875Z" fill="#8F94AC"/>
<path d="M15.375 9.21875H16.4062V10.25H15.375V9.21875Z" fill="#8F94AC"/>
<path d="M11.25 7.15625H12.2812V8.1875H11.25V7.15625Z" fill="#8F94AC"/>
<path d="M13.3125 7.15625H14.3438V8.1875H13.3125V7.15625Z" fill="#8F94AC"/>
<path d="M15.375 7.15625H16.4062V8.1875H15.375V7.15625Z" fill="#8F94AC"/>
<path d="M15.375 5.09375H16.4062V6.125H15.375V5.09375Z" fill="#8F94AC"/>
<path d="M18.2242 2.07701L18.2768 1.99194L18.2768 1.99194L18.2242 2.07701ZM14.3438 16.4375H14.4438C14.4438 16.3823 14.399 16.3375 14.3438 16.3375V16.4375ZM13.3125 16.4375V16.3375C13.2573 16.3375 13.2125 16.3823 13.2125 16.4375H13.3125ZM3.35257 11.8233L3.32095 11.7285L3.32095 11.7285L3.35257 11.8233ZM9.1875 9.87836L9.21912 9.97323C9.25996 9.95962 9.2875 9.9214 9.2875 9.87836H9.1875ZM9.47253 6.17944L9.51725 6.26888L9.47253 6.17944ZM17.7225 2.05444L17.7673 2.14388L17.7673 2.14388L17.7225 2.05444ZM4.03125 12.6841L3.99963 12.5893C3.95879 12.6029 3.93125 12.6411 3.93125 12.6841H4.03125ZM9.1875 10.9654H9.2875C9.2875 10.9332 9.27205 10.9031 9.24597 10.8843C9.21989 10.8655 9.18637 10.8604 9.15588 10.8705L9.1875 10.9654ZM4.03125 17.4688H3.93125C3.93125 17.524 3.97602 17.5688 4.03125 17.5688V17.4688ZM9.1875 17.4688V17.5688C9.24273 17.5688 9.2875 17.524 9.2875 17.4688H9.1875ZM12.2812 17.4688V17.5688C12.3365 17.5688 12.3813 17.524 12.3813 17.4688H12.2812ZM10.2188 17.4688H10.1187C10.1187 17.524 10.1635 17.5688 10.2188 17.5688V17.4688ZM15.375 17.4688H15.275C15.275 17.524 15.3198 17.5688 15.375 17.5688V17.4688ZM17.4375 17.4688V17.5688C17.4927 17.5688 17.5375 17.524 17.5375 17.4688H17.4375ZM17.4375 3.34992H17.5375C17.5375 3.31527 17.5196 3.28308 17.4901 3.26486C17.4606 3.24664 17.4238 3.24498 17.3928 3.26048L17.4375 3.34992ZM10.2188 6.9593L10.174 6.86986C10.1402 6.8868 10.1187 6.92142 10.1187 6.9593H10.2188ZM5.0625 13.3438V13.2438H4.9625V13.3438H5.0625ZM6.09375 13.3438H6.19375V13.2438H6.09375V13.3438ZM6.09375 14.375V14.475H6.19375V14.375H6.09375ZM5.0625 14.375H4.9625V14.475H5.0625V14.375ZM7.125 13.3438V13.2438H7.025V13.3438H7.125ZM8.15625 13.3438H8.25625V13.2438H8.15625V13.3438ZM8.15625 14.375V14.475H8.25625V14.375H8.15625ZM7.125 14.375H7.025V14.475H7.125V14.375ZM5.0625 15.4063V15.3063H4.9625V15.4063H5.0625ZM6.09375 15.4063H6.19375V15.3063H6.09375V15.4063ZM6.09375 16.4375V16.5375H6.19375V16.4375H6.09375ZM5.0625 16.4375H4.9625V16.5375H5.0625V16.4375ZM7.125 15.4063V15.3063H7.025V15.4063H7.125ZM8.15625 15.4063H8.25625V15.3063H8.15625V15.4063ZM8.15625 16.4375V16.5375H8.25625V16.4375H8.15625ZM7.125 16.4375H7.025V16.5375H7.125V16.4375ZM11.25 11.2813V11.1813H11.15V11.2813H11.25ZM12.2812 11.2813H12.3813V11.1813H12.2812V11.2813ZM12.2812 12.3125V12.4125H12.3813V12.3125H12.2812ZM11.25 12.3125H11.15V12.4125H11.25V12.3125ZM13.3125 11.2813V11.1813H13.2125V11.2813H13.3125ZM14.3438 11.2813H14.4438V11.1813H14.3438V11.2813ZM14.3438 12.3125V12.4125H14.4438V12.3125H14.3438ZM13.3125 12.3125H13.2125V12.4125H13.3125V12.3125ZM11.25 13.3438V13.2438H11.15V13.3438H11.25ZM12.2812 13.3438H12.3813V13.2438H12.2812V13.3438ZM12.2812 14.375V14.475H12.3813V14.375H12.2812ZM11.25 14.375H11.15V14.475H11.25V14.375ZM13.3125 13.3438V13.2438H13.2125V13.3438H13.3125ZM14.3438 13.3438H14.4438V13.2438H14.3438V13.3438ZM14.3438 14.375V14.475H14.4438V14.375H14.3438ZM13.3125 14.375H13.2125V14.475H13.3125V14.375ZM15.375 11.2813V11.1813H15.275V11.2813H15.375ZM16.4062 11.2813H16.5063V11.1813H16.4062V11.2813ZM16.4062 12.3125V12.4125H16.5063V12.3125H16.4062ZM15.375 12.3125H15.275V12.4125H15.375V12.3125ZM15.375 13.3438V13.2438H15.275V13.3438H15.375ZM16.4062 13.3438H16.5063V13.2438H16.4062V13.3438ZM16.4062 14.375V14.475H16.5063V14.375H16.4062ZM15.375 14.375H15.275V14.475H15.375V14.375ZM11.25 9.21875V9.11875H11.15V9.21875H11.25ZM12.2812 9.21875H12.3813V9.11875H12.2812V9.21875ZM12.2812 10.25V10.35H12.3813V10.25H12.2812ZM11.25 10.25H11.15V10.35H11.25V10.25ZM13.3125 9.21875V9.11875H13.2125V9.21875H13.3125ZM14.3438 9.21875H14.4438V9.11875H14.3438V9.21875ZM14.3438 10.25V10.35H14.4438V10.25H14.3438ZM13.3125 10.25H13.2125V10.35H13.3125V10.25ZM15.375 9.21875V9.11875H15.275V9.21875H15.375ZM16.4062 9.21875H16.5063V9.11875H16.4062V9.21875ZM16.4062 10.25V10.35H16.5063V10.25H16.4062ZM15.375 10.25H15.275V10.35H15.375V10.25ZM11.25 7.15625V7.05625H11.15V7.15625H11.25ZM12.2812 7.15625H12.3813V7.05625H12.2812V7.15625ZM12.2812 8.1875V8.2875H12.3813V8.1875H12.2812ZM11.25 8.1875H11.15V8.2875H11.25V8.1875ZM13.3125 7.15625V7.05625H13.2125V7.15625H13.3125ZM14.3438 7.15625H14.4438V7.05625H14.3438V7.15625ZM14.3438 8.1875V8.2875H14.4438V8.1875H14.3438ZM13.3125 8.1875H13.2125V8.2875H13.3125V8.1875ZM15.375 7.15625V7.05625H15.275V7.15625H15.375ZM16.4062 7.15625H16.5063V7.05625H16.4062V7.15625ZM16.4062 8.1875V8.2875H16.5063V8.1875H16.4062ZM15.375 8.1875H15.275V8.2875H15.375V8.1875ZM15.375 5.09375V4.99375H15.275V5.09375H15.375ZM16.4062 5.09375H16.5063V4.99375H16.4062V5.09375ZM16.4062 6.125V6.225H16.5063V6.125H16.4062ZM15.375 6.125H15.275V6.225H15.375V6.125ZM18.5688 2.51563C18.5688 2.30226 18.4583 2.10411 18.2768 1.99194L18.1716 2.16207C18.2942 2.2378 18.3687 2.37158 18.3687 2.51563H18.5688ZM18.5688 17.9844V2.51563H18.3687V17.9844H18.5688ZM17.9531 18.6C18.2931 18.6 18.5688 18.3244 18.5688 17.9844H18.3687C18.3687 18.2139 18.1827 18.4 17.9531 18.4V18.6ZM14.8594 18.6H17.9531V18.4H14.8594V18.6ZM14.2437 17.9844C14.2437 18.3244 14.5194 18.6 14.8594 18.6V18.4C14.6298 18.4 14.4438 18.2139 14.4438 17.9844H14.2437ZM14.2437 16.4375V17.9844H14.4438V16.4375H14.2437ZM13.3125 16.5375H14.3438V16.3375H13.3125V16.5375ZM13.4125 17.9844V16.4375H13.2125V17.9844H13.4125ZM12.7969 18.6C13.1369 18.6 13.4125 18.3244 13.4125 17.9844H13.2125C13.2125 18.2139 13.0264 18.4 12.7969 18.4V18.6ZM2.9 17.9844C2.9 18.3244 3.17562 18.6 3.51562 18.6V18.4C3.28608 18.4 3.1 18.2139 3.1 17.9844H2.9ZM2.9 12.3125V17.9844H3.1V12.3125H2.9ZM3.32095 11.7285C3.06956 11.8123 2.9 12.0475 2.9 12.3125H3.1C3.1 12.1336 3.21448 11.9748 3.38419 11.9182L3.32095 11.7285ZM9.15588 9.78349L3.32095 11.7285L3.38419 11.9182L9.21912 9.97323L9.15588 9.78349ZM9.0875 6.64063V9.87836H9.2875V6.64063H9.0875ZM9.42781 6.08999C9.21925 6.19428 9.0875 6.40744 9.0875 6.64063H9.2875C9.2875 6.4832 9.37644 6.33928 9.51725 6.26888L9.42781 6.08999ZM17.6778 1.96499L9.42781 6.08999L9.51725 6.26888L17.7673 2.14388L17.6778 1.96499ZM18.2768 1.99194C18.0953 1.87977 17.8686 1.86958 17.6778 1.96499L17.7673 2.14388C17.8961 2.07946 18.0491 2.08634 18.1716 2.16207L18.2768 1.99194ZM4.06287 12.779L9.21912 11.0603L9.15588 10.8705L3.99963 12.5893L4.06287 12.779ZM4.13125 17.4688V12.6841H3.93125V17.4688H4.13125ZM9.1875 17.3688H4.03125V17.5688H9.1875V17.3688ZM9.0875 10.9654V17.4688H9.2875V10.9654H9.0875ZM12.2812 17.3688H10.2188V17.5688H12.2812V17.3688ZM12.1812 15.9219V17.4688H12.3813V15.9219H12.1812ZM12.7969 15.3063C12.4569 15.3063 12.1812 15.5819 12.1812 15.9219H12.3813C12.3813 15.6923 12.5673 15.5063 12.7969 15.5063V15.3063ZM14.8594 15.3063H12.7969V15.5063H14.8594V15.3063ZM15.475 15.9219C15.475 15.5819 15.1994 15.3063 14.8594 15.3063V15.5063C15.0889 15.5063 15.275 15.6923 15.275 15.9219H15.475ZM15.475 17.4688V15.9219H15.275V17.4688H15.475ZM17.4375 17.3688H15.375V17.5688H17.4375V17.3688ZM17.3375 3.34992V17.4688H17.5375V3.34992H17.3375ZM10.2635 7.04874L17.4822 3.43937L17.3928 3.26048L10.174 6.86986L10.2635 7.04874ZM3.51562 18.6H12.7969V18.4H3.51562V18.6ZM10.3188 17.4688V6.9593H10.1187V17.4688H10.3188ZM5.0625 13.4438H6.09375V13.2438H5.0625V13.4438ZM5.99375 13.3438V14.375H6.19375V13.3438H5.99375ZM6.09375 14.275H5.0625V14.475H6.09375V14.275ZM5.1625 14.375V13.3438H4.9625V14.375H5.1625ZM7.125 13.4438H8.15625V13.2438H7.125V13.4438ZM8.05625 13.3438V14.375H8.25625V13.3438H8.05625ZM8.15625 14.275H7.125V14.475H8.15625V14.275ZM7.225 14.375V13.3438H7.025V14.375H7.225ZM5.0625 15.5063H6.09375V15.3063H5.0625V15.5063ZM5.99375 15.4063V16.4375H6.19375V15.4063H5.99375ZM6.09375 16.3375H5.0625V16.5375H6.09375V16.3375ZM5.1625 16.4375V15.4063H4.9625V16.4375H5.1625ZM7.125 15.5063H8.15625V15.3063H7.125V15.5063ZM8.05625 15.4063V16.4375H8.25625V15.4063H8.05625ZM8.15625 16.3375H7.125V16.5375H8.15625V16.3375ZM7.225 16.4375V15.4063H7.025V16.4375H7.225ZM11.25 11.3813H12.2812V11.1813H11.25V11.3813ZM12.1812 11.2813V12.3125H12.3813V11.2813H12.1812ZM12.2812 12.2125H11.25V12.4125H12.2812V12.2125ZM11.35 12.3125V11.2813H11.15V12.3125H11.35ZM13.3125 11.3813H14.3438V11.1813H13.3125V11.3813ZM14.2437 11.2813V12.3125H14.4438V11.2813H14.2437ZM14.3438 12.2125H13.3125V12.4125H14.3438V12.2125ZM13.4125 12.3125V11.2813H13.2125V12.3125H13.4125ZM11.25 13.4438H12.2812V13.2438H11.25V13.4438ZM12.1812 13.3438V14.375H12.3813V13.3438H12.1812ZM12.2812 14.275H11.25V14.475H12.2812V14.275ZM11.35 14.375V13.3438H11.15V14.375H11.35ZM13.3125 13.4438H14.3438V13.2438H13.3125V13.4438ZM14.2437 13.3438V14.375H14.4438V13.3438H14.2437ZM14.3438 14.275H13.3125V14.475H14.3438V14.275ZM13.4125 14.375V13.3438H13.2125V14.375H13.4125ZM15.375 11.3813H16.4062V11.1813H15.375V11.3813ZM16.3062 11.2813V12.3125H16.5063V11.2813H16.3062ZM16.4062 12.2125H15.375V12.4125H16.4062V12.2125ZM15.475 12.3125V11.2813H15.275V12.3125H15.475ZM15.375 13.4438H16.4062V13.2438H15.375V13.4438ZM16.3062 13.3438V14.375H16.5063V13.3438H16.3062ZM16.4062 14.275H15.375V14.475H16.4062V14.275ZM15.475 14.375V13.3438H15.275V14.375H15.475ZM11.25 9.31875H12.2812V9.11875H11.25V9.31875ZM12.1812 9.21875V10.25H12.3813V9.21875H12.1812ZM12.2812 10.15H11.25V10.35H12.2812V10.15ZM11.35 10.25V9.21875H11.15V10.25H11.35ZM13.3125 9.31875H14.3438V9.11875H13.3125V9.31875ZM14.2437 9.21875V10.25H14.4438V9.21875H14.2437ZM14.3438 10.15H13.3125V10.35H14.3438V10.15ZM13.4125 10.25V9.21875H13.2125V10.25H13.4125ZM15.375 9.31875H16.4062V9.11875H15.375V9.31875ZM16.3062 9.21875V10.25H16.5063V9.21875H16.3062ZM16.4062 10.15H15.375V10.35H16.4062V10.15ZM15.475 10.25V9.21875H15.275V10.25H15.475ZM11.25 7.25625H12.2812V7.05625H11.25V7.25625ZM12.1812 7.15625V8.1875H12.3813V7.15625H12.1812ZM12.2812 8.0875H11.25V8.2875H12.2812V8.0875ZM11.35 8.1875V7.15625H11.15V8.1875H11.35ZM13.3125 7.25625H14.3438V7.05625H13.3125V7.25625ZM14.2437 7.15625V8.1875H14.4438V7.15625H14.2437ZM14.3438 8.0875H13.3125V8.2875H14.3438V8.0875ZM13.4125 8.1875V7.15625H13.2125V8.1875H13.4125ZM15.375 7.25625H16.4062V7.05625H15.375V7.25625ZM16.3062 7.15625V8.1875H16.5063V7.15625H16.3062ZM16.4062 8.0875H15.375V8.2875H16.4062V8.0875ZM15.475 8.1875V7.15625H15.275V8.1875H15.475ZM15.375 5.19375H16.4062V4.99375H15.375V5.19375ZM16.3062 5.09375V6.125H16.5063V5.09375H16.3062ZM16.4062 6.025H15.375V6.225H16.4062V6.025ZM15.475 6.125V5.09375H15.275V6.125H15.475Z" fill="#8F94AC" mask="url(#path-1-outside-1_1452_19368)"/>
</svg>
