<svg width="31" height="31" viewBox="0 0 31 31" fill="none" xmlns="http://www.w3.org/2000/svg">
<path d="M15.4326 2.75C16.2969 2.75 16.9951 3.44971 16.9951 4.3125V6.00439C20.9209 6.66309 24.0215 9.76172 24.6758 13.6875H26.3701C27.2344 13.6875 27.9326 14.3857 27.9326 15.25C27.9326 16.1143 27.2344 16.8125 26.3701 16.8125H24.6758C24.0215 20.7383 20.9209 23.8389 16.9951 24.4932V26.1875C16.9951 27.0518 16.2969 27.75 15.4326 27.75C14.5684 27.75 13.8701 27.0518 13.8701 26.1875V24.4932C9.94434 23.8389 6.8457 20.7383 6.18701 16.8125H4.49512C3.63232 16.8125 2.93262 16.1143 2.93262 15.25C2.93262 14.3857 3.63232 13.6875 4.49512 13.6875H6.18701C6.8457 9.76172 9.94434 6.66309 13.8701 6.00439V4.3125C13.8701 3.44971 14.5684 2.75 15.4326 2.75ZM9.18262 15.25C9.18262 18.7021 11.9805 21.5 15.4326 21.5C18.8848 21.5 21.6826 18.7021 21.6826 15.25C21.6826 11.7979 18.8848 9 15.4326 9C11.9805 9 9.18262 11.7979 9.18262 15.25Z" fill="white"/>
</svg>
