<svg width="30" height="26" viewBox="0 0 30 26" fill="none" xmlns="http://www.w3.org/2000/svg">
<path d="M2.21954 22.3071L13.5064 3.26044C14.0914 2.27329 15.523 2.28176 16.0963 3.27576L27.0808 22.3224C27.6575 23.3224 26.9358 24.5718 25.7814 24.5718H3.50998C2.34769 24.5718 1.62701 23.307 2.21954 22.3071Z" fill="#FFFDEF" stroke="#FFF8B9"/>
<path d="M12.9844 19.9223C12.9844 19.018 13.7174 18.285 14.6217 18.285C15.526 18.285 16.2591 19.018 16.2591 19.9223C16.2591 20.8266 15.526 21.5596 14.6217 21.5596C13.7174 21.5596 12.9844 20.8266 12.9844 19.9223Z" fill="#E9D418"/>
<path d="M13.1448 10.0902C13.0575 9.21785 13.7425 8.46094 14.6192 8.46094C15.4958 8.46094 16.1808 9.21785 16.0936 10.0902L15.5193 15.833C15.4731 16.2955 15.0839 16.6476 14.6192 16.6476C14.1544 16.6476 13.7653 16.2955 13.7191 15.833L13.1448 10.0902Z" fill="#E9D418"/>
</svg>
