<svg width="20" height="20" viewBox="0 0 20 20" fill="none" xmlns="http://www.w3.org/2000/svg">
<path d="M13.0322 18.6928C13.289 18.9436 13.7006 18.9388 13.9514 18.682C14.2022 18.4252 14.1974 18.0136 13.9406 17.7628L13.0322 18.6928ZM11.8613 10.1692V9.51919C11.5385 9.51919 11.2646 9.75602 11.2181 10.0754L11.8613 10.1692ZM17.361 10.1692L17.9888 10.3379C18.0412 10.1427 17.9999 9.93415 17.8769 9.7737C17.7539 9.61326 17.5632 9.51919 17.361 9.51919V10.1692ZM18.7372 18.3899C19.0308 18.5963 19.4363 18.5257 19.6428 18.232C19.8492 17.9383 19.7786 17.5329 19.4849 17.3264L18.7372 18.3899ZM13.9406 17.7628C13.6543 17.4832 13.1346 16.6595 12.7666 15.3364C12.4053 14.0375 12.2061 12.3091 12.5045 10.263L11.2181 10.0754C10.8924 12.3083 11.1065 14.2192 11.5141 15.6848C11.915 17.1263 12.5198 18.1923 13.0322 18.6928L13.9406 17.7628ZM11.8613 10.8192H17.361V9.51919H11.8613V10.8192ZM16.7333 10.0004C16.4913 10.9008 16.1958 12.4064 16.3451 13.971C16.4953 15.5442 17.1051 17.2423 18.7372 18.3899L19.4849 17.3264C18.2643 16.4682 17.7669 15.1854 17.6392 13.8474C17.5107 12.5007 17.7665 11.1648 17.9888 10.3379L16.7333 10.0004Z" fill="#8F94AC"/>
<path d="M12.4863 10.0325H11.8363V10.5962L12.3944 10.676L12.4863 10.0325ZM12.8617 7.69238V7.04238C12.587 7.04238 12.342 7.21507 12.2496 7.47376L12.8617 7.69238ZM16.6117 7.69238L17.2152 7.93379C17.2953 7.73353 17.2709 7.50658 17.1499 7.32797C17.029 7.14937 16.8274 7.04238 16.6117 7.04238V7.69238ZM13.1363 10.0325C13.1363 9.81759 13.1697 9.42379 13.2333 8.99743C13.2975 8.56782 13.384 8.16263 13.4739 7.911L12.2496 7.47376C12.1166 7.84616 12.0154 8.35102 11.9476 8.80546C11.8793 9.26314 11.8363 9.72739 11.8363 10.0325H13.1363ZM12.8617 8.34238H16.6117V7.04238H12.8617V8.34238ZM16.0082 7.45098C15.8686 7.79981 15.6841 8.34251 15.5741 8.85199C15.5196 9.10423 15.477 9.37674 15.4767 9.6257C15.4764 9.8277 15.4992 10.2147 15.7766 10.4921L16.6958 9.57288C16.8172 9.69426 16.7764 9.79203 16.7767 9.62757C16.7768 9.51007 16.7989 9.33894 16.8448 9.12641C16.9355 8.70634 17.0947 8.23499 17.2152 7.93379L16.0082 7.45098ZM15.7766 10.4921C15.7251 10.4406 15.5158 10.1922 15.6501 9.84866C15.7028 9.7139 15.7882 9.63368 15.8375 9.59522C15.8878 9.55598 15.9308 9.5364 15.9483 9.52897C15.9925 9.51023 15.9826 9.52282 15.8496 9.53522C15.6244 9.55621 15.2636 9.55974 14.8367 9.54848C13.9881 9.5261 12.9996 9.44923 12.5783 9.38903L12.3944 10.676C12.8831 10.7458 13.9256 10.8249 14.8024 10.848C15.2382 10.8595 15.6637 10.8582 15.9702 10.8296C16.103 10.8172 16.2953 10.7939 16.4557 10.7259C16.5085 10.7035 16.7519 10.6009 16.8609 10.322C17.0075 9.94698 16.7863 9.66336 16.6958 9.57288L15.7766 10.4921Z" fill="#8F94AC"/>
<path d="M10.7241 1.00096C10.4263 0.800587 10.0224 0.879611 9.82201 1.17747C9.62163 1.47533 9.70066 1.87923 9.99851 2.0796L10.7241 1.00096ZM19.1355 2.12965C19.461 1.97826 19.6021 1.59166 19.4507 1.26616C19.2993 0.940659 18.9127 0.799519 18.5872 0.950915L19.1355 2.12965ZM15.3611 0.727783C15.3611 0.368798 15.0701 0.0777832 14.7111 0.0777832C14.3521 0.0777832 14.0611 0.368798 14.0611 0.727783H15.3611ZM14.6273 7.63612C14.6958 7.24006 14.6052 6.72722 14.4592 6.2311C14.3048 5.70663 14.0586 5.10277 13.7302 4.48428C13.0773 3.25456 12.0658 1.90352 10.7241 1.00096L9.99851 2.0796C11.1084 2.82628 11.9932 3.98484 12.582 5.09387C12.8744 5.64475 13.0853 6.16755 13.212 6.59811C13.3471 7.05702 13.3614 7.32758 13.3463 7.41441L14.6273 7.63612ZM16.2526 7.53382C16.261 6.89029 16.3937 5.7905 16.8326 4.71851C17.2702 3.64992 17.9875 2.66356 19.1355 2.12965L18.5872 0.950915C17.0476 1.667 16.1449 2.96739 15.6296 4.22591C15.1157 5.48104 14.9628 6.74874 14.9527 7.51671L16.2526 7.53382ZM15.3611 7.52526V0.727783H14.0611V7.52526H15.3611Z" fill="#8F94AC"/>
<mask id="mask0_10048_54319" style="mask-type:alpha" maskUnits="userSpaceOnUse" x="0" y="0" width="10" height="20">
<rect x="0.5" width="9.47368" height="20" fill="#D9D9D9"/>
</mask>
<g mask="url(#mask0_10048_54319)">
<path fill-rule="evenodd" clip-rule="evenodd" d="M14.6793 14.3125L14.9803 13.9399C15.1571 13.7209 15.3119 13.5148 15.4498 13.2901C15.5878 13.0655 15.701 12.835 15.8156 12.5793L16.0105 12.1443L18.6919 11.8565L18.7072 8.79354L16.0121 8.3445L15.8358 7.92153C15.6255 7.41702 15.3581 6.94962 15.0229 6.51836L14.7301 6.14173L15.7549 3.73384L12.9866 2.10594L11.2954 4.12197L10.8181 4.04577C10.2779 3.95952 9.72403 3.95364 9.16042 4.00298L8.7021 4.04311L7.0358 1.93025L4.27958 3.38139L5.27879 5.83357L4.97782 6.20624C4.80146 6.4246 4.64164 6.63873 4.50826 6.85598C4.37488 7.07322 4.25673 7.31185 4.14252 7.56676L3.9476 8.0018L1.26617 8.28959L1.25092 11.3526L3.94594 11.8016L4.12227 12.2246C4.33258 12.7291 4.59995 13.1965 4.93522 13.6277L5.22802 14.0044L4.20317 16.4123L6.97149 18.0402L8.66272 16.0241L9.13998 16.1003C9.68019 16.1866 10.2341 16.1925 10.7977 16.1431L11.256 16.103L12.9223 18.2159L15.6785 16.7647L14.6793 14.3125ZM16.3749 17.3311L13.0549 19.0791C12.8498 19.1937 12.5917 19.1382 12.4453 18.9559L10.8725 16.9615C10.2551 17.0156 9.62889 17.0109 9.0048 16.9113L7.41275 18.8091C7.27221 18.9831 7.01204 19.0226 6.80569 18.9013L3.50411 16.9598C3.29776 16.8385 3.21126 16.5951 3.30228 16.392L4.26703 14.1253C3.88414 13.6328 3.58111 13.1017 3.34487 12.535L0.807225 12.1121C0.587044 12.0682 0.402782 11.8743 0.409866 11.6432L0.428227 7.95377C0.435311 7.72266 0.606833 7.53478 0.83602 7.50914L3.37359 7.23678C3.49495 6.96593 3.62938 6.69207 3.78858 6.43277C3.94777 6.17347 4.13173 5.92874 4.31912 5.69671L3.37352 3.3761C3.28906 3.16601 3.36979 2.92474 3.58322 2.81497L6.90316 1.06702C7.10834 0.952401 7.36636 1.00788 7.51279 1.19023L9.08561 3.18455C9.70296 3.1305 10.3292 3.13516 10.9533 3.2348L12.5453 1.337C12.6859 1.16298 12.9461 1.12347 13.1524 1.24482L16.454 3.1863C16.6603 3.30764 16.7468 3.551 16.6558 3.75414L15.6911 6.02082C16.074 6.51333 16.377 7.04444 16.6132 7.61113L19.1509 8.03395C19.371 8.07787 19.5553 8.27179 19.5482 8.50289L19.5299 12.1923C19.5228 12.4234 19.3513 12.6113 19.1221 12.637L16.5845 12.9093C16.4631 13.1802 16.3335 13.4462 16.1695 13.7133C16.0055 13.9805 15.8264 14.2174 15.639 14.4494L16.5846 16.77C16.669 16.9801 16.5801 17.2165 16.3749 17.3311ZM3.97379 3.54235L3.98065 3.53878L3.97379 3.54235ZM7.85817 13.5275C5.88659 12.3681 5.1894 9.87478 6.37048 7.95105C7.55156 6.02732 10.1283 5.45922 12.0999 6.6186C14.0715 7.77798 14.7687 10.2713 13.5876 12.1951C12.4065 14.1188 9.82975 14.6869 7.85817 13.5275ZM7.09016 8.37425C6.1591 9.89075 6.69758 11.8864 8.2906 12.8232C9.88361 13.7599 11.9369 13.2883 12.8679 11.7718C13.799 10.2554 13.2605 8.25969 11.6675 7.32293C10.0745 6.38616 8.02122 6.85776 7.09016 8.37425Z" fill="#8F94AC"/>
<path d="M3.97379 3.54235L3.98065 3.53878M14.9803 13.9399L14.6793 14.3125L15.6785 16.7647L12.9223 18.2159L11.256 16.103L10.7977 16.1431C10.2341 16.1925 9.68019 16.1866 9.13998 16.1003L8.66272 16.0241L6.97149 18.0402L4.20317 16.4123L5.22802 14.0044L4.93522 13.6277C4.59995 13.1965 4.33258 12.7291 4.12227 12.2246L3.94594 11.8016L1.25092 11.3526L1.26617 8.28959L3.9476 8.0018L4.14252 7.56676C4.25673 7.31185 4.37488 7.07322 4.50826 6.85598C4.64164 6.63873 4.80146 6.4246 4.97782 6.20624L5.27879 5.83357L4.27958 3.38139L7.0358 1.93025L8.7021 4.04311L9.16042 4.00298C9.72403 3.95364 10.2779 3.95952 10.8181 4.04577L11.2954 4.12197L12.9866 2.10594L15.7549 3.73384L14.7301 6.14173L15.0229 6.51836C15.3581 6.94962 15.6255 7.41702 15.8358 7.92153L16.0121 8.3445L18.7072 8.79354L18.6919 11.8565L16.0105 12.1443L15.8156 12.5793C15.701 12.835 15.5878 13.0655 15.4498 13.2901C15.3119 13.5148 15.1571 13.7209 14.9803 13.9399ZM13.0549 19.0791L16.3749 17.3311C16.5801 17.2165 16.669 16.9801 16.5846 16.77L15.639 14.4494C15.8264 14.2174 16.0055 13.9805 16.1695 13.7133C16.3335 13.4462 16.4631 13.1802 16.5845 12.9093L19.1221 12.637C19.3513 12.6113 19.5228 12.4234 19.5299 12.1923L19.5482 8.50289C19.5553 8.27179 19.371 8.07787 19.1509 8.03395L16.6132 7.61113C16.377 7.04444 16.074 6.51333 15.6911 6.02082L16.6558 3.75414C16.7468 3.551 16.6603 3.30764 16.454 3.1863L13.1524 1.24482C12.9461 1.12347 12.6859 1.16298 12.5453 1.337L10.9533 3.2348C10.3292 3.13516 9.70295 3.1305 9.08561 3.18455L7.51279 1.19023C7.36636 1.00788 7.10834 0.952401 6.90316 1.06702L3.58322 2.81497C3.36979 2.92474 3.28906 3.16601 3.37352 3.3761L4.31912 5.69671C4.13173 5.92874 3.94777 6.17347 3.78858 6.43277C3.62938 6.69207 3.49495 6.96593 3.37359 7.23678L0.83602 7.50914C0.606833 7.53478 0.435311 7.72266 0.428227 7.95377L0.409866 11.6432C0.402782 11.8743 0.587044 12.0682 0.807225 12.1121L3.34487 12.535C3.58111 13.1017 3.88414 13.6328 4.26703 14.1253L3.30228 16.392C3.21126 16.5951 3.29776 16.8385 3.50411 16.9598L6.80569 18.9013C7.01204 19.0226 7.27221 18.9831 7.41275 18.8091L9.0048 16.9113C9.62889 17.0109 10.2551 17.0156 10.8725 16.9615L12.4453 18.9559C12.5917 19.1382 12.8498 19.1937 13.0549 19.0791ZM6.37048 7.95105C5.1894 9.87478 5.88659 12.3681 7.85817 13.5275C9.82975 14.6869 12.4065 14.1188 13.5876 12.1951C14.7687 10.2713 14.0715 7.77798 12.0999 6.6186C10.1283 5.45922 7.55156 6.02732 6.37048 7.95105ZM8.2906 12.8232C6.69758 11.8864 6.1591 9.89075 7.09016 8.37425C8.02122 6.85776 10.0745 6.38616 11.6675 7.32293C13.2605 8.25969 13.799 10.2553 12.8679 11.7718C11.9369 13.2883 9.88361 13.7599 8.2906 12.8232Z" stroke="#8F94AC" stroke-width="0.5"/>
</g>
</svg>
