<svg width="13" height="21" viewBox="0 0 13 21" fill="none" xmlns="http://www.w3.org/2000/svg">
<path d="M5.78342 0.615351L5.78354 0.615329C8.83699 0.0724661 11.6774 1.98494 12.3473 5.07306C12.6233 6.36295 12.5438 7.63636 11.9558 8.80895L11.9557 8.80908C11.4789 9.76124 11.0084 10.7004 10.4608 11.5719L10.4604 11.5725C8.96575 13.9664 7.55761 16.4236 6.79516 19.2342C6.75298 19.0737 6.70902 18.9131 6.66191 18.7535C6.0023 16.4376 4.89417 14.3813 3.68534 12.392L3.68536 12.392L3.68375 12.3894C3.01881 11.3244 2.37296 10.248 1.80686 9.14062L1.80658 9.14008C-0.0254161 5.57792 2.01185 1.28399 5.78342 0.615351ZM4.44299 6.23376L4.44297 6.23376L6.78659 8.50426L6.78299 8.75423C6.78301 8.75423 6.78303 8.75423 6.78304 8.75423C8.08877 8.77301 9.16107 7.66859 9.16194 6.3221C9.17854 4.99749 8.11342 3.82109 6.8043 3.81998C5.52753 3.80218 4.46051 4.92628 4.44299 6.23376Z" fill="black" stroke="white" stroke-width="0.5"/>
</svg>
