<svg width="22" height="22" viewBox="0 0 22 22" fill="none" xmlns="http://www.w3.org/2000/svg">
<path d="M14.4244 4.26717C13.2573 3.77819 11.9132 4.32857 11.4242 5.49569C10.9353 6.6628 11.4856 8.00687 12.6528 8.49585C13.8199 8.98482 15.1639 8.43444 15.6529 7.26733C16.1419 6.10021 15.5915 4.75614 14.4244 4.26717ZM13.2972 7.79404L13.2459 7.91667C13.1812 8.07102 13.0012 8.14473 12.8468 8.08007L12.8447 8.07918C12.6904 8.01451 12.6167 7.83451 12.6813 7.68016L12.7345 7.5533C12.4781 7.37628 12.2932 7.11741 12.2965 6.81305C12.2966 6.67639 12.4415 6.58551 12.5684 6.63866L12.6191 6.65992C12.6974 6.69269 12.7386 6.77212 12.7372 6.85853C12.7321 7.04279 12.8468 7.22006 13.1554 7.34939C13.5699 7.52301 13.7497 7.35478 13.8037 7.22581C13.8773 7.05032 13.8533 6.84642 13.4288 6.53682C12.9576 6.19028 12.6885 5.82403 12.8701 5.39059C13.0224 5.02692 13.4155 4.91324 13.812 4.98738L13.8651 4.86051C13.9298 4.70617 14.1098 4.63246 14.2641 4.69712L14.2663 4.69801C14.4206 4.76267 14.4943 4.94268 14.4297 5.09703L14.3747 5.22812C14.6364 5.42225 14.7442 5.68115 14.7306 5.93893C14.7242 6.07293 14.584 6.15836 14.4593 6.1061L14.4043 6.08307C14.326 6.05029 14.2857 5.96874 14.2964 5.88377C14.3151 5.70271 14.2253 5.5433 13.9589 5.43168C13.6417 5.29881 13.3912 5.36286 13.3062 5.56584C13.2318 5.74344 13.3205 5.91731 13.7015 6.20619C14.0825 6.49507 14.4622 6.87036 14.2389 7.40317C14.0726 7.78832 13.6944 7.8784 13.2972 7.79404Z" fill="#8F94AC"/>
<path fill-rule="evenodd" clip-rule="evenodd" d="M18.1029 5.08024C17.2393 4.23062 15.7146 3.47259 14.4143 3.41016C13.746 3.37808 13.132 3.43159 12.5131 3.49295C12.4625 3.49796 12.4118 3.50303 12.3611 3.50812C11.7958 3.56472 11.2189 3.62249 10.6139 3.61266C10.0362 3.60328 9.37119 3.36481 8.85048 3.09897C8.58642 2.96416 8.34695 2.81597 8.16204 2.67407C8.1545 2.66829 8.14702 2.66249 8.1396 2.65668L6.28149 7.09174C6.77969 7.79948 7.82754 8.81504 9.78862 9.06304C11.1619 9.2367 11.9215 9.21912 12.5693 9.20412C12.5931 9.20357 12.6167 9.20302 12.6401 9.20249C13.3221 9.187 13.9073 9.18239 14.9391 9.41535C15.8144 9.61298 16.6211 10.1755 17.2241 10.8099C17.5768 11.181 17.8757 11.5936 18.0805 11.9954L19.9998 7.41424C19.6534 6.90685 18.7456 5.7126 18.1029 5.08024ZM14.4436 2.79956C15.9137 2.87013 17.5759 3.70417 18.5316 4.64448C19.2798 5.38057 20.3364 6.7961 20.6032 7.21861L20.6882 7.35316L20.6267 7.49994L18.3375 12.964L17.9163 13.9693L17.7534 12.8916C17.6871 12.4531 17.3364 11.8154 16.7811 11.2311C16.231 10.6524 15.5253 10.1744 14.8044 10.0116C13.8411 9.79412 13.3112 9.79871 12.654 9.81364C12.6312 9.81416 12.6083 9.81469 12.5852 9.81522C11.9239 9.83051 11.1301 9.84886 9.71192 9.66951C7.40659 9.37798 6.20977 8.11243 5.67914 7.29182L5.5916 7.15644L5.65389 7.00774L7.75996 1.98084L7.93076 1.57316L8.32993 1.99632C8.33228 1.99982 8.34196 2.0149 8.36698 2.04191C8.40386 2.08169 8.45931 2.13164 8.53418 2.1891C8.68343 2.30362 8.88982 2.43269 9.12844 2.55451C9.61308 2.80194 10.1807 2.99424 10.6238 3.00144C11.1916 3.01066 11.7341 2.95643 12.3052 2.89933C12.3542 2.89443 12.4033 2.88952 12.4527 2.88462C13.0736 2.82308 13.7266 2.76514 14.4436 2.79956Z" fill="#8F94AC" stroke="#8F94AC" stroke-width="0.5"/>
<path d="M1 18V10H3V18H1Z" fill="#8F94AC"/>
<path d="M6.01568 10.5867L6.0086 10.5839C5.86626 10.5283 5.70088 10.5 5.52381 10.5H4.5V17.8176L10.1976 19.3629L10.2012 19.3639C10.4894 19.4444 10.8026 19.4316 11.0886 19.3293L17.7394 16.9378C17.5832 16.3826 17.047 15.9545 16.3714 15.9545H9.86667C9.7042 15.9545 9.54535 15.9264 9.39211 15.8736L7.99551 15.4111L6.01568 10.5867ZM6.01568 10.5867L6.02283 10.5892L12.6092 12.9332M6.01568 10.5867L12.6092 12.9332M12.6092 12.9332C12.8683 13.0314 13.0143 13.2559 13.0143 13.4727C13.0143 13.7658 12.7556 14.0455 12.3905 14.0455H9.88571C9.84381 14.0455 9.77852 14.034 9.71035 14.0107L8.64851 13.6215L8.64824 13.6214L8.47619 14.0909L12.6092 12.9332Z" stroke="#8F94AC"/>
</svg>
