<svg width="22" height="22" viewBox="0 0 22 22" fill="none" xmlns="http://www.w3.org/2000/svg">
<path d="M11.25 11.25C13.5282 11.25 15.375 9.40317 15.375 7.125C15.375 4.84683 13.5282 3 11.25 3C8.97183 3 7.125 4.84683 7.125 7.125C7.125 9.40317 8.97183 11.25 11.25 11.25ZM14 7.125C14 8.64378 12.7688 9.875 11.25 9.875C9.73122 9.875 8.5 8.64378 8.5 7.125C8.5 5.60622 9.73122 4.375 11.25 4.375C12.7688 4.375 14 5.60622 14 7.125Z" fill="#8F94AC"/>
<path d="M19.5 18.125C19.5 19.5 18.125 19.5 18.125 19.5H4.375C4.375 19.5 3 19.5 3 18.125C3 16.75 4.375 12.625 11.25 12.625C18.125 12.625 19.5 16.75 19.5 18.125ZM18.125 18.1202C18.123 17.7809 17.9136 16.7644 16.9808 15.8316C16.084 14.9348 14.3975 14 11.25 14C8.10246 14 6.41599 14.9348 5.51913 15.8316C4.58641 16.7644 4.37696 17.7809 4.375 18.1202H18.125Z" fill="#8F94AC"/>
</svg>
