<svg width="12" height="21" viewBox="0 0 12 21" fill="none" xmlns="http://www.w3.org/2000/svg">
<path d="M5.03342 0.615351L5.03354 0.615329C8.08699 0.0724661 10.9274 1.98494 11.5973 5.07306C11.8733 6.36295 11.7938 7.63636 11.2058 8.80895L11.2057 8.80908C10.7289 9.76124 10.2584 10.7004 9.7108 11.5719L9.71043 11.5725C8.21575 13.9664 6.80761 16.4236 6.04516 19.2342C6.00298 19.0737 5.95902 18.9131 5.91191 18.7535C5.2523 16.4376 4.14417 14.3813 2.93534 12.392L2.93536 12.392L2.93375 12.3894C2.26881 11.3244 1.62296 10.248 1.05686 9.14062L1.05658 9.14008C-0.775416 5.57792 1.26185 1.28399 5.03342 0.615351ZM3.69299 6.23376L3.69297 6.23376L6.03659 8.50426L6.03299 8.75423C6.03301 8.75423 6.03303 8.75423 6.03304 8.75423C7.33877 8.77301 8.41107 7.66859 8.41194 6.3221C8.42854 4.99749 7.36342 3.82109 6.0543 3.81998C4.77753 3.80218 3.71051 4.92628 3.69299 6.23376Z" fill="#F51616" stroke="white" stroke-width="0.5"/>
</svg>
