<svg width="22" height="22" viewBox="0 0 22 22" fill="none" xmlns="http://www.w3.org/2000/svg">
<path fill-rule="evenodd" clip-rule="evenodd" d="M2 3.81098C2 2.8108 2.75552 2 3.6875 2H14.3125L20 6.81098V18.189C20 19.1892 19.2445 20 18.3125 20H3.6875C2.75552 20 2 19.1892 2 18.189V3.81098ZM3.6875 3.20728H14L18.875 7.25608V18.189C18.875 18.5224 18.6232 18.7926 18.3125 18.7926H3.6875C3.37684 18.7926 3.125 18.5224 3.125 18.189V3.81093C3.125 3.47754 3.37684 3.20728 3.6875 3.20728Z" fill="#8F94AC"/>
<path d="M14.4383 9.941C14.4568 9.797 14.4707 9.653 14.4707 9.5C14.4707 9.347 14.4568 9.203 14.4383 9.059L15.4145 8.3165C15.5024 8.249 15.5255 8.1275 15.47 8.0285L14.5447 6.4715C14.4892 6.3725 14.3643 6.3365 14.2625 6.3725L13.1106 6.8225C12.87 6.6425 12.611 6.494 12.3288 6.3815L12.153 5.189C12.1391 5.081 12.0419 5 11.9263 5H10.0758C9.96012 5 9.86297 5.081 9.84909 5.189L9.67329 6.3815C9.39109 6.494 9.13202 6.647 8.89146 6.8225L7.73952 6.3725C7.63312 6.332 7.51284 6.3725 7.45732 6.4715L6.53207 8.0285C6.47193 8.1275 6.49969 8.249 6.58759 8.3165L7.56373 9.059C7.54522 9.203 7.53134 9.3515 7.53134 9.5C7.53134 9.6485 7.54522 9.797 7.56373 9.941L6.58759 10.6835C6.49969 10.751 6.47656 10.8725 6.53207 10.9715L7.45732 12.5285C7.51284 12.6275 7.63775 12.6635 7.73952 12.6275L8.89146 12.1775C9.13202 12.3575 9.39109 12.506 9.67329 12.6185L9.84909 13.811C9.86297 13.919 9.96012 14 10.0758 14H11.9263C12.0419 14 12.1391 13.919 12.153 13.811L12.3288 12.6185C12.611 12.506 12.87 12.353 13.1106 12.1775L14.2625 12.6275C14.3689 12.668 14.4892 12.6275 14.5447 12.5285L15.47 10.9715C15.5255 10.8725 15.5024 10.751 15.4145 10.6835L14.4383 9.941ZM11.001 11.075C10.1082 11.075 9.38184 10.3685 9.38184 9.5C9.38184 8.6315 10.1082 7.925 11.001 7.925C11.8939 7.925 12.6202 8.6315 12.6202 9.5C12.6202 10.3685 11.8939 11.075 11.001 11.075Z" fill="#8F94AC"/>
<path d="M6 16C6 15.4477 6.3731 15 6.83333 15H15.1667C15.6269 15 16 15.4477 16 16C16 16.5523 15.6269 17 15.1667 17H11.3704H6.83333C6.3731 17 6 16.5523 6 16Z" fill="#8F94AC"/>
</svg>
