<svg width="22" height="22" viewBox="0 0 22 22" fill="none" xmlns="http://www.w3.org/2000/svg">
<path fill-rule="evenodd" clip-rule="evenodd" d="M2 3.81098C2 2.8108 2.75552 2 3.6875 2H14.3125L20 6.81098V18.189C20 19.1892 19.2445 20 18.3125 20H3.6875C2.75552 20 2 19.1892 2 18.189V3.81098ZM3.6875 3.20728H14L18.875 7.25608V18.189C18.875 18.5224 18.6232 18.7926 18.3125 18.7926H3.6875C3.37684 18.7926 3.125 18.5224 3.125 18.189V3.81093C3.125 3.47754 3.37684 3.20728 3.6875 3.20728Z" fill="#8F94AC"/>
<path d="M5 10.8571C5 10.3838 5.38376 10 5.85714 10V10C6.33053 10 6.71429 10.3838 6.71429 10.8571V18H5V10.8571Z" fill="#8F94AC"/>
<path d="M7.57129 14.8571C7.57129 14.3838 7.95504 14 8.42843 14V14C8.90182 14 9.28557 14.3838 9.28557 14.8571V18H7.57129V14.8571Z" fill="#8F94AC"/>
<path d="M10.1431 13.8571C10.1431 13.3838 10.5268 13 11.0002 13V13C11.4736 13 11.8574 13.3838 11.8574 13.8571V18H10.1431V13.8571Z" fill="#8F94AC"/>
<path d="M12.7144 12.8571C12.7144 12.3838 13.0981 12 13.5715 12V12C14.0449 12 14.4286 12.3838 14.4286 12.8571V18H12.7144V12.8571Z" fill="#8F94AC"/>
<path d="M15.2856 11.8571C15.2856 11.3838 15.6694 11 16.1428 11V11C16.6162 11 16.9999 11.3838 16.9999 11.8571V18H15.2856V11.8571Z" fill="#8F94AC"/>
<path d="M7.73389 9.06426H12.0641V4.73401C13.7392 5.07402 14.9999 6.55494 14.9999 8.33031C14.9999 10.357 13.3569 12 11.3302 12C9.55482 12 8.0739 10.7393 7.73389 9.06426Z" fill="#8F94AC"/>
<path d="M11.0336 4C8.80591 4 7 5.80591 7 8.03361H11.0336V4Z" fill="#8F94AC"/>
</svg>
