<svg width="25" height="24" viewBox="0 0 25 24" fill="none" xmlns="http://www.w3.org/2000/svg">
<path d="M19.4716 4.94061C17.4345 2.90349 14.5475 1.7287 11.3731 2.05364C6.7864 2.51606 3.01209 6.24038 2.49968 10.827C1.81231 16.8884 6.49895 22 12.4104 22C16.3971 22 19.8215 19.6629 21.4212 16.301C21.8212 15.4637 21.2213 14.5014 20.2964 14.5014C19.834 14.5014 19.3966 14.7513 19.1966 15.1637C17.7844 18.2007 14.3975 20.1253 10.6982 19.3005C7.92369 18.6881 5.6866 16.426 5.09921 13.6515C4.0494 8.80241 7.73623 4.5032 12.4104 4.5032C14.485 4.5032 16.3347 5.36554 17.6844 6.72779L15.7973 8.61494C15.0099 9.4023 15.5598 10.7521 16.6721 10.7521H21.1588C21.8462 10.7521 22.4085 10.1897 22.4085 9.50228V5.0156C22.4085 3.9033 21.0588 3.34091 20.2714 4.12826L19.4716 4.94061Z" fill="white"/>
</svg>
