<svg width="48" height="48" viewBox="0 0 48 48" fill="none" xmlns="http://www.w3.org/2000/svg">
<g clip-path="url(#clip0_1476_20255)">
<path fill-rule="evenodd" clip-rule="evenodd" d="M45 3H3V45H45V3ZM0 0V48H48V0H0Z" fill="white"/>
<path fill-rule="evenodd" clip-rule="evenodd" d="M23.9998 12C15.8453 12 8.88341 17.0723 6.06307 24.2291L5.99976 24.3898L6.06307 24.5505C8.88341 31.7073 15.8453 36.7796 23.9998 36.7796C32.1542 36.7796 39.1161 31.7073 41.9364 24.5505L41.9998 24.3898L41.9364 24.2291C39.1161 17.0723 32.1542 12 23.9998 12ZM23.9998 33.5128C17.6368 33.5128 12.137 29.7906 9.55402 24.3898C12.137 18.9889 17.6368 15.2668 23.9998 15.2668C30.3628 15.2668 35.8625 18.989 38.4455 24.3898C35.8625 29.7906 30.3627 33.5128 23.9998 33.5128ZM29.9998 24C29.9998 27.3137 27.3135 30 23.9998 30C20.6861 30 17.9998 27.3137 17.9998 24C17.9998 20.6863 20.6861 18 23.9998 18C27.3135 18 29.9998 20.6863 29.9998 24ZM24 26C25.1046 26 26 25.1046 26 24C26 22.8954 25.1046 22 24 22C22.8954 22 22 22.8954 22 24C22 25.1046 22.8954 26 24 26Z" fill="white"/>
</g>
<defs>
<clipPath id="clip0_1476_20255">
<rect width="48" height="48" fill="white"/>
</clipPath>
</defs>
</svg>
