<?xml version="1.0" encoding="utf-8"?>
<!-- Svg Vector Icons : http://www.onlinewebfonts.com/icon -->
<!DOCTYPE svg PUBLIC "-//W3C//DTD SVG 1.1//EN" "http://www.w3.org/Graphics/SVG/1.1/DTD/svg11.dtd">
<svg version="1.1" xmlns="http://www.w3.org/2000/svg" xmlns:xlink="http://www.w3.org/1999/xlink" x="0px" y="0px" viewBox="0 0 1000 1000" enable-background="new 0 0 1000 1000" xml:space="preserve">
<metadata> Svg Vector Icons : http://www.onlinewebfonts.com/icon </metadata>
<g><path d="M981,937.1L816,772.1c70.5-80.7,113.2-186.4,113.2-302c0-253.8-205.8-459.6-459.6-459.6C215.8,10.5,10,216.3,10,470.1c0,253.8,205.8,459.6,459.6,459.6c116.1,0,222.2-43.1,303.1-114.1l165.1,165c5.9,5.9,13.8,9,21.6,9c7.9,0,15.7-3,21.6-9C993,968.5,993,949.1,981,937.1z M469.6,868.4c-53.8,0-106-10.5-155-31.3c-47.4-20-90-48.8-126.7-85.4c-36.7-36.6-65.3-79.2-85.4-126.7c-20.7-49-31.2-101.1-31.2-154.9c0-53.8,10.5-106,31.3-155c20-47.4,48.8-90,85.4-126.7c36.6-36.7,79.2-65.3,126.7-85.4c49-20.8,101.2-31.3,155-31.3c53.8,0,106,10.5,155,31.3c47.4,20,90,48.8,126.7,85.4c36.7,36.6,65.3,79.2,85.4,126.7c20.6,49,31.1,101.2,31.1,155c0,53.8-10.5,106-31.3,155c-20,47.4-48.8,90-85.4,126.7c-36.6,36.7-79.2,65.3-126.7,85.4C575.6,857.8,523.4,868.4,469.6,868.4z"/><path d="M544.8,207.8c-8.6-8.7-20.4-13.6-32.7-13.6H306.8c-28.5,0-51.7,23.1-51.7,51.5v448.5c0,28.4,23.2,51.5,51.7,51.5h325.5c28.5,0,51.7-23.1,51.7-51.5V366.3c0-12.2-4.8-23.7-13.4-32.4L544.8,207.8z M622.8,684.5H316.4V255.6h189.5l116.9,117.1V684.5z"/><path d="M365.9,378.2h88c16.9,0,30.6-13.7,30.6-30.6c0-16.9-13.7-30.6-30.6-30.6h-88c-16.9,0-30.6,13.7-30.6,30.6C335.2,364.5,348.9,378.2,365.9,378.2z"/><path d="M335.2,470.1c0,16.9,13.7,30.6,30.6,30.6H564c16.9,0,30.6-13.7,30.6-30.6c0-16.9-13.7-30.6-30.6-30.6H365.9C348.9,439.4,335.2,453.1,335.2,470.1z"/><path d="M564,562H365.9c-16.9,0-30.6,13.7-30.6,30.6c0,16.9,13.7,30.6,30.6,30.6H564c16.9,0,30.6-13.7,30.6-30.6C594.6,575.7,580.8,562,564,562z"/></g>
</svg>