<svg width="22" height="22" viewBox="0 0 22 22" fill="none" xmlns="http://www.w3.org/2000/svg">
<g clip-path="url(#clip0_1452_18231)">
<rect x="5.4707" y="4.58337" width="1.5098" height="12.8333" rx="0.754902" fill="#8F94AC"/>
<line x1="5.08838" y1="6.09802" x2="7.36289" y2="6.09802" stroke="#8F94AC" stroke-width="1.5" stroke-linecap="round"/>
<line x1="4.71094" y1="8.36279" x2="7.74035" y2="8.36279" stroke="#8F94AC" stroke-width="1.5" stroke-linecap="round"/>
<line x1="4.3335" y1="10.6274" x2="8.11781" y2="10.6274" stroke="#8F94AC" stroke-width="1.5" stroke-linecap="round"/>
<path d="M14.883 11.2412C14.801 11.2412 14.7286 11.2817 14.6851 11.3448L14.6513 11.4124L12.1506 16.6618C12.0733 16.7924 12.0251 16.9366 12.0251 17.0943C12.0251 17.5945 12.4596 18 12.9954 18C13.4589 18 13.8499 17.6936 13.9416 17.2836L13.9465 17.27L15.1244 11.4665C15.1244 11.3403 15.0182 11.2412 14.883 11.2412V11.2412ZM8.20157 13.5211C8.44778 13.7509 8.84365 13.769 9.114 13.5617C10.4464 12.5434 12.1265 12.1288 13.7389 12.3181L14.3134 11.1105C12.2133 10.759 9.9878 11.2457 8.24502 12.5749C7.93605 12.8137 7.91674 13.2553 8.20157 13.5211V13.5211ZM17.7989 13.5211C18.0838 13.2553 18.0645 12.8137 17.7507 12.5749C17.0941 12.0748 16.37 11.6963 15.6072 11.4349L15.3513 12.7056C15.8968 12.9174 16.4086 13.1967 16.8817 13.5572C17.1617 13.7645 17.5527 13.7509 17.7989 13.5211V13.5211ZM15.8534 15.337C16.1431 15.0667 16.1237 14.6026 15.7858 14.3818C15.5637 14.2331 15.332 14.1069 15.0906 13.9943L14.8251 15.31C14.8782 15.3415 14.9313 15.3731 14.9796 15.4091C15.2548 15.5894 15.6217 15.5533 15.8534 15.337V15.337ZM10.1423 15.3325C10.3837 15.5578 10.7554 15.5758 11.0354 15.3911C11.4892 15.0937 12.0058 14.9135 12.532 14.8414L13.1499 13.5437C12.1216 13.5166 11.0837 13.787 10.2099 14.3728C9.87677 14.6026 9.85263 15.0622 10.1423 15.3325V15.3325Z" fill="#8F94AC"/>
<path fill-rule="evenodd" clip-rule="evenodd" d="M2 3.81098C2 2.8108 2.75552 2 3.6875 2H14.3125L20 6.81098V18.189C20 19.1892 19.2445 20 18.3125 20H3.6875C2.75552 20 2 19.1892 2 18.189V3.81098ZM3.6875 3.20728H14L18.875 7.25608V18.189C18.875 18.5224 18.6232 18.7926 18.3125 18.7926H3.6875C3.37684 18.7926 3.125 18.5224 3.125 18.189V3.81093C3.125 3.47754 3.37684 3.20728 3.6875 3.20728Z" fill="#8F94AC"/>
<path d="M10.3057 8.63885C10.3057 8.34738 10.5026 8.11108 10.7455 8.11108H15.1436C15.3865 8.11108 15.5834 8.34738 15.5834 8.63885C15.5834 8.93033 15.3865 9.16663 15.1436 9.16663H13.14H10.7455C10.5026 9.16663 10.3057 8.93033 10.3057 8.63885Z" fill="#8F94AC"/>
<path d="M10.3057 6.52777C10.3057 6.23629 10.5026 6 10.7455 6H15.1436C15.3865 6 15.5834 6.23629 15.5834 6.52777C15.5834 6.81925 15.3865 7.05554 15.1436 7.05554H10.7455C10.5026 7.05554 10.3057 6.81925 10.3057 6.52777Z" fill="#8F94AC"/>
</g>
<defs>
<clipPath id="clip0_1452_18231">
<rect width="22" height="22" fill="white"/>
</clipPath>
</defs>
</svg>
