<svg width="22" height="22" viewBox="0 0 22 22" fill="none" xmlns="http://www.w3.org/2000/svg">
<g clip-path="url(#clip0_1452_18437)">
<rect x="14.9077" y="2.10803" width="2.21607" height="18.4211" rx="1" fill="#8F94AC"/>
<line x1="13.9966" y1="4.87781" x2="18.0367" y2="4.87781" stroke="#8F94AC" stroke-width="1.5" stroke-linecap="round"/>
<line x1="13.4424" y1="8.39722" x2="18.5906" y2="8.39722" stroke="#8F94AC" stroke-width="1.5" stroke-linecap="round"/>
<line x1="12.8882" y1="11.917" x2="19.1444" y2="11.917" stroke="#8F94AC" stroke-width="1.5" stroke-linecap="round"/>
<mask id="mask0_1452_18437" style="mask-type:alpha" maskUnits="userSpaceOnUse" x="2" y="1" width="10" height="20">
<rect x="2" y="1" width="9.47368" height="20" fill="#D9D9D9"/>
</mask>
<g mask="url(#mask0_1452_18437)">
<path fill-rule="evenodd" clip-rule="evenodd" d="M16.1793 15.3125L16.4803 14.9399C16.6571 14.7209 16.8119 14.5148 16.9498 14.2901C17.0878 14.0655 17.201 13.835 17.3156 13.5793L17.5105 13.1443L20.1919 12.8565L20.2072 9.79354L17.5121 9.3445L17.3358 8.92153C17.1255 8.41702 16.8581 7.94962 16.5229 7.51836L16.2301 7.14173L17.2549 4.73384L14.4866 3.10594L12.7954 5.12197L12.3181 5.04577C11.7779 4.95952 11.224 4.95364 10.6604 5.00298L10.2021 5.04311L8.5358 2.93025L5.77958 4.38139L6.77879 6.83357L6.47782 7.20624C6.30146 7.4246 6.14164 7.63873 6.00826 7.85598C5.87488 8.07322 5.75673 8.31185 5.64252 8.56676L5.4476 9.0018L2.76617 9.28959L2.75092 12.3526L5.44594 12.8016L5.62227 13.2246C5.83258 13.7291 6.09995 14.1965 6.43522 14.6277L6.72802 15.0044L5.70317 17.4123L8.47149 19.0402L10.1627 17.0241L10.64 17.1003C11.1802 17.1866 11.7341 17.1925 12.2977 17.1431L12.756 17.103L14.4223 19.2159L17.1785 17.7647L16.1793 15.3125ZM17.8749 18.3311L14.5549 20.0791C14.3498 20.1937 14.0917 20.1382 13.9453 19.9559L12.3725 17.9615C11.7551 18.0156 11.1289 18.0109 10.5048 17.9113L8.91275 19.8091C8.77221 19.9831 8.51204 20.0226 8.30569 19.9013L5.00411 17.9598C4.79776 17.8385 4.71126 17.5951 4.80228 17.392L5.76703 15.1253C5.38414 14.6328 5.08111 14.1017 4.84487 13.535L2.30722 13.1121C2.08704 13.0682 1.90278 12.8743 1.90987 12.6432L1.92823 8.95377C1.93531 8.72266 2.10683 8.53478 2.33602 8.50914L4.87359 8.23678C4.99495 7.96593 5.12938 7.69207 5.28858 7.43277C5.44777 7.17347 5.63173 6.92874 5.81912 6.69671L4.87352 4.3761C4.78906 4.16601 4.86979 3.92474 5.08322 3.81497L8.40316 2.06702C8.60834 1.9524 8.86636 2.00788 9.01279 2.19023L10.5856 4.18455C11.203 4.1305 11.8292 4.13516 12.4533 4.2348L14.0453 2.337C14.1859 2.16298 14.4461 2.12347 14.6524 2.24482L17.954 4.1863C18.1603 4.30764 18.2468 4.551 18.1558 4.75414L17.1911 7.02082C17.574 7.51333 17.877 8.04444 18.1132 8.61113L20.6509 9.03395C20.871 9.07788 21.0553 9.27179 21.0482 9.5029L21.0299 13.1923C21.0228 13.4234 20.8513 13.6113 20.6221 13.637L18.0845 13.9093C17.9631 14.1802 17.8335 14.4462 17.6695 14.7133C17.5055 14.9805 17.3264 15.2174 17.139 15.4494L18.0846 17.77C18.169 17.9801 18.0801 18.2165 17.8749 18.3311ZM5.47379 4.54235L5.48065 4.53878ZM9.35817 14.5275C7.38659 13.3681 6.6894 10.8748 7.87048 8.95105C9.05156 7.02732 11.6283 6.45922 13.5999 7.6186C15.5715 8.77798 16.2687 11.2713 15.0876 13.1951C13.9065 15.1188 11.3298 15.6869 9.35817 14.5275ZM8.59016 9.37425C7.6591 10.8907 8.19758 12.8864 9.7906 13.8232C11.3836 14.7599 13.4369 14.2883 14.3679 12.7718C15.299 11.2553 14.7605 9.25969 13.1675 8.32293C11.5745 7.38616 9.52122 7.85776 8.59016 9.37425Z" fill="#8F94AC"/>
<path d="M5.47379 4.54235L5.48065 4.53878M16.4803 14.9399L16.1793 15.3125L17.1785 17.7647L14.4223 19.2159L12.756 17.103L12.2977 17.1431C11.7341 17.1925 11.1802 17.1866 10.64 17.1003L10.1627 17.0241L8.47149 19.0402L5.70317 17.4123L6.72802 15.0044L6.43522 14.6277C6.09995 14.1965 5.83258 13.7291 5.62227 13.2246L5.44594 12.8016L2.75092 12.3526L2.76617 9.28959L5.4476 9.0018L5.64252 8.56676C5.75673 8.31185 5.87488 8.07322 6.00826 7.85598C6.14164 7.63873 6.30146 7.4246 6.47782 7.20624L6.77879 6.83357L5.77958 4.38139L8.5358 2.93025L10.2021 5.04311L10.6604 5.00298C11.224 4.95364 11.7779 4.95952 12.3181 5.04577L12.7954 5.12197L14.4866 3.10594L17.2549 4.73384L16.2301 7.14173L16.5229 7.51836C16.8581 7.94962 17.1255 8.41702 17.3358 8.92153L17.5121 9.3445L20.2072 9.79354L20.1919 12.8565L17.5105 13.1443L17.3156 13.5793C17.201 13.835 17.0878 14.0655 16.9498 14.2901C16.8119 14.5148 16.6571 14.7209 16.4803 14.9399ZM14.5549 20.0791L17.8749 18.3311C18.0801 18.2165 18.169 17.9801 18.0846 17.77L17.139 15.4494C17.3264 15.2174 17.5055 14.9805 17.6695 14.7133C17.8335 14.4462 17.9631 14.1802 18.0845 13.9093L20.6221 13.637C20.8513 13.6113 21.0228 13.4234 21.0299 13.1923L21.0482 9.5029C21.0553 9.27179 20.871 9.07788 20.6509 9.03395L18.1132 8.61113C17.877 8.04444 17.574 7.51333 17.1911 7.02082L18.1558 4.75414C18.2468 4.551 18.1603 4.30764 17.954 4.1863L14.6524 2.24482C14.4461 2.12347 14.1859 2.16298 14.0453 2.337L12.4533 4.2348C11.8292 4.13516 11.203 4.1305 10.5856 4.18455L9.01279 2.19023C8.86636 2.00788 8.60834 1.9524 8.40316 2.06702L5.08322 3.81497C4.86979 3.92474 4.78906 4.16601 4.87352 4.3761L5.81912 6.69671C5.63173 6.92874 5.44777 7.17347 5.28858 7.43277C5.12938 7.69207 4.99495 7.96593 4.87359 8.23678L2.33602 8.50914C2.10683 8.53478 1.93531 8.72266 1.92823 8.95377L1.90987 12.6432C1.90278 12.8743 2.08704 13.0682 2.30722 13.1121L4.84487 13.535C5.08111 14.1017 5.38414 14.6328 5.76703 15.1253L4.80228 17.392C4.71126 17.5951 4.79776 17.8385 5.00411 17.9598L8.30569 19.9013C8.51204 20.0226 8.77221 19.9831 8.91275 19.8091L10.5048 17.9113C11.1289 18.0109 11.7551 18.0156 12.3725 17.9615L13.9453 19.9559C14.0917 20.1382 14.3498 20.1937 14.5549 20.0791ZM7.87048 8.95105C6.6894 10.8748 7.38659 13.3681 9.35817 14.5275C11.3298 15.6869 13.9065 15.1188 15.0876 13.1951C16.2687 11.2713 15.5715 8.77798 13.5999 7.6186C11.6283 6.45922 9.05156 7.02732 7.87048 8.95105ZM9.7906 13.8232C8.19758 12.8864 7.6591 10.8907 8.59016 9.37425C9.52122 7.85776 11.5745 7.38616 13.1675 8.32293C14.7605 9.25969 15.299 11.2553 14.3679 12.7718C13.4369 14.2883 11.3836 14.7599 9.7906 13.8232Z" stroke="#8F94AC" stroke-width="0.5"/>
</g>
</g>
<defs>
<clipPath id="clip0_1452_18437">
<rect width="22" height="22" fill="white"/>
</clipPath>
</defs>
</svg>
