<svg width="12" height="16" viewBox="0 0 12 16" fill="none" xmlns="http://www.w3.org/2000/svg">
<path d="M6.1875 10H5V6.5H6.1875C7.154 6.5 7.9375 7.2835 7.9375 8.25C7.9375 9.2165 7.154 10 6.1875 10Z" fill="#80939D"/>
<path d="M2 0H7.29289C7.55811 0 7.81246 0.105357 8 0.292893L11.7071 4C11.8946 4.18754 12 4.44189 12 4.70711V14C12 15.1046 11.1046 16 10 16H2C0.89543 16 0 15.1046 0 14V2C0 0.895431 0.89543 0 2 0ZM7.5 1.5V3.5C7.5 4.05228 7.94772 4.5 8.5 4.5H10.5L7.5 1.5ZM5 5.5C4.44772 5.5 4 5.94772 4 6.5V13C4 13.2761 4.22386 13.5 4.5 13.5C4.77614 13.5 5 13.2761 5 13V11H6.1875C7.70628 11 8.9375 9.76878 8.9375 8.25C8.9375 6.73122 7.70628 5.5 6.1875 5.5H5Z" fill="#80939D"/>
</svg>
