<svg width="18" height="18" viewBox="0 0 18 18" fill="none" xmlns="http://www.w3.org/2000/svg">
<path d="M16.3125 1.20732C16.6232 1.20732 16.875 1.47758 16.875 1.81098V16.189C16.875 16.5224 16.6232 16.7927 16.3125 16.7927H1.6875C1.37684 16.7927 1.125 16.5224 1.125 16.189V1.81098C1.125 1.47758 1.37684 1.20732 1.6875 1.20732H16.3125ZM1.6875 0C0.75552 0 0 0.810802 0 1.81098V16.189C0 17.1892 0.75552 18 1.6875 18H16.3125C17.2445 18 18 17.1892 18 16.189V1.81098C18 0.810802 17.2445 0 16.3125 0H1.6875Z" fill="#8F94AC"/>
<path d="M7.875 4.22561C7.875 3.89222 8.12684 3.62195 8.4375 3.62195H14.0625C14.3732 3.62195 14.625 3.89222 14.625 4.22561C14.625 4.559 14.3732 4.82927 14.0625 4.82927H8.4375C8.12684 4.82927 7.875 4.559 7.875 4.22561Z" fill="#8F94AC"/>
<path d="M6.1915 3.1951C6.41117 3.43084 6.41117 3.81306 6.1915 4.0488L4.504 5.85978C4.28433 6.09552 3.92817 6.09552 3.7085 5.85978L3.146 5.25612C2.92633 5.02038 2.92633 4.63816 3.146 4.40242C3.36567 4.16667 3.72183 4.16667 3.9415 4.40242L4.10625 4.57922L5.396 3.1951C5.61567 2.95936 5.97183 2.95936 6.1915 3.1951Z" fill="#8F94AC"/>
<path d="M7.875 9.05488C7.875 8.72149 8.12684 8.45122 8.4375 8.45122H14.0625C14.3732 8.45122 14.625 8.72149 14.625 9.05488C14.625 9.38827 14.3732 9.65854 14.0625 9.65854H8.4375C8.12684 9.65854 7.875 9.38827 7.875 9.05488Z" fill="#8F94AC"/>
<path d="M6.1915 8.02437C6.41117 8.26011 6.41117 8.64233 6.1915 8.87807L4.504 10.689C4.28433 10.9248 3.92817 10.9248 3.7085 10.689L3.146 10.0854C2.92633 9.84964 2.92633 9.46743 3.146 9.23169C3.36567 8.99594 3.72183 8.99594 3.9415 9.23169L4.10625 9.40849L5.396 8.02437C5.61567 7.78863 5.97183 7.78863 6.1915 8.02437Z" fill="#8F94AC"/>
<path d="M7.875 13.4451C7.875 13.1117 8.12684 12.8415 8.4375 12.8415H14.0625C14.3732 12.8415 14.625 13.1117 14.625 13.4451C14.625 13.7785 14.3732 14.0488 14.0625 14.0488H8.4375C8.12684 14.0488 7.875 13.7785 7.875 13.4451Z" fill="#8F94AC"/>
<path d="M6.1915 12.4146C6.41117 12.6504 6.41117 13.0326 6.1915 13.2683L4.504 15.0793C4.28433 15.315 3.92817 15.315 3.7085 15.0793L3.146 14.4756C2.92633 14.2399 2.92633 13.8577 3.146 13.6219C3.36567 13.3862 3.72183 13.3862 3.9415 13.6219L4.10625 13.7987L5.396 12.4146C5.61567 12.1789 5.97183 12.1789 6.1915 12.4146Z" fill="#8F94AC"/>
</svg>
