<svg width="24" height="24" viewBox="0 0 24 24" fill="none" xmlns="http://www.w3.org/2000/svg">
<path d="M19.9731 2.10593C20.1462 2.22199 20.25 2.41664 20.25 2.625V12C20.25 12.2556 20.0944 12.4854 19.8571 12.5803L19.625 12C19.8571 12.5803 19.8571 12.5803 19.8571 12.5803L19.8539 12.5816L19.8462 12.5846L19.8176 12.5959C19.7929 12.6056 19.757 12.6196 19.7109 12.6373C19.6187 12.6726 19.4859 12.7227 19.321 12.7827C18.9916 12.9025 18.5321 13.0623 18.0119 13.2224C16.9927 13.536 15.6644 13.875 14.625 13.875C13.5666 13.875 12.6896 13.5241 11.9277 13.2192L11.8929 13.2053C11.1003 12.8883 10.4254 12.625 9.625 12.625C8.74981 12.625 7.57698 12.9116 6.57819 13.2219C6.08838 13.374 5.65731 13.5264 5.34886 13.6407C5.31431 13.6535 5.28133 13.6659 5.25 13.6776V21.375C5.25 21.7202 4.97018 22 4.625 22C4.27982 22 4 21.7202 4 21.375V2.625C4 2.27982 4.27982 2 4.625 2C4.97018 2 5.25 2.27982 5.25 2.625V2.97782C5.53263 2.87893 5.87015 2.76584 6.23807 2.65264C7.25727 2.33904 8.58564 2 9.625 2C10.6759 2 11.5299 2.34616 12.2762 2.6487C12.2944 2.65607 12.3125 2.66341 12.3305 2.67071C13.1073 2.98533 13.7848 3.25 14.625 3.25C15.5002 3.25 16.673 2.96342 17.6718 2.65314C18.1616 2.50098 18.5927 2.34858 18.9011 2.23427C19.0552 2.17718 19.1782 2.12977 19.262 2.09687C19.3039 2.08042 19.3361 2.06762 19.3574 2.05906L19.3811 2.04949L19.3866 2.04724L19.3878 2.04676" fill="#515D64"/>
</svg>
