<svg width="20" height="24" viewBox="0 0 20 24" fill="none" xmlns="http://www.w3.org/2000/svg">
<g clip-path="url(#clip0_1279_5536)">
<path d="M2 7C3.1 7 4 6.1 4 5C4 3.9 3.1 3 2 3C0.9 3 0 3.9 0 5C0 6.1 0.9 7 2 7ZM2 10C0.9 10 0 10.9 0 12C0 13.1 0.9 14 2 14C3.1 14 4 13.1 4 12C4 10.9 3.1 10 2 10ZM2 17C0.9 17 0 17.9 0 19C0 20.1 0.9 21 2 21C3.1 21 4 20.1 4 19C4 17.9 3.1 17 2 17Z" fill="#434969"/>
</g>
<defs>
<clipPath id="clip0_1279_5536">
<rect width="20" height="24" fill="white"/>
</clipPath>
</defs>
</svg>
