<svg width="17" height="17" viewBox="0 0 17 17" fill="none" xmlns="http://www.w3.org/2000/svg">
<path d="M16.7153 8.51831C16.7153 4.10003 13.1336 0.518311 8.71533 0.518311C4.29705 0.518311 0.715332 4.10003 0.715332 8.51831C0.715332 12.9366 4.29705 16.5183 8.71533 16.5183C13.1336 16.5183 16.7153 12.9366 16.7153 8.51831ZM9.21533 12.0183C9.21533 12.2945 8.99148 12.5183 8.71533 12.5183C8.43919 12.5183 8.21533 12.2945 8.21533 12.0183V6.22542L6.06889 8.37186C5.87362 8.56713 5.55704 8.56713 5.36178 8.37186C5.16652 8.1766 5.16652 7.86002 5.36178 7.66476L8.36178 4.66476C8.55704 4.46949 8.87362 4.46949 9.06889 4.66476L12.0689 7.66476C12.2641 7.86002 12.2641 8.1766 12.0689 8.37186C11.8736 8.56713 11.557 8.56713 11.3618 8.37186L9.21533 6.22542V12.0183Z" fill="#FFA133"/>
</svg>
