<svg width="24" height="24" viewBox="0 0 24 24" fill="none" xmlns="http://www.w3.org/2000/svg">
<path d="M15.9438 14.2834C16.8828 13.0049 17.4375 11.4266 17.4375 9.71875C17.4375 5.4558 13.9817 2 9.71875 2C5.4558 2 2 5.4558 2 9.71875C2 13.9817 5.4558 17.4375 9.71875 17.4375C11.4271 17.4375 13.0058 16.8825 14.2844 15.9431L14.2834 15.9438C14.3184 15.9913 14.3574 16.0368 14.4004 16.0798L18.9728 20.6522C19.4366 21.1159 20.1884 21.1159 20.6522 20.6522C21.1159 20.1884 21.1159 19.4366 20.6522 18.9728L16.0798 14.4004C16.0368 14.3574 15.9913 14.3184 15.9438 14.2834ZM16.25 9.71875C16.25 13.3259 13.3259 16.25 9.71875 16.25C6.11164 16.25 3.1875 13.3259 3.1875 9.71875C3.1875 6.11164 6.11164 3.1875 9.71875 3.1875C13.3259 3.1875 16.25 6.11164 16.25 9.71875Z" fill="#515D64"/>
<path d="M5.44434 10C5.44434 8.66667 6.24434 6 9.44434 6" stroke="#515D64" stroke-width="1.2" stroke-linecap="round"/>
</svg>
