<svg width="22" height="22" viewBox="0 0 22 22" fill="none" xmlns="http://www.w3.org/2000/svg">
<path fill-rule="evenodd" clip-rule="evenodd" d="M20.4202 10.5134C20.4991 10.6161 20.5782 10.7188 20.659 10.8199C20.8051 11.0029 20.9476 11.1869 21.0498 11.3973V15.9392C20.9042 16.3295 20.613 16.4699 20.2058 16.4578C19.9355 16.4496 19.6649 16.4511 19.3943 16.4526C19.1606 16.4538 18.927 16.4551 18.6935 16.4502C18.5336 16.4471 18.4616 16.4882 18.4059 16.6463C18.0431 17.6708 17.1271 18.3333 16.0287 18.3835C14.9726 18.4322 13.9907 17.8366 13.5339 16.8709C13.5313 16.8654 13.5284 16.8599 13.5255 16.8545C13.5186 16.8415 13.5117 16.8287 13.5099 16.8151C13.4675 16.4801 13.257 16.4421 12.9571 16.4471L11.5596 16.4527C11.0231 16.4431 10.6961 15.9752 10.9071 15.5266C11.0369 15.2503 11.274 15.1403 11.5698 15.1393L13.2243 15.1408C13.327 15.1408 13.3745 15.117 13.4103 15.0095C13.7863 13.8822 14.7534 13.1715 15.9163 13.1578C17.0612 13.1441 18.0554 13.8695 18.4437 15.008C18.4769 15.1058 18.5162 15.1454 18.6256 15.1423C18.9454 15.1342 19.2662 15.1352 19.5861 15.1418C19.7005 15.1444 19.7368 15.1119 19.7363 14.9948C19.7317 13.9607 19.7327 12.9266 19.7347 11.8926C19.7347 11.8145 19.7179 11.7506 19.6683 11.6883L19.5822 11.5796C19.3333 11.2656 19.0842 10.9513 18.8437 10.6309C18.7777 10.5426 18.701 10.5433 18.6168 10.544L18.5934 10.5442L17.3876 10.5441C16.1819 10.544 14.9763 10.5439 13.7705 10.5447C13.6264 10.5447 13.4844 10.5386 13.3531 10.4712C13.0705 10.3262 12.9821 10.0854 12.9832 9.78331C12.9851 9.18283 12.985 8.58234 12.985 7.98185C12.9849 7.163 12.9848 6.34414 12.9898 5.52529C12.9913 5.34483 12.9454 5.30478 12.7665 5.30529C11.6109 5.30741 11.3955 5.3086 11.4651 5.30922L10.5616 5.30884C10.4604 5.30884 10.3562 5.30732 10.2576 5.28603C9.92961 5.21607 9.72883 4.94234 9.74671 4.60423C9.76357 4.28894 10.0052 4.04258 10.3342 4.00862C10.4155 4.00051 10.4972 4 10.579 4H13.4787C14.0719 4 14.3028 4.23216 14.3038 4.82322C14.304 4.86715 14.2999 4.91523 14.2957 4.96364C14.2853 5.08505 14.2747 5.20848 14.3309 5.27335C14.3972 5.34952 14.5238 5.33452 14.649 5.31969C14.7004 5.3136 14.7517 5.30753 14.7984 5.30782L15.1481 5.31029C15.7538 5.31481 16.3592 5.31932 16.9646 5.30529C17.3652 5.29616 17.6094 5.46446 17.7826 5.81321C18.06 6.37161 18.3427 6.92741 18.6253 7.48325C18.8872 7.99813 19.149 8.51304 19.4067 9.03005C19.5886 9.39502 19.7935 9.73972 20.0561 10.0535C20.1815 10.2032 20.3008 10.3583 20.4202 10.5134ZM14.3013 9.11067C14.3013 9.20749 14.3294 9.23739 14.4286 9.23739C15.4828 9.2347 16.537 9.23519 17.6154 9.23569L18.0345 9.23587L17.8362 8.84396C17.468 8.11641 17.1092 7.40739 16.7516 6.69829C16.7205 6.63645 16.6816 6.61313 16.6101 6.61364C15.8816 6.61668 15.153 6.61719 14.4245 6.61313C14.3228 6.61263 14.3008 6.64608 14.3013 6.73986C14.3044 7.53013 14.3049 8.3204 14.3013 9.11067ZM14.6099 15.7739C14.6069 16.4912 15.2097 17.0848 15.9362 17.0797C16.6551 17.0747 17.2452 16.4887 17.2467 15.7775C17.2482 15.0587 16.6479 14.4686 15.9194 14.4732C15.199 14.4778 14.613 15.0597 14.6099 15.7739Z" fill="#8F94AC"/>
<path d="M2.01367 11.9452H7.99472V5.96411C10.3083 6.43375 12.0497 8.47923 12.0497 10.9314C12.0497 13.7308 9.78035 16.0001 6.98098 16.0001C4.52879 16.0001 2.48331 14.2588 2.01367 11.9452Z" fill="#8F94AC"/>
<path d="M6.57133 4.9502C3.49437 4.9502 1 7.44456 1 10.5215H6.57133V4.9502Z" fill="#8F94AC"/>
</svg>
