<svg width="22" height="22" viewBox="0 0 22 22" fill="none" xmlns="http://www.w3.org/2000/svg">
<path fill-rule="evenodd" clip-rule="evenodd" d="M20.1746 10.5134C20.2535 10.6161 20.3326 10.7188 20.4134 10.8199C20.5595 11.0029 20.702 11.1869 20.8042 11.3973V15.9392C20.6586 16.3295 20.3674 16.4699 19.9602 16.4578C19.6899 16.4496 19.4193 16.4511 19.1487 16.4526C18.915 16.4538 18.6814 16.4551 18.4479 16.4502C18.288 16.4471 18.216 16.4882 18.1603 16.6463C17.7975 17.6708 16.8815 18.3333 15.783 18.3835C14.727 18.4322 13.7451 17.8366 13.2883 16.8709C13.2857 16.8654 13.2828 16.8599 13.2799 16.8545C13.273 16.8415 13.2661 16.8287 13.2643 16.8151C13.2219 16.4801 13.0114 16.4421 12.7115 16.4471L11.3139 16.4527C10.7775 16.4431 10.4505 15.9752 10.6615 15.5266C10.7913 15.2503 11.0284 15.1403 11.3242 15.1393L12.9787 15.1408C13.0814 15.1408 13.1289 15.117 13.1647 15.0095C13.5407 13.8822 14.5078 13.1715 15.6706 13.1578C16.8156 13.1441 17.8098 13.8695 18.1981 15.008C18.2313 15.1058 18.2706 15.1454 18.38 15.1423C18.6998 15.1342 19.0206 15.1352 19.3405 15.1418C19.4549 15.1444 19.4912 15.1119 19.4907 14.9948C19.4861 13.9607 19.4871 12.9266 19.4891 11.8926C19.4891 11.8145 19.4723 11.7506 19.4227 11.6883L19.3366 11.5796C19.0877 11.2656 18.8386 10.9513 18.5981 10.6309C18.5321 10.5426 18.4554 10.5433 18.3712 10.544L18.3478 10.5442L17.142 10.5441C15.9363 10.544 14.7307 10.5439 13.5249 10.5447C13.3808 10.5447 13.2388 10.5386 13.1075 10.4712C12.8249 10.3262 12.7365 10.0854 12.7376 9.78331C12.7395 9.18283 12.7394 8.58234 12.7394 7.98185C12.7393 7.163 12.7392 6.34414 12.7442 5.52529C12.7457 5.34483 12.6998 5.30478 12.5209 5.30529C11.3653 5.30741 11.1498 5.3086 11.2195 5.30922L10.316 5.30884C10.2148 5.30884 10.1106 5.30732 10.012 5.28603C9.68401 5.21607 9.48322 4.94234 9.5011 4.60423C9.51796 4.28894 9.75962 4.04258 10.0886 4.00862C10.1699 4.00051 10.2516 4 10.3334 4H13.2331C13.8263 4 14.0572 4.23216 14.0582 4.82322C14.0584 4.86715 14.0543 4.91523 14.0501 4.96364C14.0397 5.08505 14.0291 5.20848 14.0853 5.27335C14.1516 5.34952 14.2782 5.33452 14.4034 5.31969C14.4548 5.3136 14.5061 5.30753 14.5528 5.30782L14.9025 5.31029C15.5082 5.31481 16.1136 5.31932 16.719 5.30529C17.1196 5.29616 17.3638 5.46446 17.537 5.81321C17.8144 6.37161 18.0971 6.92741 18.3797 7.48325C18.6416 7.99813 18.9034 8.51304 19.1611 9.03005C19.343 9.39502 19.5479 9.73972 19.8105 10.0535C19.9359 10.2032 20.0552 10.3583 20.1746 10.5134ZM14.0557 9.11067C14.0557 9.20749 14.0838 9.23739 14.183 9.23739C15.2372 9.2347 16.2914 9.23519 17.3698 9.23569L17.7889 9.23587L17.5906 8.84396C17.2224 8.11641 16.8636 7.40739 16.506 6.69829C16.4749 6.63645 16.436 6.61313 16.3645 6.61364C15.636 6.61668 14.9074 6.61719 14.1789 6.61313C14.0772 6.61263 14.0552 6.64608 14.0557 6.73986C14.0588 7.53013 14.0593 8.3204 14.0557 9.11067ZM14.3643 15.7739C14.3613 16.4912 14.9641 17.0848 15.6906 17.0797C16.4095 17.0747 16.9996 16.4887 17.0011 15.7775C17.0026 15.0587 16.4023 14.4686 15.6738 14.4732C14.9534 14.4778 14.3674 15.0597 14.3643 15.7739Z" fill="#8F94AC"/>
<path d="M10.2024 11.039C10.225 10.863 10.242 10.687 10.242 10.5C10.242 10.313 10.225 10.137 10.2024 9.961L11.3954 9.0535C11.5029 8.971 11.5311 8.8225 11.4633 8.7015L10.3324 6.7985C10.2646 6.6775 10.1119 6.6335 9.98752 6.6775L8.57961 7.2275C8.28558 7.0075 7.96894 6.826 7.62403 6.6885L7.40917 5.231C7.3922 5.099 7.27346 5 7.13211 5H4.87039C4.72903 5 4.61029 5.099 4.59333 5.231L4.37847 6.6885C4.03355 6.826 3.71691 7.013 3.42289 7.2275L2.01497 6.6775C1.88492 6.628 1.73791 6.6775 1.67006 6.7985L0.539202 8.7015C0.465696 8.8225 0.499622 8.971 0.607054 9.0535L1.80011 9.961C1.77749 10.137 1.76053 10.3185 1.76053 10.5C1.76053 10.6815 1.77749 10.863 1.80011 11.039L0.607054 11.9465C0.499622 12.029 0.471351 12.1775 0.539202 12.2985L1.67006 14.2015C1.73791 14.3225 1.89058 14.3665 2.01497 14.3225L3.42289 13.7725C3.71691 13.9925 4.03355 14.174 4.37847 14.3115L4.59333 15.769C4.61029 15.901 4.72903 16 4.87039 16H7.13211C7.27346 16 7.3922 15.901 7.40917 15.769L7.62403 14.3115C7.96894 14.174 8.28558 13.987 8.57961 13.7725L9.98752 14.3225C10.1176 14.372 10.2646 14.3225 10.3324 14.2015L11.4633 12.2985C11.5311 12.1775 11.5029 12.029 11.3954 11.9465L10.2024 11.039ZM6.00125 12.425C4.90997 12.425 4.02225 11.5615 4.02225 10.5C4.02225 9.4385 4.90997 8.575 6.00125 8.575C7.09253 8.575 7.98025 9.4385 7.98025 10.5C7.98025 11.5615 7.09253 12.425 6.00125 12.425Z" fill="#8F94AC"/>
</svg>
