<svg width="20" height="14" viewBox="0 0 20 14" fill="none" xmlns="http://www.w3.org/2000/svg">
<path d="M1 1.9375C1 1.00552 1.75552 0.25 2.6875 0.25H12.8125C13.7445 0.25 14.5 1.00552 14.5 1.9375V3.625H15.6468C16.1594 3.625 16.6443 3.85803 16.9645 4.25833L18.6302 6.34046C18.8696 6.63967 19 7.01145 19 7.39463V9.8125C19 10.7445 18.2445 11.5 17.3125 11.5H16.75C16.75 12.7426 15.7426 13.75 14.5 13.75C13.2574 13.75 12.25 12.7426 12.25 11.5H6.625C6.625 12.7426 5.61764 13.75 4.375 13.75C3.13236 13.75 2.125 12.7426 2.125 11.5C2.125 11.4681 2.12567 11.4363 2.12698 11.4047C1.47053 11.1736 1 10.548 1 9.8125V1.9375ZM2.4557 10.3252C2.85133 9.68022 3.56292 9.25 4.375 9.25C5.20782 9.25 5.93495 9.70247 6.32399 10.375H12.551C12.7486 10.0334 13.0334 9.7486 13.375 9.55101V1.9375C13.375 1.62684 13.1232 1.375 12.8125 1.375H2.6875C2.37684 1.375 2.125 1.62684 2.125 1.9375V9.8125C2.125 10.0405 2.26067 10.2368 2.4557 10.3252ZM14.5 9.25C15.3328 9.25 16.06 9.70247 16.449 10.375H17.3125C17.6232 10.375 17.875 10.1232 17.875 9.8125V7.39463C17.875 7.2669 17.8315 7.14298 17.7517 7.04324L16.086 4.96111C15.9793 4.82768 15.8177 4.75 15.6468 4.75H14.5V9.25ZM4.375 10.375C3.75368 10.375 3.25 10.8787 3.25 11.5C3.25 12.1213 3.75368 12.625 4.375 12.625C4.99632 12.625 5.5 12.1213 5.5 11.5C5.5 10.8787 4.99632 10.375 4.375 10.375ZM14.5 10.375C13.8787 10.375 13.375 10.8787 13.375 11.5C13.375 12.1213 13.8787 12.625 14.5 12.625C15.1213 12.625 15.625 12.1213 15.625 11.5C15.625 10.8787 15.1213 10.375 14.5 10.375Z" fill="#FFA133" stroke="#FFA133" stroke-width="0.5"/>
</svg>
