<svg width="12" height="13" viewBox="0 0 12 13" fill="none" xmlns="http://www.w3.org/2000/svg">
<path d="M1.125 0.8125C0.50368 0.8125 0 1.31618 0 1.9375V10.5625C0 10.9767 0.335786 11.3125 0.75 11.3125V1.9375C0.75 1.73039 0.917893 1.5625 1.125 1.5625H10.5C10.5 1.14829 10.1642 0.8125 9.75 0.8125H1.125Z" fill="#FF8A00"/>
<path d="M2.625 2.3125C2.00368 2.3125 1.5 2.81618 1.5 3.4375V11.6875C1.5 12.3088 2.00368 12.8125 2.625 12.8125H7.18934C7.48771 12.8125 7.77386 12.694 7.98484 12.483L11.6705 8.79733C11.8815 8.58636 12 8.30021 12 8.00184V3.4375C12 2.81618 11.4963 2.3125 10.875 2.3125H2.625ZM2.25 3.4375C2.25 3.23039 2.41789 3.0625 2.625 3.0625H10.875C11.0821 3.0625 11.25 3.23039 11.25 3.4375V7.5625H7.875C7.25368 7.5625 6.75 8.06618 6.75 8.6875V12.0625H2.625C2.41789 12.0625 2.25 11.8946 2.25 11.6875V3.4375ZM7.5 11.9072V8.6875C7.5 8.48039 7.66789 8.3125 7.875 8.3125H11.0947L7.5 11.9072Z" fill="#FF8A00"/>
</svg>
