<svg width="22" height="22" viewBox="0 0 22 22" fill="none" xmlns="http://www.w3.org/2000/svg">
<path d="M5.95409 17.7992C5.87385 18.2565 6.32509 18.6145 6.72361 18.4097L11.25 16.0832L15.7764 18.4097C16.1749 18.6145 16.6261 18.2565 16.5459 17.7992L15.6903 12.9219L19.3227 9.46039C19.6621 9.13689 19.4864 8.54541 19.0316 8.4808L13.9801 7.76319L11.7277 3.30144C11.5248 2.89952 10.9752 2.89952 10.7723 3.30144L8.51992 7.76319L3.46836 8.4808C3.01359 8.54541 2.83787 9.13689 3.17734 9.46039L6.80974 12.9219L5.95409 17.7992ZM11.012 14.9446L7.21103 16.8982L7.92698 12.8172C7.96073 12.6248 7.89727 12.4278 7.75914 12.2962L4.76147 9.43954L8.94041 8.84588C9.11316 8.82134 9.264 8.71101 9.34549 8.54958L11.25 4.77692L13.1545 8.54958C13.236 8.71101 13.3868 8.82134 13.5596 8.84588L17.7385 9.43954L14.7409 12.2962C14.6027 12.4278 14.5393 12.6248 14.573 12.8172L15.289 16.8982L11.488 14.9446C11.3379 14.8674 11.1621 14.8674 11.012 14.9446Z" fill="#8F94AC" stroke="#8F94AC" stroke-width="0.4"/>
</svg>
