<svg width="24" height="24" viewBox="0 0 24 24" fill="none" xmlns="http://www.w3.org/2000/svg">
<path d="M12.027 24C5.41091 24.01 0.0125762 18.6616 2.19188e-05 12.0853C-0.0125324 5.41612 5.36948 -0.00125409 12.0057 2.17769e-07C18.6142 0.00125453 23.9975 5.40107 23.9988 12.0326C24.0013 18.624 18.6331 23.9912 12.027 24ZM21.6913 10.5262C21.1941 6.43964 17.3249 2.00063 11.5751 2.21135C6.1491 2.40953 2.6678 6.91126 2.33512 10.5274C3.88306 10.5274 5.42598 10.5161 6.96764 10.535C7.34804 10.54 7.58406 10.4409 7.74601 10.0759C8.0925 9.29696 8.73152 9.01348 9.57014 9.02603C11.1583 9.05111 12.7489 9.05864 14.337 9.02352C15.2509 9.00345 15.9075 9.31076 16.3193 10.1486C16.4009 10.3155 16.6432 10.5061 16.814 10.5099C18.4209 10.5362 20.0278 10.5262 21.6913 10.5262ZM13.0653 21.7623C18.4473 21.2418 21.8319 16.3336 21.6825 12.7689C21.5896 12.7463 21.4917 12.7024 21.3925 12.7024C19.9488 12.6961 18.505 12.6761 17.0625 12.715C16.824 12.7212 16.5315 12.9395 16.3658 13.1427C15.4819 14.2289 14.6634 15.3678 13.757 16.434C13.2197 17.0662 13.0025 17.7197 13.0502 18.5425C13.1117 19.5974 13.0653 20.6598 13.0653 21.7623ZM10.926 21.7523C10.926 20.4152 10.9461 19.1257 10.9109 17.8376C10.9022 17.5328 10.7779 17.1816 10.5946 16.937C9.6304 15.6526 8.64615 14.3819 7.62549 13.1427C7.43341 12.9094 7.04924 12.7225 6.74669 12.7112C5.4536 12.6635 4.158 12.6886 2.86365 12.6949C2.66655 12.6961 2.4707 12.7388 2.28239 12.7626C2.34139 17.026 6.12776 21.3559 10.926 21.7523Z" fill="#FFA133"/>
</svg>
