<svg width="30" height="39" viewBox="0 0 30 39" fill="none" xmlns="http://www.w3.org/2000/svg">
<path d="M9.82059 29.3965V22.7764M9.82059 22.7764V11.218H14.7839C17.9756 11.218 20.5631 13.8054 20.5631 16.9972V16.9972C20.5631 20.1889 17.9756 22.7764 14.7839 22.7764H9.82059ZM16.7216 1.81239H6.65903C4.97061 1.7104 1.59375 2.58068 1.59375 6.87767V32.6118C1.60508 34.1472 2.54222 37.2181 6.2001 37.2181H23.3847C24.9513 37.2408 28.0845 36.3325 28.0845 32.5183V12.5206C28.059 12.1127 27.8448 11.0996 27.1921 10.3109L19.4752 2.42404C19.2599 2.22015 18.4078 1.81239 16.7216 1.81239Z" stroke="#BDD0E2" stroke-width="2"/>
</svg>
