<svg width="9" height="11" viewBox="0 0 9 11" fill="none" xmlns="http://www.w3.org/2000/svg">
<path d="M4.10179 10.3453C3.2863 10.3453 2.4708 10.3755 1.65699 10.3387C0.652399 10.2935 0.0378256 9.67638 0.0293837 8.77829C0.0209417 7.87519 0.628761 7.29486 1.65193 7.22964C3.0533 7.141 3.05329 7.141 3.05329 5.77965C3.05329 5.13912 3.03979 4.49858 3.05498 3.85805C3.06511 3.42991 2.88108 3.24929 2.44885 3.27772C2.16858 3.29612 1.88662 3.28775 1.60634 3.27772C0.679415 3.24594 0.103671 2.72749 0.0378236 1.87122C-0.0280238 1.01494 0.476806 0.29413 1.36152 0.233923C2.53496 0.15532 3.72359 0.15532 4.89702 0.240613C5.73616 0.30082 6.19033 0.941354 6.20722 1.9147C6.23592 3.38977 6.23592 4.86651 6.21059 6.34159C6.20046 6.89348 6.29332 7.20121 6.94673 7.28483C7.77573 7.39019 8.27888 8.11602 8.21472 8.89202C8.15056 9.66635 7.56637 10.2768 6.71542 10.3286C5.84759 10.3821 4.973 10.3403 4.10179 10.3403C4.10179 10.3403 4.10179 10.342 4.10179 10.3453Z" fill="#9BA9B3"/>
</svg>
