<svg width="14" height="14" viewBox="0 0 14 14" fill="none" xmlns="http://www.w3.org/2000/svg">
<path d="M3 1V3H1V1H3ZM4 13V11C4 10.4477 3.55228 10 3 10H1C0.447715 10 0 10.4477 0 11V13C0 13.5523 0.447715 14 1 14H3C3.55228 14 4 13.5523 4 13ZM4 8V6C4 5.44772 3.55228 5 3 5H1C0.447715 5 0 5.44772 0 6V8C0 8.55228 0.447715 9 1 9H3C3.55228 9 4 8.55228 4 8ZM4 3V1C4 0.447715 3.55228 0 3 0H1C0.447715 0 0 0.447715 0 1V3C0 3.55228 0.447715 4 1 4H3C3.55228 4 4 3.55228 4 3ZM9 13V11C9 10.4477 8.55228 10 8 10H6C5.44772 10 5 10.4477 5 11V13C5 13.5523 5.44772 14 6 14H8C8.55228 14 9 13.5523 9 13ZM9 8V6C9 5.44772 8.55228 5 8 5H6C5.44772 5 5 5.44772 5 6V8C5 8.55228 5.44772 9 6 9H8C8.55228 9 9 8.55228 9 8ZM9 3V1C9 0.447715 8.55228 0 8 0H6C5.44772 0 5 0.447715 5 1V3C5 3.55228 5.44772 4 6 4H8C8.55228 4 9 3.55228 9 3ZM8 1V3H6V1H8ZM13 1V3H11V1H13ZM3 6V8H1V6H3ZM8 6V8H6V6H8ZM13 6H11V8H13V6ZM3 11V13H1V11H3ZM8 11V13H6V11H8ZM13 11V13H11V11H13ZM11 0C10.4477 0 10 0.447715 10 1V3C10 3.55228 10.4477 4 11 4H13C13.5523 4 14 3.55228 14 3V1C14 0.447715 13.5523 0 13 0H11ZM10 6C10 5.44772 10.4477 5 11 5H13C13.5523 5 14 5.44772 14 6V8C14 8.55228 13.5523 9 13 9H11C10.4477 9 10 8.55228 10 8V6ZM11 10C10.4477 10 10 10.4477 10 11V13C10 13.5523 10.4477 14 11 14H13C13.5523 14 14 13.5523 14 13V11C14 10.4477 13.5523 10 13 10H11Z" fill="#FFA133"/>
</svg>
