<svg width="38" height="38" viewBox="0 0 38 38" fill="none" xmlns="http://www.w3.org/2000/svg">
<rect x="0.28125" y="0.140625" width="37" height="37" rx="18.5" fill="#00D8A0"/>
<path d="M29.7812 18.6406C29.7812 18.6406 25.6562 11.0781 18.7812 11.0781C11.9062 11.0781 7.78125 18.6406 7.78125 18.6406C7.78125 18.6406 11.9062 26.2031 18.7812 26.2031C25.6562 26.2031 29.7812 18.6406 29.7812 18.6406ZM9.39371 18.6406C9.47199 18.5213 9.56124 18.3887 9.66125 18.2452C10.1217 17.5845 10.8012 16.7059 11.6754 15.8316C13.4477 14.0594 15.8671 12.4531 18.7812 12.4531C21.6954 12.4531 24.1148 14.0594 25.8871 15.8316C26.7613 16.7059 27.4408 17.5845 27.9012 18.2452C28.0013 18.3887 28.0905 18.5213 28.1688 18.6406C28.0905 18.76 28.0013 18.8926 27.9012 19.0361C27.4408 19.6967 26.7613 20.5754 25.8871 21.4496C24.1148 23.2219 21.6954 24.8281 18.7812 24.8281C15.8671 24.8281 13.4477 23.2219 11.6754 21.4496C10.8012 20.5754 10.1217 19.6967 9.66125 19.0361C9.56124 18.8926 9.47199 18.76 9.39371 18.6406Z" fill="white"/>
<path d="M18.7812 18.6406C16.8828 18.6406 19.1875 16.7421 19.1875 18.6406C19.1875 20.5391 16.3515 19.4531 18.25 19.4531C20.1485 19.4531 17.3125 20.1437 17.3125 18.2452C17.3125 16.3467 20.6797 18.6406 18.7812 18.6406ZM13.9688 18.6406C13.9688 15.9828 16.1234 13.8281 18.7812 13.8281C21.4391 13.8281 23.5938 15.9828 23.5938 18.6406C23.5938 21.2985 21.4391 23.4531 18.7812 23.4531C16.1234 23.4531 13.9688 21.2985 13.9688 18.6406Z" fill="white"/>
</svg>
