<svg width="48" height="48" viewBox="0 0 48 48" fill="none" xmlns="http://www.w3.org/2000/svg">
<g clip-path="url(#clip0_1476_20249)">
<path fill-rule="evenodd" clip-rule="evenodd" d="M45 3H3V45H45V3ZM0 0V48H48V0H0Z" fill="white"/>
<path d="M19.3647 27.6495C23.0552 27.6495 26.047 24.6578 26.047 20.9672C26.047 17.2767 23.0552 14.2849 19.3647 14.2849C15.6741 14.2849 12.6824 17.2767 12.6824 20.9672C12.6824 24.6578 15.6741 27.6495 19.3647 27.6495Z" fill="white"/>
<path d="M6 37.673C6 33.2293 14.9042 30.9907 19.3646 30.9907C23.8251 30.9907 32.7292 33.2293 32.7292 37.673V39.3436C32.7292 40.2624 31.9775 41.0142 31.0587 41.0142H7.67058C6.75176 41.0142 6 40.2624 6 39.3436V37.673Z" fill="white"/>
<path d="M30.6067 27.1971C30.022 26.6124 29.9718 25.6936 30.4396 25.0254C31.4085 23.6722 31.9765 22.0016 31.9765 20.2141C31.9765 18.4266 31.4085 16.756 30.4563 15.4029C29.9885 14.7346 30.022 13.8158 30.6067 13.2311C31.325 12.5128 32.5111 12.5796 33.1125 13.3815C34.4991 15.3026 35.3177 17.6581 35.3177 20.2141C35.3177 22.7701 34.4991 25.1256 33.1125 27.0468C32.5278 27.8654 31.325 27.9155 30.6067 27.1971ZM42 20.2141C42 24.6245 40.4464 28.6672 37.8737 31.8246C37.2389 32.5931 36.0862 32.6599 35.3845 31.9583C34.7831 31.3569 34.733 30.4046 35.2676 29.7531C37.3725 27.1637 38.6588 23.8393 38.6588 20.2141C38.6588 16.589 37.3725 13.2645 35.2509 10.6918C34.7163 10.0403 34.7664 9.08808 35.3678 8.48668C36.0695 7.78503 37.2221 7.85186 37.857 8.62032C40.4464 11.761 42 15.8038 42 20.2141Z" fill="white"/>
</g>
<defs>
<clipPath id="clip0_1476_20249">
<rect width="48" height="48" fill="white"/>
</clipPath>
</defs>
</svg>
