<svg width="13" height="21" viewBox="0 0 13 21" fill="none" xmlns="http://www.w3.org/2000/svg">
<path d="M5.15842 0.615351L5.15854 0.615329C8.21199 0.0724661 11.0524 1.98494 11.7223 5.07306C11.9983 6.36295 11.9188 7.63636 11.3308 8.80895L11.3307 8.80908C10.8539 9.76124 10.3834 10.7004 9.8358 11.5719L9.83543 11.5725C8.34075 13.9664 6.93261 16.4236 6.17016 19.2342C6.12798 19.0737 6.08402 18.9131 6.03691 18.7535C5.3773 16.4376 4.26917 14.3813 3.06034 12.392L3.06036 12.392L3.05875 12.3894C2.39381 11.3244 1.74796 10.248 1.18186 9.14062L1.18158 9.14008C-0.650416 5.57792 1.38685 1.28399 5.15842 0.615351ZM3.81799 6.23376L3.81797 6.23376L6.16159 8.50426L6.15799 8.75423C6.15801 8.75423 6.15803 8.75423 6.15804 8.75423C7.46377 8.77301 8.53607 7.66859 8.53694 6.3221C8.55354 4.99749 7.48842 3.82109 6.1793 3.81998C4.90253 3.80218 3.83551 4.92628 3.81799 6.23376Z" fill="#14BE06" stroke="white" stroke-width="0.5"/>
</svg>
