<svg width="113" height="99" viewBox="0 0 113 99" fill="none" xmlns="http://www.w3.org/2000/svg">
<path d="M4.1 98.9L0 81.7H3.6L6.4 93.8L9.6 81.7H12.8L16 93.8L18.8 81.7H22.4L18.3 98.9H14.8L11.3 86.8L7.6 98.9H4.1Z" fill="#007BEC"/>
<path d="M28.4 99C27.4 99 26.4999 98.9 25.7999 98.7C25.0999 98.5 24.5 98.1 24 97.6C23.5 97.1 23.2 96.4 23 95.6C22.8 94.8 22.7 93.8 22.7 92.6C22.7 91.3 22.8 90.3 23 89.5C23.2 88.7 23.5 88 24 87.5C24.5 87 25.0999 86.7 25.7999 86.5C26.4999 86.3 27.4 86.2 28.4 86.2C29.4 86.2 30.3 86.3 31 86.5C31.7 86.7 32.2999 87 32.7999 87.5C33.2999 88 33.5999 88.6 33.7999 89.5C33.9999 90.3 34.0999 91.4 34.0999 92.6C34.0999 93.8 33.9999 94.9 33.7999 95.7C33.5999 96.5 33.2999 97.2 32.7999 97.7C32.4 98.2 31.8 98.5 31 98.7C30.3 98.9 29.4 99 28.4 99ZM28.4 96.2C28.8 96.2 29.2 96.2 29.5 96.1C29.8 96 30 95.9 30.2 95.6C30.4 95.4 30.5 95 30.6 94.5C30.7 94 30.7 93.4 30.7 92.5C30.7 91.7 30.7 91 30.6 90.5C30.5 90 30.4 89.6 30.2 89.4C30 89.2 29.8 89 29.5 88.9C29.2 88.8 28.9 88.8 28.4 88.8C27.9999 88.8 27.7 88.8 27.4 88.9C27.0999 89 26.9 89.1 26.7 89.4C26.5 89.6 26.3999 90 26.2999 90.5C26.1999 91 26.2 91.6 26.2 92.5C26.2 93.3 26.1999 94 26.2999 94.5C26.3999 95 26.5 95.4 26.7 95.6C26.9 95.8 27.0999 96 27.4 96.1C27.5999 96.2 27.9999 96.2 28.4 96.2Z" fill="#007BEC"/>
<path d="M36.3999 98.9V86.4H38.9999L39.7999 88.3C40.1999 87.7 40.7999 87.2 41.2999 86.8C41.8999 86.4 42.4999 86.2 43.2999 86.2C43.4999 86.2 43.5999 86.2 43.7999 86.2C43.9999 86.2 44.0999 86.2 44.2999 86.3V89.8C44.0999 89.8 43.7999 89.7 43.5999 89.7C43.2999 89.7 43.0999 89.7 42.8999 89.7C42.4999 89.7 41.9999 89.8 41.6999 89.9C41.2999 90 40.9999 90.1 40.6999 90.3C40.3999 90.5 40.0999 90.7 39.7999 91.1V98.9H36.3999Z" fill="#007BEC"/>
<path d="M46.2 98.9001V81.1001H49.5999V90.7001H51.0999L53.7999 86.4001H57.2999L53.5999 92.3001L57.5999 98.9001H54.0999L50.9 93.9001H49.5V98.9001H46.2Z" fill="#007BEC"/>
<path d="M59.9001 98.9V89.2H58.1001V87L59.9001 86.4V85.6C59.9001 84.5 60.0001 83.7 60.3001 83C60.6001 82.3 61.0001 81.8 61.6001 81.5C62.2001 81.2 63.0001 81 64.0001 81C64.5001 81 65.0001 81 65.5001 81.1C65.9001 81.2 66.3001 81.3 66.6001 81.3V83.8H64.7001C64.3001 83.8 64.1001 83.9 63.9001 84C63.7001 84.1 63.6001 84.3 63.5001 84.5C63.4001 84.7 63.4001 85 63.4001 85.4V86.4H66.6001V89.2H63.4001V98.9H59.9001Z" fill="#FFA133"/>
<path d="M73.5 99C72.5 99 71.6 98.9 70.9 98.7C70.2 98.5 69.6 98.1 69.1 97.6C68.6 97.1 68.3 96.4 68.1 95.6C67.9 94.8 67.8 93.8 67.8 92.6C67.8 91.3 67.9 90.3 68.1 89.5C68.3 88.7 68.6 88 69.1 87.5C69.6 87 70.2 86.7 70.9 86.5C71.6 86.3 72.5 86.2 73.5 86.2C74.5 86.2 75.4 86.3 76.1 86.5C76.8 86.7 77.4 87 77.9 87.5C78.4 88 78.7 88.6 78.9 89.5C79.1 90.3 79.2 91.4 79.2 92.6C79.2 93.8 79.1 94.9 78.9 95.7C78.7 96.5 78.4 97.2 77.9 97.7C77.5 98.2 76.9 98.5 76.1 98.7C75.5 98.9 74.6 99 73.5 99ZM73.5 96.2C73.9 96.2 74.3 96.2 74.6 96.1C74.9 96 75.1 95.9 75.3 95.6C75.5 95.4 75.6 95 75.7 94.5C75.8 94 75.8 93.4 75.8 92.5C75.8 91.7 75.8 91 75.7 90.5C75.6 90 75.5 89.6 75.3 89.4C75.1 89.2 74.9 89 74.6 88.9C74.3 88.8 74 88.8 73.5 88.8C73.1 88.8 72.8 88.8 72.5 88.9C72.2 89 72 89.1 71.8 89.4C71.6 89.6 71.5 90 71.4 90.5C71.3 91 71.3 91.6 71.3 92.5C71.3 93.3 71.3 94 71.4 94.5C71.5 95 71.6 95.4 71.8 95.6C72 95.8 72.2 96 72.5 96.1C72.8 96.2 73.1 96.2 73.5 96.2Z" fill="#FFA133"/>
<path d="M81.5 98.9V86.4H84.1L84.9 88.3C85.3 87.7 85.9 87.2 86.4 86.8C87 86.4 87.6 86.2 88.4 86.2C88.6 86.2 88.7 86.2 88.9 86.2C89.1 86.2 89.2 86.2 89.4 86.3V89.8C89.2 89.8 88.9 89.7 88.7 89.7C88.4 89.7 88.2 89.7 88 89.7C87.6 89.7 87.1 89.8 86.8 89.9C86.4 90 86.1 90.1 85.8 90.3C85.5 90.5 85.2 90.7 84.9 91.1V98.9H81.5Z" fill="#FFA133"/>
<path d="M96.1999 99C95.3999 99 94.6999 98.9 94.0999 98.7C93.4999 98.5 92.8999 98.2 92.3999 97.7C91.8999 97.2 91.5999 96.6 91.2999 95.8C90.9999 95 90.8999 94 90.8999 92.7C90.8999 91.4 90.9999 90.4 91.1999 89.5C91.3999 88.7 91.7999 88 92.1999 87.5C92.6999 87 93.1999 86.7 93.8999 86.5C94.5999 86.3 95.2999 86.2 96.1999 86.2C96.9999 86.2 97.6999 86.2 98.3999 86.3C99.0999 86.4 99.7999 86.5 100.6 86.8V88.8H97.2999C96.5999 88.8 95.9999 88.9 95.5999 89.1C95.1999 89.3 94.8999 89.7 94.6999 90.3C94.4999 90.9 94.3999 91.7 94.3999 92.7C94.3999 93.7 94.4999 94.5 94.6999 95.1C94.8999 95.6 95.1999 96 95.6999 96.2C96.0999 96.4 96.6999 96.5 97.4999 96.5H100.9V98.5C100.5 98.6 100.1 98.7 99.5999 98.8C99.0999 98.9 98.5999 99 97.9999 99C97.2999 99 96.7999 99 96.1999 99Z" fill="#FFA133"/>
<path d="M108 99C106.6 99 105.5 98.8 104.7 98.5C103.9 98.1 103.3 97.5 102.9 96.6C102.5 95.7 102.4 94.4 102.4 92.7C102.4 91 102.6 89.7 102.9 88.8C103.2 87.9 103.8 87.2 104.6 86.8C105.4 86.4 106.5 86.2 107.9 86.2C109.1 86.2 110.1 86.3 110.9 86.6C111.7 86.9 112.2 87.3 112.5 87.9C112.8 88.5 113 89.4 113 90.5C113 91.3 112.8 92 112.5 92.5C112.2 93 111.7 93.3 111.1 93.5C110.5 93.7 109.8 93.8 109 93.8H105.9C105.9 94.4 106 94.9 106.2 95.3C106.4 95.7 106.7 96 107.1 96.1C107.5 96.3 108.2 96.3 109 96.3H112.6V98.3C112 98.4 111.3 98.5 110.6 98.7C109.8 98.9 109 99 108 99ZM105.7 91.8H108.5C109 91.8 109.3 91.7 109.5 91.5C109.7 91.3 109.8 91 109.8 90.5C109.8 90.1 109.7 89.7 109.6 89.4C109.5 89.1 109.2 88.9 108.9 88.8C108.6 88.7 108.2 88.6 107.7 88.6C107.2 88.6 106.8 88.7 106.4 88.9C106.1 89.1 105.9 89.4 105.7 89.8C105.8 90.3 105.7 91 105.7 91.8Z" fill="#FFA133"/>
<path d="M90.5 30.1998C87.1 26.3998 79.6 25.0998 68.3 31.7998C70.1 32.9998 71.8 33.9998 73.4 34.6998C81.1 30.7998 85.5 31.9998 86.9 33.5998C87.8 34.5998 87.8 35.9998 87 36.9998C85.6 38.6998 80.9 39.9998 72.3 35.2998C72.3 35.2998 72.3 35.2998 72.4 35.2998C70 34.0998 67.3 32.4998 64.7 30.1998C64.6 30.0998 64.6 30.0998 64.5 29.9998C63.4 28.9998 62.1 27.6998 60.9 26.0998L60.8 25.9998C60.7 25.8998 60.7 25.8998 60.7 25.7998C59.8 27.0998 58.8 28.3998 57.5 29.7998C58 30.3998 58.4 30.8998 58.9 31.4998C61.6 34.3998 64.6 36.6998 67.5 38.3998C68.1 38.6998 68.6 39.0998 69.1 39.3998C72.1 41.0998 74.9 42.0998 76.7 42.7998C83.5 44.7998 88.2 43.2998 90.6 40.3998C93.2 37.2998 93.1 33.0998 90.5 30.1998Z" fill="#FFA133"/>
<path d="M56.8 28.8999C58 27.4999 59.1 26.1999 59.9 24.8999L59.8 24.7999C69.6 10.2999 64.6 3.79992 62.7 2.09992C59.6 -0.800083 54.7 -0.600083 51.5 2.39992C47.8 5.99992 46.6 13.2999 53 23.6999C54.3 22.0999 55.3 20.5999 56.1 19.2999C52.8 12.7999 52.9 8.09992 55 5.99992C55.7 5.29992 56.6 4.99992 57.5 4.99992C58.3 4.99992 59 5.29992 59.6 5.79992C60.9 6.99992 61.8 10.3999 59.2 16.1999C58.4 18.1999 56.8 21.2999 53.9 24.6999C50.7 28.7999 47.3 30.8999 47.2 30.8999L47 31.0999C46.8 31.1999 46.7 31.2999 46.5 31.4999C47.8 32.2999 49.2 33.3999 50.8 34.5999C52.1 33.5999 54.4 31.6999 56.8 28.8999Z" fill="#007BEC"/>
<path d="M25.8999 37.9C25.0999 37 25.1999 35.7 26.1999 34.5C27.0999 33.4 28.8999 32.5 31.5999 32.5C32.7999 32.5 34.2999 32.7 35.8999 33.2C37.7999 33.6 42.8999 35.1 48.5999 40.7C49.9999 42 51.4999 43.5999 52.7999 45.2999C52.8999 45.5 52.9999 45.6999 53.1999 45.7999C54.0999 44.4 55.0999 42.9 56.1999 41.5C54.0999 38.7 51.3999 36.3999 49.7999 35.0999C48.2999 33.8999 46.7999 32.9 45.4999 32C45.4999 32 45.4999 32 45.3999 32C33.8999 25.1 25.8999 27 22.3999 31.1C19.7999 34.2 19.6999 38.3999 22.1999 41.0999C23.7999 42.8999 29.8999 47.5 44.5999 38.4C42.7999 37.1 41.1999 36.1 39.7999 35.4C31.5999 40.2 27.1999 39.4 25.8999 37.9Z" fill="#FFA133"/>
<path d="M57.2 52.2999C61.6 60.6999 60.7 65.0999 59.3 66.3999C58.3 67.2999 56.7 67.0999 55.5 65.9999C53.4 63.9999 52.9 59.6999 55.5 53.9999C56.5 51.5999 58.1 48.5999 60.7 45.6999C63.5 42.0999 65.6 39.7999 66.2 39.2999C66.3 39.1999 66.5 39.0999 66.6 38.9999C65.2 38.0999 63.8 37.1999 62.4 36.0999C61.5 36.9999 59.4 39.2999 56.9 42.5999C54.6 45.6999 52.7 48.8999 51.2 51.5999C47.2 60.1999 48.7 66.4999 52.2 69.7999C53.9 71.3999 55.9 72.1999 57.8 72.1999C59.5 72.1999 61.2 71.5999 62.6 70.3999C64.4 68.7999 69 62.6999 60.3 47.8999C59 49.2999 58 50.8999 57.2 52.2999Z" fill="#007BEC"/>
</svg>
