<svg width="126" height="20" viewBox="0 0 126 20" fill="none" xmlns="http://www.w3.org/2000/svg">
<path d="M4.55556 19.8889L0 0.777832H4L7.11111 14.2223L10.5556 0.777832H14.1111L17.6667 14.2223L20.7778 0.777832H24.7778L20.2222 19.8889H16.3333L12.3333 6.33339L8.44444 19.8889H4.55556Z" fill="#007BEC"/>
<path d="M31.5555 20.0001C30.4444 20.0001 29.4444 19.8889 28.6666 19.6667C27.8888 19.4445 27.2222 19.0001 26.6666 18.4445C26.1111 17.8889 25.7777 17.1112 25.5555 16.2223C25.3333 15.3334 25.2222 14.2223 25.2222 12.8889C25.2222 11.4445 25.3333 10.3334 25.5555 9.4445C25.7777 8.55561 26.1111 7.77783 26.6666 7.22228C27.2222 6.66672 27.8888 6.33339 28.6666 6.11117C29.4444 5.88894 30.4444 5.77783 31.5555 5.77783C32.6666 5.77783 33.6666 5.88894 34.4444 6.11117C35.2222 6.33339 35.8888 6.66672 36.4444 7.22228C36.9999 7.77783 37.3333 8.4445 37.5555 9.4445C37.7777 10.3334 37.8888 11.5556 37.8888 12.8889C37.8888 14.2223 37.7777 15.4445 37.5555 16.3334C37.3333 17.2223 36.9999 18.0001 36.4444 18.5556C35.9999 19.1112 35.3333 19.4445 34.4444 19.6667C33.6666 19.8889 32.6666 20.0001 31.5555 20.0001ZM31.5555 16.8889C31.9999 16.8889 32.4444 16.8889 32.7777 16.7778C33.1111 16.6667 33.3333 16.5556 33.5555 16.2223C33.7777 16.0001 33.8888 15.5556 33.9999 15.0001C34.1111 14.4445 34.1111 13.7778 34.1111 12.7778C34.1111 11.8889 34.1111 11.1112 33.9999 10.5556C33.8888 10.0001 33.7777 9.55561 33.5555 9.33339C33.3333 9.11117 33.1111 8.88894 32.7777 8.77783C32.4444 8.66672 32.1111 8.66672 31.5555 8.66672C31.1111 8.66672 30.7777 8.66672 30.4444 8.77783C30.1111 8.88894 29.8888 9.00005 29.6666 9.33339C29.4444 9.55561 29.3333 10.0001 29.2222 10.5556C29.1111 11.1112 29.1111 11.7778 29.1111 12.7778C29.1111 13.6667 29.1111 14.4445 29.2222 15.0001C29.3333 15.5556 29.4444 16.0001 29.6666 16.2223C29.8888 16.4445 30.1111 16.6667 30.4444 16.7778C30.6666 16.8889 31.1111 16.8889 31.5555 16.8889Z" fill="#007BEC"/>
<path d="M40.4443 19.8889V6.00005H43.3332L44.2221 8.11117C44.6666 7.4445 45.3332 6.88894 45.8888 6.4445C46.5554 6.00005 47.2221 5.77783 48.111 5.77783C48.3332 5.77783 48.4443 5.77783 48.6666 5.77783C48.8888 5.77783 48.9999 5.77783 49.2221 5.88894V9.77783C48.9999 9.77783 48.6666 9.66672 48.4443 9.66672C48.111 9.66672 47.8888 9.66672 47.6666 9.66672C47.2221 9.66672 46.6666 9.77783 46.3332 9.88894C45.9999 10.0001 45.5554 10.1112 45.2221 10.3334C44.8888 10.5556 44.5554 10.7778 44.2221 11.2223V19.8889H40.4443Z" fill="#007BEC"/>
<path d="M51.3333 19.8889V0.111084H55.111V10.7777H56.7777L59.7777 5.99997H63.6666L59.5555 12.5555L63.9999 19.8889H60.111L56.5555 14.3333H54.9999V19.8889H51.3333Z" fill="#007BEC"/>
<path d="M66.5557 19.8889V9.11111H64.5557V6.55556L66.5557 5.88889V5.11111C66.5557 3.88889 66.6668 3 67.0001 2.22222C67.3334 1.44444 67.7779 0.888889 68.4446 0.555556C69.2223 0.222222 70.1112 0 71.2223 0C71.7779 0 72.3334 0 72.889 0.111111C73.3334 0.222222 73.7779 0.333333 74.1112 0.333333V3.11111H72.0001C71.5557 3.11111 71.3334 3.22222 71.1112 3.33333C70.889 3.44444 70.7779 3.66667 70.6668 3.88889C70.5557 4.11111 70.5557 4.44444 70.5557 4.88889V6H74.1112V9.11111H70.5557V19.8889H66.5557Z" fill="#FFA133"/>
<path d="M81.6666 20.0001C80.5555 20.0001 79.5555 19.8889 78.7777 19.6667C77.9999 19.4445 77.3332 19.0001 76.7777 18.4445C76.2221 17.8889 75.8888 17.1112 75.6666 16.2223C75.4444 15.3334 75.3333 14.2223 75.3333 12.8889C75.3333 11.4445 75.4444 10.3334 75.6666 9.4445C75.8888 8.55561 76.2221 7.77783 76.7777 7.22228C77.3332 6.66672 77.9999 6.33339 78.7777 6.11117C79.5555 5.88894 80.5555 5.77783 81.6666 5.77783C82.7777 5.77783 83.7777 5.88894 84.5555 6.11117C85.3333 6.33339 85.9999 6.66672 86.5555 7.22228C87.111 7.77783 87.4444 8.4445 87.6666 9.4445C87.8888 10.3334 87.9999 11.5556 87.9999 12.8889C87.9999 14.2223 87.8888 15.4445 87.6666 16.3334C87.4444 17.2223 87.111 18.0001 86.5555 18.5556C86.111 19.1112 85.4444 19.4445 84.5555 19.6667C83.8888 19.8889 82.8888 20.0001 81.6666 20.0001ZM81.6666 16.8889C82.111 16.8889 82.5555 16.8889 82.8888 16.7778C83.2221 16.6667 83.4444 16.5556 83.6666 16.2223C83.8888 16.0001 83.9999 15.5556 84.111 15.0001C84.2221 14.4445 84.2221 13.7778 84.2221 12.7778C84.2221 11.8889 84.2221 11.1112 84.111 10.5556C83.9999 10.0001 83.8888 9.55561 83.6666 9.33339C83.4444 9.11117 83.2221 8.88894 82.8888 8.77783C82.5555 8.88894 82.2221 8.77783 81.6666 8.77783C81.2221 8.77783 80.8888 8.77783 80.5555 8.88894C80.2221 9.00005 79.9999 9.11117 79.7777 9.4445C79.5555 9.66672 79.4444 10.1112 79.3333 10.6667C79.2221 11.2223 79.2221 11.8889 79.2221 12.8889C79.2221 13.7778 79.2221 14.5556 79.3333 15.1112C79.4444 15.6667 79.5555 16.1112 79.7777 16.3334C79.9999 16.5556 80.2221 16.7778 80.5555 16.8889C80.8888 16.8889 81.2221 16.8889 81.6666 16.8889Z" fill="#FFA133"/>
<path d="M90.5557 19.8889V6.00005H93.4446L94.4446 8.11117C94.889 7.4445 95.5557 6.88894 96.1112 6.4445C96.7779 6.00005 97.4446 5.77783 98.3334 5.77783C98.5557 5.77783 98.6668 5.77783 98.889 5.77783C99.1112 5.77783 99.2223 5.77783 99.4445 5.88894V9.77783C99.2223 9.77783 98.889 9.66672 98.6668 9.66672C98.3334 9.66672 98.1112 9.66672 97.889 9.66672C97.4445 9.66672 96.889 9.77783 96.5557 9.88894C96.1112 10.0001 95.7779 10.1112 95.4446 10.3334C95.1112 10.5556 94.7779 10.7778 94.4446 11.2223V19.8889H90.5557Z" fill="#FFA133"/>
<path d="M106.889 20.0001C106 20.0001 105.222 19.8889 104.556 19.6667C103.889 19.4445 103.222 19.1112 102.667 18.5556C102.111 18.0001 101.778 17.3334 101.444 16.4445C101.111 15.5556 101 14.4445 101 13.0001C101 11.5556 101.111 10.4445 101.333 9.4445C101.556 8.55561 102 7.77783 102.444 7.22228C103 6.66672 103.556 6.33339 104.333 6.11117C105.111 5.88894 105.889 5.77783 106.889 5.77783C107.778 5.77783 108.556 5.77783 109.333 5.88894C110.111 6.00005 110.889 6.11117 111.778 6.4445V8.66672H108.111C107.333 8.66672 106.667 8.77783 106.222 9.00005C105.778 9.22228 105.444 9.66672 105.222 10.3334C105 11.0001 104.889 11.8889 104.889 13.0001C104.889 14.1112 105 15.0001 105.222 15.6667C105.444 16.2223 105.778 16.6667 106.333 16.8889C106.778 17.1112 107.444 17.2223 108.333 17.2223H112.111V19.4445C111.667 19.5556 111.222 19.6667 110.667 19.7778C110.111 19.8889 109.556 20.0001 108.889 20.0001C108.111 20.0001 107.556 20.0001 106.889 20.0001Z" fill="#FFA133"/>
<path d="M120 20.0001C118.444 20.0001 117.222 19.7778 116.333 19.4445C115.444 19.0001 114.778 18.3334 114.333 17.3334C113.889 16.3334 113.778 14.8889 113.778 13.0001C113.778 11.1112 114 9.66672 114.333 8.66672C114.667 7.66672 115.333 6.88894 116.222 6.4445C117.111 6.00005 118.333 5.77783 119.889 5.77783C121.222 5.77783 122.333 5.88894 123.222 6.22228C124 6.4445 124.667 7.00005 125 7.66672C125.333 8.33339 125.556 9.33339 125.556 10.5556C125.556 11.4445 125.333 12.2223 125 12.7778C124.667 13.3334 124.111 13.6667 123.444 13.8889C122.778 14.1112 122 14.2223 121.111 14.2223H117.667C117.667 14.8889 117.778 15.4445 118 15.8889C118.222 16.3334 118.556 16.6667 119 16.7778C119.444 17.0001 120.222 17.0001 121.111 17.0001H125.111V19.2223C124.444 19.3334 123.667 19.4445 122.889 19.6667C122 19.8889 121.111 20.0001 120 20.0001ZM117.444 12.0001H120.556C121.111 12.0001 121.444 11.8889 121.667 11.6667C121.889 11.4445 122 11.1112 122 10.5556C122 10.1112 121.889 9.66672 121.778 9.33339C121.667 9.00005 121.333 8.77783 121 8.66672C120.667 8.55561 120.222 8.4445 119.667 8.4445C119.111 8.4445 118.667 8.55561 118.222 8.77783C117.889 9.00005 117.667 9.33339 117.444 9.77783C117.556 10.3334 117.444 11.1112 117.444 12.0001Z" fill="#FFA133"/>
</svg>
